Mitr-400.ufo
<glyph name="numbersign" format="1">
  <advance width="796"/>
  <unicode hex="0023"/>
  <note>
	numbersign
  </note>
  <outline>
    <contour>
      <point x="161" y="0" type="line" smooth="yes"/>
      <point x="181" y="0"/>
      <point x="186" y="5"/>
      <point x="190" y="16" type="curve" smooth="yes"/>
      <point x="249" y="164" type="line"/>
      <point x="416" y="164" type="line"/>
      <point x="360" y="23" type="line" smooth="yes"/>
      <point x="355" y="10"/>
      <point x="358" y="0"/>
      <point x="371" y="0" type="curve" smooth="yes"/>
      <point x="452" y="0" type="line" smooth="yes"/>
      <point x="472" y="0"/>
      <point x="476" y="5"/>
      <point x="481" y="16" type="curve"/>
      <point x="541" y="164" type="line"/>
      <point x="686" y="164" type="line" smooth="yes"/>
      <point x="714" y="164"/>
      <point x="719" y="171"/>
      <point x="719" y="198" type="curve" smooth="yes"/>
      <point x="719" y="223" type="line" smooth="yes"/>
      <point x="719" y="252"/>
      <point x="713" y="259"/>
      <point x="685" y="259" type="curve" smooth="yes"/>
      <point x="578" y="259" type="line"/>
      <point x="637" y="406" type="line"/>
      <point x="724" y="406" type="line" smooth="yes"/>
      <point x="752" y="406"/>
      <point x="757" y="413"/>
      <point x="757" y="440" type="curve" smooth="yes"/>
      <point x="757" y="465" type="line" smooth="yes"/>
      <point x="757" y="494"/>
      <point x="751" y="501"/>
      <point x="723" y="501" type="curve" smooth="yes"/>
      <point x="673" y="501" type="line"/>
      <point x="735" y="656" type="line" smooth="yes"/>
      <point x="741" y="670"/>
      <point x="738" y="680"/>
      <point x="724" y="680" type="curve" smooth="yes"/>
      <point x="644" y="680" type="line" smooth="yes"/>
      <point x="624" y="680"/>
      <point x="619" y="675"/>
      <point x="614" y="663" type="curve" smooth="yes"/>
      <point x="549" y="501" type="line"/>
      <point x="382" y="501" type="line"/>
      <point x="444" y="656" type="line" smooth="yes"/>
      <point x="450" y="670"/>
      <point x="447" y="680"/>
      <point x="433" y="680" type="curve" smooth="yes"/>
      <point x="353" y="680" type="line" smooth="yes"/>
      <point x="333" y="680"/>
      <point x="328" y="675"/>
      <point x="323" y="663" type="curve" smooth="yes"/>
      <point x="258" y="501" type="line"/>
      <point x="124" y="501" type="line" smooth="yes"/>
      <point x="96" y="501"/>
      <point x="91" y="494"/>
      <point x="91" y="465" type="curve" smooth="yes"/>
      <point x="91" y="440" type="line" smooth="yes"/>
      <point x="91" y="413"/>
      <point x="96" y="406"/>
      <point x="124" y="406" type="curve" smooth="yes"/>
      <point x="221" y="406" type="line"/>
      <point x="161" y="259" type="line"/>
      <point x="72" y="259" type="line" smooth="yes"/>
      <point x="44" y="259"/>
      <point x="39" y="252"/>
      <point x="39" y="223" type="curve" smooth="yes"/>
      <point x="39" y="198" type="line" smooth="yes"/>
      <point x="39" y="171"/>
      <point x="44" y="164"/>
      <point x="72" y="164" type="curve" smooth="yes"/>
      <point x="125" y="164" type="line"/>
      <point x="69" y="23" type="line" smooth="yes"/>
      <point x="64" y="10"/>
      <point x="67" y="0"/>
      <point x="80" y="0" type="curve" smooth="yes"/>
    </contour>
    <contour>
      <point x="345" y="405" type="line"/>
      <point x="512" y="405" type="line"/>
      <point x="453" y="259" type="line"/>
      <point x="286" y="259" type="line"/>
    </contour>
  </outline>
</glyph>
<glyph name="percent" format="1">
  <advance width="755"/>
  <unicode hex="0025"/>
  <note>
	percent
  </note>
  <outline>
    <contour>
      <point x="195" y="0" type="line" smooth="yes"/>
      <point x="209" y="0"/>
      <point x="212" y="4"/>
      <point x="219" y="14" type="curve" smooth="yes"/>
      <point x="659" y="655" type="line" smooth="yes"/>
      <point x="667" y="666"/>
      <point x="664" y="680"/>
      <point x="648" y="680" type="curve" smooth="yes"/>
      <point x="558" y="680" type="line" smooth="yes"/>
      <point x="544" y="680"/>
      <point x="538" y="673"/>
      <point x="531" y="663" type="curve" smooth="yes"/>
      <point x="93" y="25" type="line" smooth="yes"/>
      <point x="85" y="13"/>
      <point x="88" y="0"/>
      <point x="104" y="0" type="curve" smooth="yes"/>
    </contour>
    <contour>
      <point x="648" y="-15"/>
      <point x="716" y="47"/>
      <point x="716" y="136" type="curve" smooth="yes"/>
      <point x="716" y="225"/>
      <point x="648" y="287"/>
      <point x="564" y="287" type="curve" smooth="yes"/>
      <point x="481" y="287"/>
      <point x="413" y="225"/>
      <point x="413" y="136" type="curve" smooth="yes"/>
      <point x="413" y="47"/>
      <point x="481" y="-15"/>
      <point x="564" y="-15" type="curve" smooth="yes"/>
    </contour>
    <contour>
      <point x="522" y="59"/>
      <point x="487" y="90"/>
      <point x="487" y="136" type="curve" smooth="yes"/>
      <point x="487" y="181"/>
      <point x="522" y="213"/>
      <point x="564" y="213" type="curve" smooth="yes"/>
      <point x="607" y="213"/>
      <point x="642" y="181"/>
      <point x="642" y="136" type="curve" smooth="yes"/>
      <point x="642" y="90"/>
      <point x="607" y="59"/>
      <point x="564" y="59" type="curve" smooth="yes"/>
    </contour>
    <contour>
      <point x="273" y="392"/>
      <point x="341" y="454"/>
      <point x="341" y="543" type="curve" smooth="yes"/>
      <point x="341" y="632"/>
      <point x="273" y="695"/>
      <point x="190" y="695" type="curve" smooth="yes"/>
      <point x="106" y="695"/>
      <point x="39" y="632"/>
      <point x="39" y="543" type="curve" smooth="yes"/>
      <point x="39" y="454"/>
      <point x="106" y="392"/>
      <point x="190" y="392" type="curve" smooth="yes"/>
    </contour>
    <contour>
      <point x="147" y="466"/>
      <point x="113" y="498"/>
      <point x="113" y="543" type="curve" smooth="yes"/>
      <point x="113" y="589"/>
      <point x="147" y="621"/>
      <point x="190" y="621" type="curve" smooth="yes"/>
      <point x="233" y="621"/>
      <point x="267" y="589"/>
      <point x="267" y="543" type="curve" smooth="yes"/>
      <point x="267" y="498"/>
      <point x="233" y="466"/>
      <point x="190" y="466" type="curve" smooth="yes"/>
    </contour>
  </outline>
</glyph>
<glyph name="quotesingle" format="1">
  <advance width="188"/>
  <unicode hex="0027"/>
  <note>
	quotesingle
  </note>
  <outline>
    <contour>
      <point x="109" y="491" type="line" smooth="yes"/>
      <point x="131" y="491"/>
      <point x="141" y="498"/>
      <point x="142" y="520" type="curve" smooth="yes"/>
      <point x="149" y="670" type="line" smooth="yes"/>
      <point x="150" y="692"/>
      <point x="141" y="699"/>
      <point x="116" y="699" type="curve" smooth="yes"/>
      <point x="72" y="699" type="line" smooth="yes"/>
      <point x="47" y="699"/>
      <point x="38" y="692"/>
      <point x="39" y="670" type="curve" smooth="yes"/>
      <point x="45" y="520" type="line" smooth="yes"/>
      <point x="46" y="499"/>
      <point x="55" y="491"/>
      <point x="74" y="491" type="curve" smooth="yes"/>
    </contour>
  </outline>
</glyph>
<glyph name="parenleft" format="1">
  <advance width="352"/>
  <unicode hex="0028"/>
  <note>
	parenleft
  </note>
  <outline>
    <contour>
      <point x="302" y="-142"/>
      <point x="329" y="-135"/>
      <point x="329" y="-94" type="curve" smooth="yes"/>
      <point x="329" y="-60"/>
      <point x="324" y="-52"/>
      <point x="300" y="-35" type="curve" smooth="yes"/>
      <point x="207" y="31"/>
      <point x="165" y="159"/>
      <point x="165" y="316" type="curve" smooth="yes"/>
      <point x="165" y="472"/>
      <point x="209" y="598"/>
      <point x="300" y="666" type="curve" smooth="yes"/>
      <point x="323" y="683"/>
      <point x="329" y="691"/>
      <point x="329" y="725" type="curve" smooth="yes"/>
      <point x="329" y="767"/>
      <point x="302" y="773"/>
      <point x="258" y="755" type="curve" smooth="yes"/>
      <point x="121" y="698"/>
      <point x="39" y="518"/>
      <point x="39" y="316" type="curve" smooth="yes"/>
      <point x="39" y="113"/>
      <point x="121" y="-67"/>
      <point x="258" y="-124" type="curve" smooth="yes"/>
    </contour>
  </outline>
</glyph>
<glyph name="period" format="1">
  <advance width="181"/>
  <unicode hex="002E"/>
  <note>
	period
  </note>
  <outline>
    <contour>
      <point x="100" y="0" type="line" smooth="yes"/>
      <point x="125" y="0"/>
      <point x="142" y="20"/>
      <point x="142" y="44" type="curve" smooth="yes"/>
      <point x="142" y="62" type="line" smooth="yes"/>
      <point x="142" y="87"/>
      <point x="124" y="107"/>
      <point x="100" y="107" type="curve" smooth="yes"/>
      <point x="81" y="107" type="line" smooth="yes"/>
      <point x="56" y="107"/>
      <point x="39" y="87"/>
      <point x="39" y="62" type="curve" smooth="yes"/>
      <point x="39" y="44" type="line" smooth="yes"/>
      <point x="39" y="20"/>
      <point x="56" y="0"/>
      <point x="81" y="0" type="curve" smooth="yes"/>
    </contour>
  </outline>
</glyph>
<glyph name="zero" format="1">
  <advance width="740"/>
  <unicode hex="0030"/>
  <note>
	zero
  </note>
  <outline>
    <contour>
      <point x="590" y="-15"/>
      <point x="701" y="114"/>
      <point x="701" y="340" type="curve" smooth="yes"/>
      <point x="701" y="566"/>
      <point x="590" y="695"/>
      <point x="370" y="695" type="curve" smooth="yes"/>
      <point x="149" y="695"/>
      <point x="39" y="566"/>
      <point x="39" y="340" type="curve" smooth="yes"/>
      <point x="39" y="114"/>
      <point x="149" y="-15"/>
      <point x="370" y="-15" type="curve" smooth="yes"/>
    </contour>
    <contour>
      <point x="324" y="79"/>
      <point x="286" y="89"/>
      <point x="257" y="107" type="curve"/>
      <point x="534" y="498" type="line"/>
      <point x="560" y="461"/>
      <point x="574" y="408"/>
      <point x="574" y="340" type="curve" smooth="yes"/>
      <point x="574" y="167"/>
      <point x="509" y="79"/>
      <point x="370" y="79" type="curve" smooth="yes"/>
    </contour>
    <contour>
      <point x="179" y="218"/>
      <point x="165" y="270"/>
      <point x="165" y="340" type="curve" smooth="yes"/>
      <point x="165" y="513"/>
      <point x="231" y="600"/>
      <point x="370" y="600" type="curve" smooth="yes"/>
      <point x="416" y="600"/>
      <point x="454" y="590"/>
      <point x="483" y="570" type="curve"/>
      <point x="207" y="181" type="line"/>
    </contour>
  </outline>
</glyph>
<glyph name="one" format="1">
  <advance width="473"/>
  <unicode hex="0031"/>
  <note>
	one
  </note>
  <outline>
    <contour>
      <point x="418" y="0" type="line" smooth="yes"/>
      <point x="445" y="0"/>
      <point x="454" y="9"/>
      <point x="454" y="33" type="curve" smooth="yes"/>
      <point x="454" y="62" type="line" smooth="yes"/>
      <point x="454" y="87"/>
      <point x="445" y="97"/>
      <point x="418" y="97" type="curve" smooth="yes"/>
      <point x="320" y="97" type="line"/>
      <point x="320" y="643" type="line" smooth="yes"/>
      <point x="320" y="667"/>
      <point x="309" y="680"/>
      <point x="282" y="680" type="curve" smooth="yes"/>
      <point x="249" y="680" type="line" smooth="yes"/>
      <point x="232" y="680"/>
      <point x="225" y="677"/>
      <point x="216" y="671" type="curve"/>
      <point x="51" y="572" type="line" smooth="yes"/>
      <point x="39" y="565"/>
      <point x="36" y="555"/>
      <point x="44" y="543" type="curve" smooth="yes"/>
      <point x="76" y="493" type="line" smooth="yes"/>
      <point x="84" y="480"/>
      <point x="94" y="481"/>
      <point x="105" y="488" type="curve" smooth="yes"/>
      <point x="191" y="540" type="line"/>
      <point x="191" y="97" type="line"/>
      <point x="93" y="97" type="line" smooth="yes"/>
      <point x="66" y="97"/>
      <point x="57" y="87"/>
      <point x="57" y="62" type="curve" smooth="yes"/>
      <point x="57" y="33" type="line" smooth="yes"/>
      <point x="57" y="9"/>
      <point x="66" y="0"/>
      <point x="93" y="0" type="curve" smooth="yes"/>
    </contour>
  </outline>
</glyph>
<glyph name="three" format="1">
  <advance width="593"/>
  <unicode hex="0033"/>
  <note>
	three
  </note>
  <outline>
    <contour>
      <point x="463" y="-15"/>
      <point x="554" y="72"/>
      <point x="554" y="194" type="curve" smooth="yes"/>
      <point x="554" y="267"/>
      <point x="521" y="325"/>
      <point x="447" y="353" type="curve"/>
      <point x="504" y="383"/>
      <point x="534" y="441"/>
      <point x="534" y="502" type="curve" smooth="yes"/>
      <point x="534" y="619"/>
      <point x="438" y="695"/>
      <point x="283" y="695" type="curve" smooth="yes"/>
      <point x="188" y="695"/>
      <point x="107" y="675"/>
      <point x="61" y="642" type="curve" smooth="yes"/>
      <point x="50" y="634"/>
      <point x="50" y="626"/>
      <point x="57" y="614" type="curve" smooth="yes"/>
      <point x="85" y="567" type="line" smooth="yes"/>
      <point x="92" y="555"/>
      <point x="97" y="556"/>
      <point x="110" y="563" type="curve" smooth="yes"/>
      <point x="146" y="583"/>
      <point x="198" y="600"/>
      <point x="265" y="600" type="curve" smooth="yes"/>
      <point x="356" y="600"/>
      <point x="407" y="568"/>
      <point x="407" y="499" type="curve" smooth="yes"/>
      <point x="407" y="445"/>
      <point x="375" y="398"/>
      <point x="299" y="398" type="curve" smooth="yes"/>
      <point x="217" y="398" type="line" smooth="yes"/>
      <point x="190" y="398"/>
      <point x="180" y="388"/>
      <point x="180" y="364" type="curve" smooth="yes"/>
      <point x="180" y="338" type="line" smooth="yes"/>
      <point x="180" y="313"/>
      <point x="190" y="302"/>
      <point x="217" y="302" type="curve" smooth="yes"/>
      <point x="301" y="302" type="line" smooth="yes"/>
      <point x="384" y="302"/>
      <point x="428" y="269"/>
      <point x="428" y="198" type="curve" smooth="yes"/>
      <point x="428" y="127"/>
      <point x="383" y="79"/>
      <point x="269" y="79" type="curve" smooth="yes"/>
      <point x="197" y="79"/>
      <point x="138" y="97"/>
      <point x="98" y="119" type="curve" smooth="yes"/>
      <point x="85" y="126"/>
      <point x="80" y="127"/>
      <point x="73" y="114" type="curve"/>
      <point x="44" y="65" type="line" smooth="yes"/>
      <point x="37" y="53"/>
      <point x="37" y="45"/>
      <point x="48" y="37" type="curve"/>
      <point x="100" y="2"/>
      <point x="181" y="-15"/>
      <point x="287" y="-15" type="curve" smooth="yes"/>
    </contour>
  </outline>
</glyph>
<glyph name="six" format="1">
  <advance width="641"/>
  <unicode hex="0036"/>
  <note>
	six
  </note>
  <outline>
    <contour>
      <point x="493" y="-15"/>
      <point x="602" y="72"/>
      <point x="602" y="248" type="curve" smooth="yes"/>
      <point x="602" y="383"/>
      <point x="502" y="475"/>
      <point x="351" y="475" type="curve" smooth="yes"/>
      <point x="271" y="475"/>
      <point x="212" y="459"/>
      <point x="163" y="417" type="curve"/>
      <point x="186" y="542"/>
      <point x="243" y="600"/>
      <point x="351" y="600" type="curve" smooth="yes"/>
      <point x="413" y="600"/>
      <point x="453" y="588"/>
      <point x="490" y="565" type="curve" smooth="yes"/>
      <point x="503" y="557"/>
      <point x="509" y="556"/>
      <point x="516" y="569" type="curve" smooth="yes"/>
      <point x="543" y="616" type="line" smooth="yes"/>
      <point x="550" y="628"/>
      <point x="549" y="635"/>
      <point x="538" y="643" type="curve" smooth="yes"/>
      <point x="492" y="675"/>
      <point x="430" y="695"/>
      <point x="344" y="695" type="curve" smooth="yes"/>
      <point x="194" y="695"/>
      <point x="39" y="597"/>
      <point x="39" y="296" type="curve" smooth="yes"/>
      <point x="39" y="66"/>
      <point x="165" y="-15"/>
      <point x="317" y="-15" type="curve" smooth="yes"/>
    </contour>
    <contour>
      <point x="231" y="79"/>
      <point x="167" y="122"/>
      <point x="167" y="242" type="curve" smooth="yes"/>
      <point x="167" y="351"/>
      <point x="248" y="393"/>
      <point x="321" y="393" type="curve" smooth="yes"/>
      <point x="413" y="393"/>
      <point x="475" y="341"/>
      <point x="475" y="245" type="curve" smooth="yes"/>
      <point x="475" y="130"/>
      <point x="419" y="79"/>
      <point x="317" y="79" type="curve" smooth="yes"/>
    </contour>
  </outline>
</glyph>
<glyph name="seven" format="1">
  <advance width="593"/>
  <unicode hex="0037"/>
  <note>
	seven
  </note>
  <outline>
    <contour>
      <point x="221" y="0" type="line" smooth="yes"/>
      <point x="235" y="0"/>
      <point x="241" y="4"/>
      <point x="246" y="14" type="curve" smooth="yes"/>
      <point x="533" y="566" type="line" smooth="yes"/>
      <point x="546" y="591"/>
      <point x="564" y="622"/>
      <point x="564" y="644" type="curve" smooth="yes"/>
      <point x="564" y="670"/>
      <point x="553" y="680"/>
      <point x="521" y="680" type="curve" smooth="yes"/>
      <point x="62" y="680" type="line" smooth="yes"/>
      <point x="36" y="680"/>
      <point x="29" y="671"/>
      <point x="29" y="647" type="curve" smooth="yes"/>
      <point x="29" y="617" type="line" smooth="yes"/>
      <point x="29" y="592"/>
      <point x="36" y="582"/>
      <point x="62" y="582" type="curve" smooth="yes"/>
      <point x="405" y="582" type="line"/>
      <point x="114" y="25" type="line" smooth="yes"/>
      <point x="107" y="12"/>
      <point x="109" y="0"/>
      <point x="124" y="0" type="curve" smooth="yes"/>
    </contour>
  </outline>
</glyph>
<glyph name="eight" format="1">
  <advance width="638"/>
  <unicode hex="0038"/>
  <note>
	eight
  </note>
  <outline>
    <contour>
      <point x="493" y="-15"/>
      <point x="599" y="60"/>
      <point x="599" y="191" type="curve" smooth="yes"/>
      <point x="599" y="267"/>
      <point x="555" y="329"/>
      <point x="485" y="354" type="curve"/>
      <point x="547" y="382"/>
      <point x="579" y="431"/>
      <point x="579" y="495" type="curve" smooth="yes"/>
      <point x="579" y="622"/>
      <point x="488" y="695"/>
      <point x="319" y="695" type="curve" smooth="yes"/>
      <point x="150" y="695"/>
      <point x="58" y="622"/>
      <point x="58" y="495" type="curve" smooth="yes"/>
      <point x="58" y="431"/>
      <point x="90" y="382"/>
      <point x="153" y="354" type="curve"/>
      <point x="82" y="329"/>
      <point x="39" y="267"/>
      <point x="39" y="191" type="curve" smooth="yes"/>
      <point x="39" y="60"/>
      <point x="144" y="-15"/>
      <point x="319" y="-15" type="curve" smooth="yes"/>
    </contour>
    <contour>
      <point x="216" y="79"/>
      <point x="165" y="116"/>
      <point x="165" y="191" type="curve" smooth="yes"/>
      <point x="165" y="266"/>
      <point x="215" y="306"/>
      <point x="319" y="306" type="curve" smooth="yes"/>
      <point x="422" y="306"/>
      <point x="472" y="266"/>
      <point x="472" y="191" type="curve" smooth="yes"/>
      <point x="472" y="116"/>
      <point x="421" y="79"/>
      <point x="319" y="79" type="curve" smooth="yes"/>
    </contour>
    <contour>
      <point x="235" y="399"/>
      <point x="185" y="424"/>
      <point x="185" y="495" type="curve" smooth="yes"/>
      <point x="185" y="571"/>
      <point x="230" y="600"/>
      <point x="319" y="600" type="curve" smooth="yes"/>
      <point x="407" y="600"/>
      <point x="452" y="571"/>
      <point x="452" y="495" type="curve" smooth="yes"/>
      <point x="452" y="424"/>
      <point x="402" y="399"/>
      <point x="319" y="399" type="curve" smooth="yes"/>
    </contour>
  </outline>
</glyph>
<glyph name="nine" format="1">
  <advance width="636"/>
  <unicode hex="0039"/>
  <note>
	nine
  </note>
  <outline>
    <contour>
      <point x="453" y="-15"/>
      <point x="597" y="78"/>
      <point x="597" y="383" type="curve" smooth="yes"/>
      <point x="597" y="605"/>
      <point x="480" y="695"/>
      <point x="324" y="695" type="curve" smooth="yes"/>
      <point x="146" y="695"/>
      <point x="39" y="611"/>
      <point x="39" y="431" type="curve" smooth="yes"/>
      <point x="39" y="296"/>
      <point x="134" y="203"/>
      <point x="293" y="203" type="curve" smooth="yes"/>
      <point x="374" y="203"/>
      <point x="433" y="219"/>
      <point x="480" y="262" type="curve"/>
      <point x="465" y="138"/>
      <point x="405" y="79"/>
      <point x="292" y="79" type="curve" smooth="yes"/>
      <point x="236" y="79"/>
      <point x="190" y="91"/>
      <point x="150" y="115" type="curve"/>
      <point x="137" y="122"/>
      <point x="132" y="123"/>
      <point x="125" y="111" type="curve" smooth="yes"/>
      <point x="97" y="63" type="line" smooth="yes"/>
      <point x="90" y="51"/>
      <point x="90" y="43"/>
      <point x="101" y="35" type="curve"/>
      <point x="146" y="5"/>
      <point x="214" y="-15"/>
      <point x="299" y="-15" type="curve" smooth="yes"/>
    </contour>
    <contour>
      <point x="220" y="285"/>
      <point x="165" y="333"/>
      <point x="165" y="433" type="curve" smooth="yes"/>
      <point x="165" y="551"/>
      <point x="220" y="600"/>
      <point x="323" y="600" type="curve" smooth="yes"/>
      <point x="413" y="600"/>
      <point x="468" y="545"/>
      <point x="468" y="429" type="curve" smooth="yes"/>
      <point x="468" y="332"/>
      <point x="393" y="285"/>
      <point x="321" y="285" type="curve" smooth="yes"/>
    </contour>
  </outline>
</glyph>
<glyph name="colon" format="1">
  <advance width="197"/>
  <unicode hex="003A"/>
  <note>
	colon
  </note>
  <outline>
    <contour>
      <point x="109" y="368" type="line" smooth="yes"/>
      <point x="138" y="368"/>
      <point x="158" y="392"/>
      <point x="158" y="420" type="curve" smooth="yes"/>
      <point x="158" y="441" type="line" smooth="yes"/>
      <point x="158" y="470"/>
      <point x="139" y="493"/>
      <point x="109" y="493" type="curve" smooth="yes"/>
      <point x="87" y="493" type="line" smooth="yes"/>
      <point x="58" y="493"/>
      <point x="39" y="470"/>
      <point x="39" y="441" type="curve" smooth="yes"/>
      <point x="39" y="420" type="line" smooth="yes"/>
      <point x="39" y="392"/>
      <point x="58" y="368"/>
      <point x="87" y="368" type="curve" smooth="yes"/>
    </contour>
    <contour>
      <point x="109" y="0" type="line" smooth="yes"/>
      <point x="138" y="0"/>
      <point x="158" y="23"/>
      <point x="158" y="51" type="curve" smooth="yes"/>
      <point x="158" y="73" type="line" smooth="yes"/>
      <point x="158" y="102"/>
      <point x="139" y="124"/>
      <point x="109" y="124" type="curve" smooth="yes"/>
      <point x="87" y="124" type="line" smooth="yes"/>
      <point x="58" y="124"/>
      <point x="39" y="102"/>
      <point x="39" y="73" type="curve" smooth="yes"/>
      <point x="39" y="51" type="line" smooth="yes"/>
      <point x="39" y="23"/>
      <point x="58" y="0"/>
      <point x="87" y="0" type="curve" smooth="yes"/>
    </contour>
  </outline>
</glyph>
<glyph name="semicolon" format="1">
  <advance width="249"/>
  <unicode hex="003B"/>
  <note>
	semicolon
  </note>
  <outline>
    <contour>
      <point x="101" y="-119" type="line" smooth="yes"/>
      <point x="118" y="-119"/>
      <point x="125" y="-114"/>
      <point x="130" y="-102" type="curve" smooth="yes"/>
      <point x="202" y="67" type="line" smooth="yes"/>
      <point x="212" y="90"/>
      <point x="207" y="100"/>
      <point x="182" y="100" type="curve" smooth="yes"/>
      <point x="130" y="100" type="line" smooth="yes"/>
      <point x="108" y="100"/>
      <point x="100" y="95"/>
      <point x="94" y="75" type="curve" smooth="yes"/>
      <point x="41" y="-95" type="line" smooth="yes"/>
      <point x="37" y="-109"/>
      <point x="39" y="-119"/>
      <point x="57" y="-119" type="curve" smooth="yes"/>
    </contour>
    <contour>
      <point x="160" y="368" type="line" smooth="yes"/>
      <point x="189" y="368"/>
      <point x="209" y="392"/>
      <point x="209" y="420" type="curve" smooth="yes"/>
      <point x="209" y="441" type="line" smooth="yes"/>
      <point x="209" y="470"/>
      <point x="190" y="493"/>
      <point x="160" y="493" type="curve" smooth="yes"/>
      <point x="138" y="493" type="line" smooth="yes"/>
      <point x="109" y="493"/>
      <point x="90" y="470"/>
      <point x="90" y="441" type="curve" smooth="yes"/>
      <point x="90" y="420" type="line" smooth="yes"/>
      <point x="90" y="392"/>
      <point x="109" y="368"/>
      <point x="138" y="368" type="curve" smooth="yes"/>
    </contour>
  </outline>
</glyph>
<glyph name="greater" format="1">
  <advance width="558"/>
  <unicode hex="003E"/>
  <note>
	greater
  </note>
  <outline>
    <contour>
      <point x="502" y="225" type="line"/>
      <point x="514" y="231"/>
      <point x="519" y="237"/>
      <point x="519" y="251" type="curve" smooth="yes"/>
      <point x="519" y="295" type="line" smooth="yes"/>
      <point x="519" y="309"/>
      <point x="514" y="315"/>
      <point x="502" y="321" type="curve"/>
      <point x="59" y="522" type="line" smooth="yes"/>
      <point x="47" y="527"/>
      <point x="39" y="522"/>
      <point x="39" y="510" type="curve" smooth="yes"/>
      <point x="39" y="437" type="line" smooth="yes"/>
      <point x="39" y="421"/>
      <point x="44" y="417"/>
      <point x="56" y="412" type="curve" smooth="yes"/>
      <point x="367" y="274" type="line"/>
      <point x="56" y="136" type="line" smooth="yes"/>
      <point x="44" y="131"/>
      <point x="39" y="127"/>
      <point x="39" y="111" type="curve" smooth="yes"/>
      <point x="39" y="36" type="line" smooth="yes"/>
      <point x="39" y="24"/>
      <point x="47" y="19"/>
      <point x="59" y="24" type="curve" smooth="yes"/>
    </contour>
  </outline>
</glyph>
<glyph name="at" format="1">
  <advance width="932"/>
  <unicode hex="0040"/>
  <note>
	at
  </note>
  <outline>
    <contour>
      <point x="532" y="-89"/>
      <point x="607" y="-69"/>
      <point x="656" y="-37" type="curve" smooth="yes"/>
      <point x="664" y="-32"/>
      <point x="664" y="-28"/>
      <point x="661" y="-21" type="curve" smooth="yes"/>
      <point x="636" y="39" type="line"/>
      <point x="633" y="47"/>
      <point x="629" y="47"/>
      <point x="622" y="42" type="curve" smooth="yes"/>
      <point x="583" y="14"/>
      <point x="518" y="-3"/>
      <point x="453" y="-3" type="curve" smooth="yes"/>
      <point x="277" y="-3"/>
      <point x="141" y="97"/>
      <point x="141" y="300" type="curve" smooth="yes"/>
      <point x="141" y="532"/>
      <point x="284" y="630"/>
      <point x="488" y="630" type="curve" smooth="yes"/>
      <point x="661" y="630"/>
      <point x="791" y="535"/>
      <point x="791" y="350" type="curve" smooth="yes"/>
      <point x="791" y="242"/>
      <point x="761" y="179"/>
      <point x="709" y="179" type="curve" smooth="yes"/>
      <point x="678" y="179"/>
      <point x="666" y="195"/>
      <point x="666" y="233" type="curve" smooth="yes"/>
      <point x="666" y="473" type="line"/>
      <point x="625" y="510"/>
      <point x="555" y="536"/>
      <point x="486" y="536" type="curve" smooth="yes"/>
      <point x="330" y="536"/>
      <point x="232" y="449"/>
      <point x="232" y="296" type="curve" smooth="yes"/>
      <point x="232" y="171"/>
      <point x="314" y="102"/>
      <point x="435" y="101" type="curve" smooth="yes"/>
      <point x="507" y="101"/>
      <point x="567" y="128"/>
      <point x="604" y="177" type="curve"/>
      <point x="616" y="133"/>
      <point x="651" y="101"/>
      <point x="707" y="101" type="curve" smooth="yes"/>
      <point x="815" y="101"/>
      <point x="893" y="185"/>
      <point x="893" y="349" type="curve" smooth="yes"/>
      <point x="893" y="573"/>
      <point x="749" y="714"/>
      <point x="489" y="714" type="curve" smooth="yes"/>
      <point x="218" y="714"/>
      <point x="39" y="579"/>
      <point x="39" y="300" type="curve" smooth="yes"/>
      <point x="39" y="56"/>
      <point x="207" y="-89"/>
      <point x="454" y="-89" type="curve" smooth="yes"/>
    </contour>
    <contour>
      <point x="368" y="188"/>
      <point x="331" y="224"/>
      <point x="331" y="301" type="curve" smooth="yes"/>
      <point x="331" y="393"/>
      <point x="389" y="445"/>
      <point x="479" y="445" type="curve" smooth="yes"/>
      <point x="516" y="445"/>
      <point x="549" y="436"/>
      <point x="570" y="424" type="curve"/>
      <point x="570" y="285" type="line" smooth="yes"/>
      <point x="570" y="223"/>
      <point x="510" y="188"/>
      <point x="450" y="188" type="curve" smooth="yes"/>
    </contour>
  </outline>
</glyph>
<glyph name="B" format="1">
  <advance width="655"/>
  <unicode hex="0042"/>
  <note>
	B
  </note>
  <outline>
    <contour>
      <point x="388" y="0" type="line" smooth="yes"/>
      <point x="543" y="0"/>
      <point x="616" y="89"/>
      <point x="616" y="197" type="curve" smooth="yes"/>
      <point x="616" y="274"/>
      <point x="582" y="329"/>
      <point x="505" y="353" type="curve"/>
      <point x="563" y="377"/>
      <point x="596" y="432"/>
      <point x="596" y="495" type="curve" smooth="yes"/>
      <point x="596" y="605"/>
      <point x="528" y="680"/>
      <point x="385" y="680" type="curve" smooth="yes"/>
      <point x="96" y="680" type="line" smooth="yes"/>
      <point x="69" y="680"/>
      <point x="59" y="667"/>
      <point x="59" y="643" type="curve" smooth="yes"/>
      <point x="59" y="36" type="line" smooth="yes"/>
      <point x="59" y="12"/>
      <point x="69" y="0"/>
      <point x="96" y="0" type="curve" smooth="yes"/>
    </contour>
    <contour>
      <point x="187" y="304" type="line"/>
      <point x="370" y="304" type="line" smooth="yes"/>
      <point x="443" y="304"/>
      <point x="489" y="270"/>
      <point x="489" y="199" type="curve" smooth="yes"/>
      <point x="489" y="143"/>
      <point x="459" y="97"/>
      <point x="382" y="97" type="curve" smooth="yes"/>
      <point x="187" y="97" type="line"/>
    </contour>
    <contour>
      <point x="187" y="583" type="line"/>
      <point x="366" y="583" type="line" smooth="yes"/>
      <point x="438" y="583"/>
      <point x="469" y="557"/>
      <point x="469" y="491" type="curve" smooth="yes"/>
      <point x="469" y="432"/>
      <point x="433" y="396"/>
      <point x="367" y="396" type="curve" smooth="yes"/>
      <point x="187" y="396" type="line"/>
    </contour>
  </outline>
</glyph>
<glyph name="C" format="1">
  <advance width="677"/>
  <unicode hex="0043"/>
  <note>
	C
  </note>
  <outline>
    <contour>
      <point x="496" y="-15"/>
      <point x="574" y="1"/>
      <point x="628" y="39" type="curve" smooth="yes"/>
      <point x="640" y="47"/>
      <point x="642" y="51"/>
      <point x="636" y="62" type="curve"/>
      <point x="605" y="114" type="line" smooth="yes"/>
      <point x="598" y="126"/>
      <point x="592" y="125"/>
      <point x="580" y="118" type="curve" smooth="yes"/>
      <point x="537" y="93"/>
      <point x="485" y="79"/>
      <point x="409" y="79" type="curve" smooth="yes"/>
      <point x="267" y="79"/>
      <point x="165" y="156"/>
      <point x="165" y="340" type="curve" smooth="yes"/>
      <point x="165" y="519"/>
      <point x="260" y="600"/>
      <point x="406" y="600" type="curve" smooth="yes"/>
      <point x="478" y="600"/>
      <point x="532" y="583"/>
      <point x="567" y="562" type="curve"/>
      <point x="580" y="555"/>
      <point x="585" y="554"/>
      <point x="592" y="566" type="curve" smooth="yes"/>
      <point x="620" y="614" type="line" smooth="yes"/>
      <point x="627" y="626"/>
      <point x="627" y="634"/>
      <point x="616" y="641" type="curve" smooth="yes"/>
      <point x="563" y="676"/>
      <point x="482" y="695"/>
      <point x="392" y="695" type="curve" smooth="yes"/>
      <point x="166" y="695"/>
      <point x="39" y="568"/>
      <point x="39" y="340" type="curve" smooth="yes"/>
      <point x="39" y="111"/>
      <point x="170" y="-15"/>
      <point x="395" y="-15" type="curve" smooth="yes"/>
    </contour>
  </outline>
</glyph>
<glyph name="E" format="1">
  <advance width="576"/>
  <unicode hex="0045"/>
  <note>
	E
  </note>
  <outline>
    <contour>
      <point x="511" y="0" type="line" smooth="yes"/>
      <point x="538" y="0"/>
      <point x="547" y="10"/>
      <point x="547" y="34" type="curve" smooth="yes"/>
      <point x="547" y="61" type="line" smooth="yes"/>
      <point x="547" y="86"/>
      <point x="538" y="97"/>
      <point x="511" y="97" type="curve" smooth="yes"/>
      <point x="187" y="97" type="line"/>
      <point x="187" y="292" type="line"/>
      <point x="423" y="292" type="line" smooth="yes"/>
      <point x="450" y="292"/>
      <point x="459" y="303"/>
      <point x="459" y="328" type="curve" smooth="yes"/>
      <point x="459" y="353" type="line" smooth="yes"/>
      <point x="459" y="378"/>
      <point x="450" y="388"/>
      <point x="423" y="388" type="curve" smooth="yes"/>
      <point x="187" y="388" type="line"/>
      <point x="187" y="582" type="line"/>
      <point x="512" y="582" type="line" smooth="yes"/>
      <point x="539" y="582"/>
      <point x="547" y="593"/>
      <point x="547" y="618" type="curve" smooth="yes"/>
      <point x="547" y="645" type="line" smooth="yes"/>
      <point x="547" y="670"/>
      <point x="539" y="680"/>
      <point x="512" y="680" type="curve" smooth="yes"/>
      <point x="96" y="680" type="line" smooth="yes"/>
      <point x="69" y="680"/>
      <point x="59" y="667"/>
      <point x="59" y="643" type="curve" smooth="yes"/>
      <point x="59" y="36" type="line" smooth="yes"/>
      <point x="59" y="12"/>
      <point x="69" y="0"/>
      <point x="96" y="0" type="curve" smooth="yes"/>
    </contour>
  </outline>
</glyph>
<glyph name="H" format="1">
  <advance width="702"/>
  <unicode hex="0048"/>
  <note>
	H
  </note>
  <outline>
    <contour>
      <point x="149" y="0" type="line" smooth="yes"/>
      <point x="177" y="0"/>
      <point x="187" y="12"/>
      <point x="187" y="36" type="curve" smooth="yes"/>
      <point x="187" y="294" type="line"/>
      <point x="515" y="294" type="line"/>
      <point x="515" y="36" type="line" smooth="yes"/>
      <point x="515" y="12"/>
      <point x="525" y="0"/>
      <point x="553" y="0" type="curve" smooth="yes"/>
      <point x="605" y="0" type="line" smooth="yes"/>
      <point x="633" y="0"/>
      <point x="643" y="12"/>
      <point x="643" y="36" type="curve" smooth="yes"/>
      <point x="643" y="643" type="line" smooth="yes"/>
      <point x="643" y="667"/>
      <point x="633" y="680"/>
      <point x="605" y="680" type="curve" smooth="yes"/>
      <point x="553" y="680" type="line" smooth="yes"/>
      <point x="525" y="680"/>
      <point x="515" y="667"/>
      <point x="515" y="643" type="curve" smooth="yes"/>
      <point x="515" y="391" type="line"/>
      <point x="187" y="391" type="line"/>
      <point x="187" y="643" type="line" smooth="yes"/>
      <point x="187" y="667"/>
      <point x="177" y="680"/>
      <point x="149" y="680" type="curve" smooth="yes"/>
      <point x="96" y="680" type="line" smooth="yes"/>
      <point x="69" y="680"/>
      <point x="59" y="667"/>
      <point x="59" y="643" type="curve" smooth="yes"/>
      <point x="59" y="36" type="line" smooth="yes"/>
      <point x="59" y="12"/>
      <point x="69" y="0"/>
      <point x="96" y="0" type="curve" smooth="yes"/>
    </contour>
  </outline>
</glyph>
<glyph name="J" format="1">
  <advance width="487"/>
  <unicode hex="004A"/>
  <note>
	J
  </note>
  <outline>
    <contour>
      <point x="366" y="-15"/>
      <point x="433" y="70"/>
      <point x="433" y="190" type="curve" smooth="yes"/>
      <point x="433" y="643" type="line" smooth="yes"/>
      <point x="433" y="667"/>
      <point x="423" y="680"/>
      <point x="395" y="680" type="curve" smooth="yes"/>
      <point x="343" y="680" type="line" smooth="yes"/>
      <point x="315" y="680"/>
      <point x="305" y="667"/>
      <point x="305" y="643" type="curve" smooth="yes"/>
      <point x="305" y="190" type="line" smooth="yes"/>
      <point x="305" y="117"/>
      <point x="275" y="79"/>
      <point x="204" y="79" type="curve" smooth="yes"/>
      <point x="152" y="79"/>
      <point x="107" y="94"/>
      <point x="78" y="114" type="curve" smooth="yes"/>
      <point x="67" y="122"/>
      <point x="60" y="122"/>
      <point x="53" y="110" type="curve" smooth="yes"/>
      <point x="24" y="61" type="line" smooth="yes"/>
      <point x="17" y="49"/>
      <point x="18" y="40"/>
      <point x="28" y="34" type="curve" smooth="yes"/>
      <point x="78" y="3"/>
      <point x="140" y="-15"/>
      <point x="217" y="-15" type="curve" smooth="yes"/>
    </contour>
  </outline>
</glyph>
<glyph name="M" format="1">
  <advance width="782"/>
  <unicode hex="004D"/>
  <note>
	M
  </note>
  <outline>
    <contour>
      <point x="140" y="0" type="line" smooth="yes"/>
      <point x="168" y="0"/>
      <point x="178" y="12"/>
      <point x="178" y="36" type="curve" smooth="yes"/>
      <point x="178" y="467" type="line"/>
      <point x="349" y="86" type="line" smooth="yes"/>
      <point x="357" y="67"/>
      <point x="366" y="56"/>
      <point x="391" y="56" type="curve" smooth="yes"/>
      <point x="417" y="56"/>
      <point x="424" y="67"/>
      <point x="433" y="86" type="curve" smooth="yes"/>
      <point x="604" y="467" type="line"/>
      <point x="604" y="36" type="line" smooth="yes"/>
      <point x="604" y="12"/>
      <point x="614" y="0"/>
      <point x="642" y="0" type="curve" smooth="yes"/>
      <point x="686" y="0" type="line" smooth="yes"/>
      <point x="713" y="0"/>
      <point x="723" y="12"/>
      <point x="723" y="36" type="curve" smooth="yes"/>
      <point x="723" y="643" type="line" smooth="yes"/>
      <point x="723" y="668"/>
      <point x="713" y="680"/>
      <point x="685" y="680" type="curve" smooth="yes"/>
      <point x="631" y="680" type="line" smooth="yes"/>
      <point x="612" y="680"/>
      <point x="600" y="677"/>
      <point x="593" y="660" type="curve" smooth="yes"/>
      <point x="391" y="195" type="line"/>
      <point x="189" y="660" type="line" smooth="yes"/>
      <point x="182" y="677"/>
      <point x="170" y="680"/>
      <point x="151" y="680" type="curve" smooth="yes"/>
      <point x="97" y="680" type="line" smooth="yes"/>
      <point x="69" y="680"/>
      <point x="59" y="668"/>
      <point x="59" y="643" type="curve" smooth="yes"/>
      <point x="59" y="36" type="line" smooth="yes"/>
      <point x="59" y="12"/>
      <point x="69" y="0"/>
      <point x="96" y="0" type="curve" smooth="yes"/>
    </contour>
  </outline>
</glyph>
<glyph name="P" format="1">
  <advance width="613"/>
  <unicode hex="0050"/>
  <note>
	P
  </note>
  <outline>
    <contour>
      <point x="149" y="0" type="line" smooth="yes"/>
      <point x="177" y="0"/>
      <point x="187" y="12"/>
      <point x="187" y="36" type="curve" smooth="yes"/>
      <point x="187" y="230" type="line"/>
      <point x="352" y="230" type="line" smooth="yes"/>
      <point x="519" y="230"/>
      <point x="594" y="313"/>
      <point x="594" y="454" type="curve" smooth="yes"/>
      <point x="594" y="596"/>
      <point x="519" y="680"/>
      <point x="352" y="680" type="curve" smooth="yes"/>
      <point x="96" y="680" type="line" smooth="yes"/>
      <point x="69" y="680"/>
      <point x="59" y="667"/>
      <point x="59" y="643" type="curve" smooth="yes"/>
      <point x="59" y="36" type="line" smooth="yes"/>
      <point x="59" y="12"/>
      <point x="69" y="0"/>
      <point x="96" y="0" type="curve" smooth="yes"/>
    </contour>
    <contour>
      <point x="187" y="582" type="line"/>
      <point x="346" y="582" type="line" smooth="yes"/>
      <point x="427" y="582"/>
      <point x="467" y="541"/>
      <point x="467" y="454" type="curve" smooth="yes"/>
      <point x="467" y="368"/>
      <point x="427" y="327"/>
      <point x="346" y="327" type="curve" smooth="yes"/>
      <point x="187" y="327" type="line"/>
    </contour>
  </outline>
</glyph>
<glyph name="R" format="1">
  <advance width="633"/>
  <unicode hex="0052"/>
  <note>
	R
  </note>
  <outline>
    <contour>
      <point x="149" y="0" type="line" smooth="yes"/>
      <point x="177" y="0"/>
      <point x="187" y="12"/>
      <point x="187" y="36" type="curve" smooth="yes"/>
      <point x="187" y="255" type="line"/>
      <point x="348" y="255" type="line"/>
      <point x="449" y="18" type="line" smooth="yes"/>
      <point x="456" y="3"/>
      <point x="462" y="0"/>
      <point x="479" y="0" type="curve" smooth="yes"/>
      <point x="561" y="0" type="line" smooth="yes"/>
      <point x="577" y="0"/>
      <point x="583" y="11"/>
      <point x="576" y="26" type="curve" smooth="yes"/>
      <point x="465" y="272" type="line"/>
      <point x="549" y="305"/>
      <point x="594" y="373"/>
      <point x="594" y="466" type="curve" smooth="yes"/>
      <point x="594" y="609"/>
      <point x="510" y="680"/>
      <point x="357" y="680" type="curve" smooth="yes"/>
      <point x="96" y="680" type="line" smooth="yes"/>
      <point x="69" y="680"/>
      <point x="59" y="667"/>
      <point x="59" y="643" type="curve" smooth="yes"/>
      <point x="59" y="36" type="line" smooth="yes"/>
      <point x="59" y="12"/>
      <point x="69" y="0"/>
      <point x="96" y="0" type="curve" smooth="yes"/>
    </contour>
    <contour>
      <point x="187" y="582" type="line"/>
      <point x="346" y="582" type="line" smooth="yes"/>
      <point x="427" y="582"/>
      <point x="467" y="547"/>
      <point x="467" y="466" type="curve" smooth="yes"/>
      <point x="467" y="383"/>
      <point x="423" y="351"/>
      <point x="331" y="351" type="curve" smooth="yes"/>
      <point x="187" y="351" type="line"/>
    </contour>
  </outline>
</glyph>
<glyph name="V" format="1">
  <advance width="724"/>
  <unicode hex="0056"/>
  <note>
	V
  </note>
  <outline>
    <contour>
      <point x="389" y="0" type="line" smooth="yes"/>
      <point x="408" y="0"/>
      <point x="415" y="6"/>
      <point x="423" y="25" type="curve" smooth="yes"/>
      <point x="682" y="652" type="line" smooth="yes"/>
      <point x="688" y="667"/>
      <point x="684" y="680"/>
      <point x="668" y="680" type="curve" smooth="yes"/>
      <point x="582" y="680" type="line" smooth="yes"/>
      <point x="563" y="680"/>
      <point x="556" y="672"/>
      <point x="551" y="659" type="curve" smooth="yes"/>
      <point x="362" y="179" type="line"/>
      <point x="173" y="659" type="line" smooth="yes"/>
      <point x="168" y="672"/>
      <point x="161" y="680"/>
      <point x="142" y="680" type="curve" smooth="yes"/>
      <point x="56" y="680" type="line" smooth="yes"/>
      <point x="40" y="680"/>
      <point x="36" y="667"/>
      <point x="42" y="652" type="curve" smooth="yes"/>
      <point x="302" y="25" type="line" smooth="yes"/>
      <point x="310" y="6"/>
      <point x="316" y="0"/>
      <point x="335" y="0" type="curve" smooth="yes"/>
    </contour>
  </outline>
</glyph>
<glyph name="W" format="1">
  <advance width="881"/>
  <unicode hex="0057"/>
  <note>
	W
  </note>
  <outline>
    <contour>
      <point x="287" y="0" type="line" smooth="yes"/>
      <point x="305" y="0"/>
      <point x="314" y="6"/>
      <point x="320" y="25" type="curve" smooth="yes"/>
      <point x="440" y="425" type="line"/>
      <point x="561" y="25" type="line" smooth="yes"/>
      <point x="567" y="6"/>
      <point x="575" y="0"/>
      <point x="594" y="0" type="curve" smooth="yes"/>
      <point x="648" y="0" type="line" smooth="yes"/>
      <point x="667" y="0"/>
      <point x="676" y="6"/>
      <point x="681" y="25" type="curve" smooth="yes"/>
      <point x="840" y="656" type="line" smooth="yes"/>
      <point x="844" y="671"/>
      <point x="839" y="680"/>
      <point x="822" y="680" type="curve" smooth="yes"/>
      <point x="740" y="680" type="line" smooth="yes"/>
      <point x="720" y="680"/>
      <point x="714" y="673"/>
      <point x="711" y="659" type="curve" smooth="yes"/>
      <point x="612" y="219" type="line"/>
      <point x="491" y="607" type="line" smooth="yes"/>
      <point x="486" y="623"/>
      <point x="480" y="628"/>
      <point x="463" y="628" type="curve" smooth="yes"/>
      <point x="417" y="628" type="line" smooth="yes"/>
      <point x="400" y="628"/>
      <point x="394" y="623"/>
      <point x="389" y="607" type="curve" smooth="yes"/>
      <point x="269" y="219" type="line"/>
      <point x="169" y="659" type="line" smooth="yes"/>
      <point x="166" y="673"/>
      <point x="161" y="680"/>
      <point x="140" y="680" type="curve" smooth="yes"/>
      <point x="59" y="680" type="line" smooth="yes"/>
      <point x="42" y="680"/>
      <point x="37" y="671"/>
      <point x="41" y="656" type="curve" smooth="yes"/>
      <point x="199" y="25" type="line"/>
      <point x="203" y="6"/>
      <point x="213" y="0"/>
      <point x="232" y="0" type="curve" smooth="yes"/>
    </contour>
  </outline>
</glyph>
<glyph name="Y" format="1">
  <advance width="708"/>
  <unicode hex="0059"/>
  <note>
	Y
  </note>
  <outline>
    <contour>
      <point x="380" y="0" type="line" smooth="yes"/>
      <point x="408" y="0"/>
      <point x="418" y="12"/>
      <point x="418" y="36" type="curve" smooth="yes"/>
      <point x="418" y="228" type="line"/>
      <point x="665" y="652" type="line" smooth="yes"/>
      <point x="673" y="666"/>
      <point x="669" y="680"/>
      <point x="651" y="680" type="curve" smooth="yes"/>
      <point x="564" y="680" type="line" smooth="yes"/>
      <point x="546" y="680"/>
      <point x="542" y="674"/>
      <point x="536" y="664" type="curve" smooth="yes"/>
      <point x="354" y="346" type="line"/>
      <point x="171" y="664" type="line" smooth="yes"/>
      <point x="165" y="674"/>
      <point x="162" y="680"/>
      <point x="143" y="680" type="curve" smooth="yes"/>
      <point x="57" y="680" type="line" smooth="yes"/>
      <point x="39" y="680"/>
      <point x="35" y="666"/>
      <point x="43" y="652" type="curve" smooth="yes"/>
      <point x="289" y="229" type="line"/>
      <point x="289" y="36" type="line" smooth="yes"/>
      <point x="289" y="12"/>
      <point x="300" y="0"/>
      <point x="327" y="0" type="curve" smooth="yes"/>
    </contour>
  </outline>
</glyph>
<glyph name="Z" format="1">
  <advance width="633"/>
  <unicode hex="005A"/>
  <note>
	Z
  </note>
  <outline>
    <contour>
      <point x="557" y="0" type="line" smooth="yes"/>
      <point x="584" y="0"/>
      <point x="594" y="10"/>
      <point x="594" y="34" type="curve" smooth="yes"/>
      <point x="594" y="61" type="line" smooth="yes"/>
      <point x="594" y="86"/>
      <point x="584" y="97"/>
      <point x="557" y="97" type="curve" smooth="yes"/>
      <point x="209" y="97" type="line"/>
      <point x="569" y="585" type="line" smooth="yes"/>
      <point x="589" y="612"/>
      <point x="592" y="621"/>
      <point x="592" y="645" type="curve" smooth="yes"/>
      <point x="592" y="669"/>
      <point x="585" y="680"/>
      <point x="559" y="680" type="curve" smooth="yes"/>
      <point x="89" y="680" type="line" smooth="yes"/>
      <point x="62" y="680"/>
      <point x="51" y="670"/>
      <point x="51" y="645" type="curve" smooth="yes"/>
      <point x="51" y="618" type="line" smooth="yes"/>
      <point x="51" y="593"/>
      <point x="62" y="582"/>
      <point x="89" y="582" type="curve" smooth="yes"/>
      <point x="423" y="582" type="line"/>
      <point x="62" y="94" type="line" smooth="yes"/>
      <point x="43" y="69"/>
      <point x="39" y="56"/>
      <point x="39" y="34" type="curve" smooth="yes"/>
      <point x="39" y="10"/>
      <point x="45" y="0"/>
      <point x="71" y="0" type="curve" smooth="yes"/>
    </contour>
  </outline>
</glyph>
<glyph name="bracketleft" format="1">
  <advance width="308"/>
  <unicode hex="005B"/>
  <note>
	bracketleft
  </note>
  <outline>
    <contour>
      <point x="244" y="-70" type="line" smooth="yes"/>
      <point x="271" y="-70"/>
      <point x="279" y="-60"/>
      <point x="279" y="-36" type="curve" smooth="yes"/>
      <point x="279" y="-9" type="line" smooth="yes"/>
      <point x="279" y="16"/>
      <point x="271" y="27"/>
      <point x="244" y="27" type="curve" smooth="yes"/>
      <point x="167" y="27" type="line"/>
      <point x="167" y="652" type="line"/>
      <point x="244" y="652" type="line" smooth="yes"/>
      <point x="271" y="652"/>
      <point x="279" y="663"/>
      <point x="279" y="688" type="curve" smooth="yes"/>
      <point x="279" y="715" type="line" smooth="yes"/>
      <point x="279" y="740"/>
      <point x="271" y="750"/>
      <point x="244" y="750" type="curve" smooth="yes"/>
      <point x="75" y="750" type="line" smooth="yes"/>
      <point x="49" y="750"/>
      <point x="39" y="737"/>
      <point x="39" y="713" type="curve" smooth="yes"/>
      <point x="39" y="-34" type="line" smooth="yes"/>
      <point x="39" y="-58"/>
      <point x="49" y="-70"/>
      <point x="75" y="-70" type="curve" smooth="yes"/>
    </contour>
  </outline>
</glyph>
<glyph name="bracketright" format="1">
  <advance width="308"/>
  <unicode hex="005D"/>
  <note>
	bracketright
  </note>
  <outline>
    <contour>
      <point x="233" y="-70" type="line" smooth="yes"/>
      <point x="259" y="-70"/>
      <point x="269" y="-58"/>
      <point x="269" y="-34" type="curve" smooth="yes"/>
      <point x="269" y="713" type="line" smooth="yes"/>
      <point x="269" y="737"/>
      <point x="259" y="750"/>
      <point x="233" y="750" type="curve" smooth="yes"/>
      <point x="64" y="750" type="line" smooth="yes"/>
      <point x="37" y="750"/>
      <point x="29" y="740"/>
      <point x="29" y="715" type="curve" smooth="yes"/>
      <point x="29" y="688" type="line" smooth="yes"/>
      <point x="29" y="663"/>
      <point x="37" y="652"/>
      <point x="64" y="652" type="curve" smooth="yes"/>
      <point x="141" y="652" type="line"/>
      <point x="141" y="27" type="line"/>
      <point x="64" y="27" type="line" smooth="yes"/>
      <point x="37" y="27"/>
      <point x="29" y="16"/>
      <point x="29" y="-9" type="curve" smooth="yes"/>
      <point x="29" y="-36" type="line" smooth="yes"/>
      <point x="29" y="-60"/>
      <point x="37" y="-70"/>
      <point x="64" y="-70" type="curve" smooth="yes"/>
    </contour>
  </outline>
</glyph>
<glyph name="underscore" format="1">
  <advance width="540"/>
  <unicode hex="005F"/>
  <note>
	underscore
  </note>
  <outline>
    <contour>
      <point x="471" y="-113" type="line" smooth="yes"/>
      <point x="493" y="-113"/>
      <point x="501" y="-103"/>
      <point x="501" y="-83" type="curve" smooth="yes"/>
      <point x="501" y="-45" type="line" smooth="yes"/>
      <point x="501" y="-25"/>
      <point x="493" y="-15"/>
      <point x="471" y="-15" type="curve" smooth="yes"/>
      <point x="68" y="-15" type="line" smooth="yes"/>
      <point x="46" y="-15"/>
      <point x="39" y="-25"/>
      <point x="39" y="-45" type="curve" smooth="yes"/>
      <point x="39" y="-83" type="line" smooth="yes"/>
      <point x="39" y="-103"/>
      <point x="46" y="-113"/>
      <point x="68" y="-113" type="curve" smooth="yes"/>
    </contour>
  </outline>
</glyph>
<glyph name="b" format="1">
  <advance width="617"/>
  <unicode hex="0062"/>
  <note>
	b
  </note>
  <outline>
    <contour>
      <point x="486" y="-15"/>
      <point x="578" y="89"/>
      <point x="578" y="259" type="curve" smooth="yes"/>
      <point x="578" y="408"/>
      <point x="494" y="495"/>
      <point x="343" y="495" type="curve" smooth="yes"/>
      <point x="281" y="495"/>
      <point x="221" y="479"/>
      <point x="185" y="448" type="curve"/>
      <point x="185" y="643" type="line" smooth="yes"/>
      <point x="185" y="667"/>
      <point x="175" y="680"/>
      <point x="147" y="680" type="curve" smooth="yes"/>
      <point x="96" y="680" type="line" smooth="yes"/>
      <point x="69" y="680"/>
      <point x="59" y="667"/>
      <point x="59" y="643" type="curve" smooth="yes"/>
      <point x="59" y="50" type="line"/>
      <point x="108" y="14"/>
      <point x="201" y="-15"/>
      <point x="295" y="-15" type="curve" smooth="yes"/>
    </contour>
    <contour>
      <point x="250" y="76"/>
      <point x="208" y="86"/>
      <point x="185" y="100" type="curve"/>
      <point x="185" y="303" type="line" smooth="yes"/>
      <point x="185" y="373"/>
      <point x="253" y="403"/>
      <point x="314" y="403" type="curve" smooth="yes"/>
      <point x="414" y="403"/>
      <point x="451" y="355"/>
      <point x="451" y="256" type="curve" smooth="yes"/>
      <point x="451" y="136"/>
      <point x="400" y="76"/>
      <point x="289" y="76" type="curve" smooth="yes"/>
    </contour>
  </outline>
</glyph>
<glyph name="c" format="1">
  <advance width="565"/>
  <unicode hex="0063"/>
  <note>
	c
  </note>
  <outline>
    <contour>
      <point x="406" y="-15"/>
      <point x="464" y="3"/>
      <point x="515" y="36" type="curve" smooth="yes"/>
      <point x="527" y="44"/>
      <point x="528" y="50"/>
      <point x="521" y="61" type="curve" smooth="yes"/>
      <point x="492" y="110" type="line" smooth="yes"/>
      <point x="484" y="123"/>
      <point x="480" y="123"/>
      <point x="467" y="115" type="curve" smooth="yes"/>
      <point x="433" y="93"/>
      <point x="394" y="76"/>
      <point x="334" y="76" type="curve" smooth="yes"/>
      <point x="225" y="76"/>
      <point x="165" y="128"/>
      <point x="165" y="238" type="curve" smooth="yes"/>
      <point x="165" y="340"/>
      <point x="225" y="404"/>
      <point x="326" y="404" type="curve" smooth="yes"/>
      <point x="385" y="404"/>
      <point x="422" y="390"/>
      <point x="460" y="366" type="curve" smooth="yes"/>
      <point x="473" y="358"/>
      <point x="478" y="358"/>
      <point x="485" y="370" type="curve" smooth="yes"/>
      <point x="512" y="417" type="line" smooth="yes"/>
      <point x="519" y="429"/>
      <point x="519" y="436"/>
      <point x="508" y="444" type="curve" smooth="yes"/>
      <point x="458" y="479"/>
      <point x="404" y="495"/>
      <point x="319" y="495" type="curve" smooth="yes"/>
      <point x="146" y="495"/>
      <point x="39" y="390"/>
      <point x="39" y="238" type="curve" smooth="yes"/>
      <point x="39" y="73"/>
      <point x="145" y="-15"/>
      <point x="321" y="-15" type="curve" smooth="yes"/>
    </contour>
  </outline>
</glyph>
<glyph name="d" format="1">
  <advance width="617"/>
  <unicode hex="0064"/>
  <note>
	d
  </note>
  <outline>
    <contour>
      <point x="419" y="-15"/>
      <point x="509" y="14"/>
      <point x="558" y="50" type="curve"/>
      <point x="558" y="643" type="line" smooth="yes"/>
      <point x="558" y="667"/>
      <point x="548" y="680"/>
      <point x="520" y="680" type="curve" smooth="yes"/>
      <point x="470" y="680" type="line" smooth="yes"/>
      <point x="442" y="680"/>
      <point x="432" y="667"/>
      <point x="432" y="643" type="curve" smooth="yes"/>
      <point x="432" y="448" type="line"/>
      <point x="401" y="479"/>
      <point x="348" y="495"/>
      <point x="280" y="495" type="curve" smooth="yes"/>
      <point x="129" y="495"/>
      <point x="39" y="392"/>
      <point x="39" y="241" type="curve" smooth="yes"/>
      <point x="39" y="71"/>
      <point x="132" y="-15"/>
      <point x="323" y="-15" type="curve" smooth="yes"/>
    </contour>
    <contour>
      <point x="222" y="76"/>
      <point x="165" y="120"/>
      <point x="165" y="238" type="curve" smooth="yes"/>
      <point x="165" y="337"/>
      <point x="210" y="403"/>
      <point x="310" y="403" type="curve" smooth="yes"/>
      <point x="378" y="403"/>
      <point x="432" y="373"/>
      <point x="432" y="304" type="curve" smooth="yes"/>
      <point x="432" y="100" type="line"/>
      <point x="409" y="86"/>
      <point x="373" y="76"/>
      <point x="326" y="76" type="curve" smooth="yes"/>
    </contour>
  </outline>
</glyph>
<glyph name="f" format="1">
  <advance width="433"/>
  <unicode hex="0066"/>
  <note>
	f
  </note>
  <outline>
    <contour>
      <point x="191" y="0" type="line" smooth="yes"/>
      <point x="219" y="0"/>
      <point x="229" y="12"/>
      <point x="229" y="36" type="curve" smooth="yes"/>
      <point x="229" y="386" type="line"/>
      <point x="352" y="386" type="line" smooth="yes"/>
      <point x="379" y="386"/>
      <point x="388" y="397"/>
      <point x="388" y="422" type="curve" smooth="yes"/>
      <point x="388" y="445" type="line" smooth="yes"/>
      <point x="388" y="470"/>
      <point x="379" y="480"/>
      <point x="352" y="480" type="curve" smooth="yes"/>
      <point x="229" y="480" type="line"/>
      <point x="229" y="519" type="line" smooth="yes"/>
      <point x="229" y="576"/>
      <point x="248" y="606"/>
      <point x="307" y="606" type="curve" smooth="yes"/>
      <point x="338" y="606"/>
      <point x="359" y="597"/>
      <point x="382" y="584" type="curve" smooth="yes"/>
      <point x="393" y="578"/>
      <point x="398" y="579"/>
      <point x="404" y="589" type="curve" smooth="yes"/>
      <point x="429" y="631" type="line" smooth="yes"/>
      <point x="436" y="642"/>
      <point x="433" y="649"/>
      <point x="424" y="656" type="curve" smooth="yes"/>
      <point x="388" y="683"/>
      <point x="339" y="695"/>
      <point x="281" y="695" type="curve" smooth="yes"/>
      <point x="157" y="695"/>
      <point x="101" y="625"/>
      <point x="101" y="517" type="curve" smooth="yes"/>
      <point x="101" y="480" type="line"/>
      <point x="54" y="480" type="line" smooth="yes"/>
      <point x="27" y="480"/>
      <point x="19" y="470"/>
      <point x="19" y="445" type="curve" smooth="yes"/>
      <point x="19" y="422" type="line" smooth="yes"/>
      <point x="19" y="397"/>
      <point x="27" y="386"/>
      <point x="54" y="386" type="curve" smooth="yes"/>
      <point x="101" y="386" type="line"/>
      <point x="101" y="36" type="line" smooth="yes"/>
      <point x="101" y="12"/>
      <point x="111" y="0"/>
      <point x="138" y="0" type="curve" smooth="yes"/>
    </contour>
  </outline>
</glyph>
<glyph name="l" format="1">
  <advance width="246"/>
  <unicode hex="006C"/>
  <note>
	l
  </note>
  <outline>
    <contour>
      <point x="149" y="0" type="line" smooth="yes"/>
      <point x="177" y="0"/>
      <point x="187" y="12"/>
      <point x="187" y="36" type="curve" smooth="yes"/>
      <point x="187" y="643" type="line" smooth="yes"/>
      <point x="187" y="667"/>
      <point x="177" y="680"/>
      <point x="149" y="680" type="curve" smooth="yes"/>
      <point x="96" y="680" type="line" smooth="yes"/>
      <point x="69" y="680"/>
      <point x="59" y="667"/>
      <point x="59" y="643" type="curve" smooth="yes"/>
      <point x="59" y="36" type="line" smooth="yes"/>
      <point x="59" y="12"/>
      <point x="69" y="0"/>
      <point x="96" y="0" type="curve" smooth="yes"/>
    </contour>
  </outline>
</glyph>
<glyph name="o" format="1">
  <advance width="621"/>
  <unicode hex="006F"/>
  <note>
	o
  </note>
  <outline>
    <contour>
      <point x="486" y="-15"/>
      <point x="582" y="85"/>
      <point x="582" y="240" type="curve" smooth="yes"/>
      <point x="582" y="394"/>
      <point x="486" y="495"/>
      <point x="310" y="495" type="curve" smooth="yes"/>
      <point x="134" y="495"/>
      <point x="39" y="394"/>
      <point x="39" y="240" type="curve" smooth="yes"/>
      <point x="39" y="85"/>
      <point x="134" y="-15"/>
      <point x="310" y="-15" type="curve" smooth="yes"/>
    </contour>
    <contour>
      <point x="217" y="79"/>
      <point x="165" y="135"/>
      <point x="165" y="240" type="curve" smooth="yes"/>
      <point x="165" y="345"/>
      <point x="217" y="399"/>
      <point x="310" y="399" type="curve" smooth="yes"/>
      <point x="404" y="399"/>
      <point x="455" y="345"/>
      <point x="455" y="240" type="curve" smooth="yes"/>
      <point x="455" y="135"/>
      <point x="404" y="79"/>
      <point x="310" y="79" type="curve" smooth="yes"/>
    </contour>
  </outline>
</glyph>
<glyph name="q" format="1">
  <advance width="617"/>
  <unicode hex="0071"/>
  <note>
	q
  </note>
  <outline>
    <contour>
      <point x="520" y="-202" type="line" smooth="yes"/>
      <point x="548" y="-202"/>
      <point x="558" y="-190"/>
      <point x="558" y="-166" type="curve" smooth="yes"/>
      <point x="558" y="432" type="line"/>
      <point x="509" y="466"/>
      <point x="420" y="495"/>
      <point x="329" y="495" type="curve" smooth="yes"/>
      <point x="141" y="495"/>
      <point x="39" y="396"/>
      <point x="39" y="225" type="curve" smooth="yes"/>
      <point x="39" y="76"/>
      <point x="128" y="-15"/>
      <point x="276" y="-15" type="curve" smooth="yes"/>
      <point x="342" y="-15"/>
      <point x="395" y="3"/>
      <point x="432" y="43" type="curve"/>
      <point x="432" y="-166" type="line" smooth="yes"/>
      <point x="432" y="-190"/>
      <point x="442" y="-202"/>
      <point x="470" y="-202" type="curve" smooth="yes"/>
    </contour>
    <contour>
      <point x="210" y="76"/>
      <point x="165" y="130"/>
      <point x="165" y="229" type="curve" smooth="yes"/>
      <point x="165" y="348"/>
      <point x="228" y="403"/>
      <point x="332" y="403" type="curve" smooth="yes"/>
      <point x="373" y="403"/>
      <point x="409" y="396"/>
      <point x="432" y="384" type="curve"/>
      <point x="432" y="187" type="line" smooth="yes"/>
      <point x="432" y="116"/>
      <point x="373" y="76"/>
      <point x="306" y="76" type="curve" smooth="yes"/>
    </contour>
  </outline>
</glyph>
<glyph name="r" format="1">
  <advance width="416"/>
  <unicode hex="0072"/>
  <note>
	r
  </note>
  <outline>
    <contour>
      <point x="149" y="0" type="line" smooth="yes"/>
      <point x="177" y="0"/>
      <point x="187" y="12"/>
      <point x="187" y="36" type="curve" smooth="yes"/>
      <point x="187" y="298" type="line" smooth="yes"/>
      <point x="187" y="366"/>
      <point x="239" y="404"/>
      <point x="304" y="404" type="curve" smooth="yes"/>
      <point x="327" y="404"/>
      <point x="346" y="399"/>
      <point x="359" y="393" type="curve" smooth="yes"/>
      <point x="368" y="389"/>
      <point x="375" y="390"/>
      <point x="378" y="401" type="curve" smooth="yes"/>
      <point x="396" y="461" type="line"/>
      <point x="398" y="469"/>
      <point x="397" y="474"/>
      <point x="389" y="480" type="curve"/>
      <point x="374" y="490"/>
      <point x="352" y="495"/>
      <point x="322" y="495" type="curve" smooth="yes"/>
      <point x="252" y="495"/>
      <point x="201" y="465"/>
      <point x="167" y="424" type="curve"/>
      <point x="164" y="460" type="line" smooth="yes"/>
      <point x="163" y="474"/>
      <point x="157" y="480"/>
      <point x="142" y="480" type="curve" smooth="yes"/>
      <point x="85" y="480" type="line" smooth="yes"/>
      <point x="63" y="480"/>
      <point x="59" y="472"/>
      <point x="59" y="453" type="curve" smooth="yes"/>
      <point x="59" y="36" type="line" smooth="yes"/>
      <point x="59" y="12"/>
      <point x="69" y="0"/>
      <point x="97" y="0" type="curve" smooth="yes"/>
    </contour>
  </outline>
</glyph>
<glyph name="w" format="1">
  <advance width="778"/>
  <unicode hex="0077"/>
  <note>
	w
  </note>
  <outline>
    <contour>
      <point x="262" y="0" type="line" smooth="yes"/>
      <point x="277" y="0"/>
      <point x="283" y="5"/>
      <point x="289" y="21" type="curve" smooth="yes"/>
      <point x="389" y="290" type="line"/>
      <point x="489" y="21" type="line" smooth="yes"/>
      <point x="495" y="5"/>
      <point x="500" y="0"/>
      <point x="515" y="0" type="curve" smooth="yes"/>
      <point x="573" y="0" type="line" smooth="yes"/>
      <point x="589" y="0"/>
      <point x="595" y="4"/>
      <point x="600" y="21" type="curve" smooth="yes"/>
      <point x="737" y="459" type="line" smooth="yes"/>
      <point x="741" y="472"/>
      <point x="736" y="480"/>
      <point x="722" y="480" type="curve" smooth="yes"/>
      <point x="645" y="480" type="line" smooth="yes"/>
      <point x="627" y="480"/>
      <point x="624" y="474"/>
      <point x="621" y="462" type="curve"/>
      <point x="533" y="156" type="line"/>
      <point x="435" y="419" type="line" smooth="yes"/>
      <point x="430" y="432"/>
      <point x="426" y="438"/>
      <point x="411" y="438" type="curve" smooth="yes"/>
      <point x="368" y="438" type="line" smooth="yes"/>
      <point x="353" y="438"/>
      <point x="348" y="432"/>
      <point x="343" y="419" type="curve" smooth="yes"/>
      <point x="244" y="156" type="line"/>
      <point x="157" y="462" type="line" smooth="yes"/>
      <point x="154" y="474"/>
      <point x="150" y="480"/>
      <point x="133" y="480" type="curve" smooth="yes"/>
      <point x="56" y="480" type="line" smooth="yes"/>
      <point x="42" y="480"/>
      <point x="37" y="472"/>
      <point x="41" y="459" type="curve" smooth="yes"/>
      <point x="177" y="21" type="line" smooth="yes"/>
      <point x="182" y="4"/>
      <point x="189" y="0"/>
      <point x="205" y="0" type="curve" smooth="yes"/>
    </contour>
  </outline>
</glyph>
<glyph name="x" format="1">
  <advance width="602"/>
  <unicode hex="0078"/>
  <note>
	x
  </note>
  <outline>
    <contour>
      <point x="149" y="0" type="line" smooth="yes"/>
      <point x="163" y="0"/>
      <point x="166" y="2"/>
      <point x="174" y="11" type="curve" smooth="yes"/>
      <point x="300" y="158" type="line"/>
      <point x="428" y="11" type="line" smooth="yes"/>
      <point x="436" y="2"/>
      <point x="439" y="0"/>
      <point x="453" y="0" type="curve" smooth="yes"/>
      <point x="546" y="0" type="line" smooth="yes"/>
      <point x="562" y="0"/>
      <point x="568" y="15"/>
      <point x="557" y="28" type="curve" smooth="yes"/>
      <point x="372" y="244" type="line"/>
      <point x="549" y="452" type="line" smooth="yes"/>
      <point x="559" y="464"/>
      <point x="556" y="480"/>
      <point x="539" y="480" type="curve" smooth="yes"/>
      <point x="446" y="480" type="line" smooth="yes"/>
      <point x="431" y="480"/>
      <point x="427" y="476"/>
      <point x="420" y="468" type="curve" smooth="yes"/>
      <point x="300" y="330" type="line"/>
      <point x="182" y="468" type="line"/>
      <point x="176" y="476"/>
      <point x="171" y="480"/>
      <point x="156" y="480" type="curve" smooth="yes"/>
      <point x="63" y="480" type="line" smooth="yes"/>
      <point x="46" y="480"/>
      <point x="43" y="464"/>
      <point x="53" y="452" type="curve" smooth="yes"/>
      <point x="229" y="244" type="line"/>
      <point x="45" y="28" type="line" smooth="yes"/>
      <point x="34" y="15"/>
      <point x="40" y="0"/>
      <point x="56" y="0" type="curve" smooth="yes"/>
    </contour>
  </outline>
</glyph>
<glyph name="asciitilde" format="1">
  <advance width="599"/>
  <unicode hex="007E"/>
  <note>
	asciitilde
  </note>
  <outline>
    <contour>
      <point x="472" y="223"/>
      <point x="512" y="256"/>
      <point x="544" y="298" type="curve" smooth="yes"/>
      <point x="565" y="326"/>
      <point x="559" y="342"/>
      <point x="535" y="361" type="curve" smooth="yes"/>
      <point x="503" y="386"/>
      <point x="489" y="383"/>
      <point x="471" y="362" type="curve" smooth="yes"/>
      <point x="451" y="339"/>
      <point x="435" y="322"/>
      <point x="399" y="322" type="curve" smooth="yes"/>
      <point x="333" y="322"/>
      <point x="282" y="395"/>
      <point x="192" y="395" type="curve" smooth="yes"/>
      <point x="127" y="395"/>
      <point x="86" y="362"/>
      <point x="54" y="320" type="curve" smooth="yes"/>
      <point x="33" y="292"/>
      <point x="37" y="278"/>
      <point x="61" y="260" type="curve" smooth="yes"/>
      <point x="93" y="235"/>
      <point x="109" y="236"/>
      <point x="127" y="256" type="curve" smooth="yes"/>
      <point x="147" y="277"/>
      <point x="163" y="296"/>
      <point x="199" y="296" type="curve" smooth="yes"/>
      <point x="270" y="296"/>
      <point x="322" y="223"/>
      <point x="410" y="223" type="curve" smooth="yes"/>
    </contour>
  </outline>
</glyph>
<glyph name="exclamdown" format="1">
  <advance width="222"/>
  <unicode hex="00A1"/>
  <note>
	exclamdown
  </note>
  <outline>
    <contour>
      <point x="139" y="-62" type="line" smooth="yes"/>
      <point x="167" y="-62"/>
      <point x="176" y="-49"/>
      <point x="176" y="-25" type="curve"/>
      <point x="169" y="393" type="line"/>
      <point x="169" y="417"/>
      <point x="162" y="429"/>
      <point x="134" y="429" type="curve" smooth="yes"/>
      <point x="85" y="429" type="line" smooth="yes"/>
      <point x="62" y="429"/>
      <point x="53" y="419"/>
      <point x="53" y="393" type="curve" smooth="yes"/>
      <point x="47" y="-25" type="line" smooth="yes"/>
      <point x="47" y="-49"/>
      <point x="56" y="-62"/>
      <point x="84" y="-62" type="curve" smooth="yes"/>
    </contour>
    <contour>
      <point x="124" y="514" type="line" smooth="yes"/>
      <point x="163" y="514"/>
      <point x="183" y="528"/>
      <point x="183" y="556" type="curve" smooth="yes"/>
      <point x="183" y="577" type="line" smooth="yes"/>
      <point x="183" y="605"/>
      <point x="163" y="618"/>
      <point x="124" y="618" type="curve" smooth="yes"/>
      <point x="98" y="618" type="line" smooth="yes"/>
      <point x="59" y="618"/>
      <point x="39" y="605"/>
      <point x="39" y="577" type="curve" smooth="yes"/>
      <point x="39" y="556" type="line" smooth="yes"/>
      <point x="39" y="527"/>
      <point x="59" y="514"/>
      <point x="98" y="514" type="curve" smooth="yes"/>
    </contour>
  </outline>
</glyph>
<glyph name="cent" format="1">
  <advance width="565"/>
  <unicode hex="00A2"/>
  <note>
	cent
  </note>
  <outline>
    <contour>
      <point x="340" y="-103" type="line" smooth="yes"/>
      <point x="368" y="-103"/>
      <point x="378" y="-91"/>
      <point x="378" y="-67" type="curve" smooth="yes"/>
      <point x="378" y="-11" type="line"/>
      <point x="432" y="-5"/>
      <point x="477" y="11"/>
      <point x="515" y="36" type="curve" smooth="yes"/>
      <point x="527" y="44"/>
      <point x="528" y="50"/>
      <point x="521" y="61" type="curve" smooth="yes"/>
      <point x="492" y="110" type="line" smooth="yes"/>
      <point x="484" y="123"/>
      <point x="480" y="123"/>
      <point x="467" y="115" type="curve" smooth="yes"/>
      <point x="433" y="93"/>
      <point x="391" y="76"/>
      <point x="334" y="76" type="curve" smooth="yes"/>
      <point x="230" y="76"/>
      <point x="165" y="128"/>
      <point x="165" y="238" type="curve" smooth="yes"/>
      <point x="165" y="340"/>
      <point x="228" y="404"/>
      <point x="326" y="404" type="curve" smooth="yes"/>
      <point x="389" y="404"/>
      <point x="426" y="388"/>
      <point x="460" y="366" type="curve" smooth="yes"/>
      <point x="473" y="358"/>
      <point x="478" y="358"/>
      <point x="485" y="370" type="curve" smooth="yes"/>
      <point x="512" y="417" type="line" smooth="yes"/>
      <point x="519" y="429"/>
      <point x="519" y="436"/>
      <point x="508" y="444" type="curve" smooth="yes"/>
      <point x="472" y="470"/>
      <point x="430" y="484"/>
      <point x="378" y="490" type="curve"/>
      <point x="378" y="546" type="line" smooth="yes"/>
      <point x="378" y="570"/>
      <point x="368" y="583"/>
      <point x="340" y="583" type="curve" smooth="yes"/>
      <point x="296" y="583" type="line" smooth="yes"/>
      <point x="268" y="583"/>
      <point x="258" y="570"/>
      <point x="258" y="546" type="curve" smooth="yes"/>
      <point x="258" y="488" type="line"/>
      <point x="123" y="471"/>
      <point x="39" y="373"/>
      <point x="39" y="238" type="curve" smooth="yes"/>
      <point x="39" y="93"/>
      <point x="120" y="8"/>
      <point x="258" y="-9" type="curve"/>
      <point x="258" y="-67" type="line" smooth="yes"/>
      <point x="258" y="-91"/>
      <point x="268" y="-103"/>
      <point x="296" y="-103" type="curve" smooth="yes"/>
    </contour>
  </outline>
</glyph>
<glyph name="currency" format="1">
  <advance width="543"/>
  <unicode hex="00A4"/>
  <note>
	currency
  </note>
  <outline>
    <contour>
      <point x="172" y="130" type="line"/>
      <point x="201" y="112"/>
      <point x="235" y="102"/>
      <point x="272" y="102" type="curve" smooth="yes"/>
      <point x="308" y="102"/>
      <point x="342" y="111"/>
      <point x="371" y="130" type="curve"/>
      <point x="415" y="88" type="line" smooth="yes"/>
      <point x="429" y="75"/>
      <point x="442" y="75"/>
      <point x="457" y="89" type="curve" smooth="yes"/>
      <point x="494" y="124" type="line" smooth="yes"/>
      <point x="508" y="138"/>
      <point x="506" y="148"/>
      <point x="493" y="161" type="curve" smooth="yes"/>
      <point x="455" y="200" type="line"/>
      <point x="475" y="230"/>
      <point x="488" y="267"/>
      <point x="488" y="305" type="curve" smooth="yes"/>
      <point x="488" y="343"/>
      <point x="476" y="380"/>
      <point x="455" y="411" type="curve"/>
      <point x="493" y="449" type="line" smooth="yes"/>
      <point x="506" y="462"/>
      <point x="508" y="472"/>
      <point x="494" y="486" type="curve" smooth="yes"/>
      <point x="457" y="521" type="line" smooth="yes"/>
      <point x="442" y="535"/>
      <point x="429" y="535"/>
      <point x="415" y="522" type="curve" smooth="yes"/>
      <point x="371" y="481" type="line"/>
      <point x="343" y="498"/>
      <point x="308" y="509"/>
      <point x="272" y="509" type="curve" smooth="yes"/>
      <point x="235" y="509"/>
      <point x="200" y="498"/>
      <point x="172" y="481" type="curve"/>
      <point x="127" y="522" type="line" smooth="yes"/>
      <point x="113" y="535"/>
      <point x="101" y="536"/>
      <point x="86" y="522" type="curve" smooth="yes"/>
      <point x="48" y="486" type="line" smooth="yes"/>
      <point x="35" y="473"/>
      <point x="36" y="461"/>
      <point x="49" y="449" type="curve" smooth="yes"/>
      <point x="88" y="411" type="line"/>
      <point x="68" y="379"/>
      <point x="56" y="343"/>
      <point x="56" y="305" type="curve" smooth="yes"/>
      <point x="56" y="268"/>
      <point x="68" y="231"/>
      <point x="88" y="200" type="curve"/>
      <point x="49" y="161" type="line" smooth="yes"/>
      <point x="36" y="148"/>
      <point x="34" y="137"/>
      <point x="48" y="124" type="curve" smooth="yes"/>
      <point x="86" y="89" type="line" smooth="yes"/>
      <point x="101" y="75"/>
      <point x="113" y="76"/>
      <point x="127" y="88" type="curve"/>
    </contour>
    <contour>
      <point x="212" y="197"/>
      <point x="164" y="246"/>
      <point x="164" y="305" type="curve" smooth="yes"/>
      <point x="164" y="365"/>
      <point x="212" y="413"/>
      <point x="272" y="413" type="curve" smooth="yes"/>
      <point x="331" y="413"/>
      <point x="380" y="365"/>
      <point x="380" y="305" type="curve" smooth="yes"/>
      <point x="380" y="246"/>
      <point x="331" y="197"/>
      <point x="272" y="197" type="curve" smooth="yes"/>
    </contour>
  </outline>
</glyph>
<glyph name="section" format="1">
  <advance width="589"/>
  <unicode hex="00A7"/>
  <note>
	section
  </note>
  <outline>
    <contour>
      <point x="466" y="-156"/>
      <point x="550" y="-86"/>
      <point x="550" y="23" type="curve" smooth="yes"/>
      <point x="550" y="57"/>
      <point x="543" y="85"/>
      <point x="524" y="108" type="curve"/>
      <point x="540" y="129"/>
      <point x="549" y="157"/>
      <point x="549" y="182" type="curve" smooth="yes"/>
      <point x="549" y="307"/>
      <point x="455" y="345"/>
      <point x="355" y="385" type="curve" smooth="yes"/>
      <point x="245" y="429"/>
      <point x="189" y="435"/>
      <point x="189" y="515" type="curve" smooth="yes"/>
      <point x="189" y="575"/>
      <point x="228" y="600"/>
      <point x="315" y="600" type="curve" smooth="yes"/>
      <point x="384" y="600"/>
      <point x="435" y="584"/>
      <point x="474" y="559" type="curve" smooth="yes"/>
      <point x="486" y="551"/>
      <point x="490" y="551"/>
      <point x="497" y="562" type="curve" smooth="yes"/>
      <point x="529" y="614" type="line"/>
      <point x="537" y="626"/>
      <point x="534" y="632"/>
      <point x="521" y="642" type="curve"/>
      <point x="472" y="677"/>
      <point x="402" y="695"/>
      <point x="308" y="695" type="curve" smooth="yes"/>
      <point x="158" y="695"/>
      <point x="63" y="629"/>
      <point x="63" y="515" type="curve" smooth="yes"/>
      <point x="63" y="483"/>
      <point x="72" y="452"/>
      <point x="88" y="428" type="curve"/>
      <point x="71" y="399"/>
      <point x="65" y="371"/>
      <point x="65" y="339" type="curve" smooth="yes"/>
      <point x="65" y="233"/>
      <point x="157" y="190"/>
      <point x="256" y="150" type="curve" smooth="yes"/>
      <point x="347" y="113"/>
      <point x="424" y="100"/>
      <point x="424" y="24" type="curve" smooth="yes"/>
      <point x="424" y="-45"/>
      <point x="366" y="-62"/>
      <point x="286" y="-62" type="curve" smooth="yes"/>
      <point x="207" y="-62"/>
      <point x="151" y="-48"/>
      <point x="98" y="-17" type="curve" smooth="yes"/>
      <point x="86" y="-10"/>
      <point x="81" y="-10"/>
      <point x="75" y="-21" type="curve"/>
      <point x="44" y="-71" type="line"/>
      <point x="37" y="-81"/>
      <point x="39" y="-92"/>
      <point x="53" y="-100" type="curve" smooth="yes"/>
      <point x="121" y="-139"/>
      <point x="195" y="-156"/>
      <point x="299" y="-156" type="curve" smooth="yes"/>
    </contour>
    <contour>
      <point x="403" y="197"/>
      <point x="348" y="216"/>
      <point x="285" y="241" type="curve" smooth="yes"/>
      <point x="205" y="274"/>
      <point x="167" y="288"/>
      <point x="167" y="350" type="curve" smooth="yes"/>
      <point x="167" y="356"/>
      <point x="168" y="364"/>
      <point x="170" y="368" type="curve"/>
      <point x="206" y="342"/>
      <point x="253" y="324"/>
      <point x="317" y="300" type="curve" smooth="yes"/>
      <point x="411" y="264"/>
      <point x="447" y="241"/>
      <point x="447" y="185" type="curve" smooth="yes"/>
      <point x="447" y="178"/>
      <point x="446" y="173"/>
      <point x="445" y="169" type="curve"/>
    </contour>
  </outline>
</glyph>
<glyph name="ordfeminine" format="1">
  <advance width="372"/>
  <unicode hex="00AA"/>
  <note>
	ordfeminine
  </note>
  <outline>
    <contour>
      <point x="199" y="368"/>
      <point x="236" y="384"/>
      <point x="260" y="413" type="curve"/>
      <point x="264" y="390" type="line"/>
      <point x="265" y="382"/>
      <point x="270" y="377"/>
      <point x="279" y="377" type="curve" smooth="yes"/>
      <point x="318" y="377" type="line" smooth="yes"/>
      <point x="328" y="377"/>
      <point x="333" y="382"/>
      <point x="333" y="390" type="curve" smooth="yes"/>
      <point x="333" y="564" type="line" smooth="yes"/>
      <point x="333" y="651"/>
      <point x="292" y="695"/>
      <point x="189" y="695" type="curve" smooth="yes"/>
      <point x="145" y="695"/>
      <point x="108" y="686"/>
      <point x="80" y="673" type="curve" smooth="yes"/>
      <point x="72" y="669"/>
      <point x="68" y="665"/>
      <point x="71" y="659" type="curve"/>
      <point x="93" y="622" type="line" smooth="yes"/>
      <point x="96" y="617"/>
      <point x="98" y="615"/>
      <point x="105" y="618" type="curve" smooth="yes"/>
      <point x="131" y="630"/>
      <point x="153" y="637"/>
      <point x="184" y="637" type="curve" smooth="yes"/>
      <point x="234" y="637"/>
      <point x="259" y="618"/>
      <point x="259" y="573" type="curve" smooth="yes"/>
      <point x="259" y="562" type="line"/>
      <point x="159" y="562" type="line" smooth="yes"/>
      <point x="86" y="562"/>
      <point x="39" y="528"/>
      <point x="39" y="463" type="curve" smooth="yes"/>
      <point x="39" y="402"/>
      <point x="84" y="368"/>
      <point x="149" y="368" type="curve" smooth="yes"/>
    </contour>
    <contour>
      <point x="130" y="422"/>
      <point x="113" y="436"/>
      <point x="113" y="466" type="curve" smooth="yes"/>
      <point x="113" y="498"/>
      <point x="129" y="510"/>
      <point x="170" y="510" type="curve" smooth="yes"/>
      <point x="259" y="510" type="line"/>
      <point x="259" y="498" type="line" smooth="yes"/>
      <point x="259" y="452"/>
      <point x="220" y="422"/>
      <point x="170" y="422" type="curve" smooth="yes"/>
    </contour>
  </outline>
</glyph>
<glyph name="logicalnot" format="1">
  <advance width="471"/>
  <unicode hex="00AC"/>
  <note>
	logicalnot
  </note>
  <outline>
    <contour>
      <point x="395" y="119" type="line" smooth="yes"/>
      <point x="420" y="119"/>
      <point x="432" y="127"/>
      <point x="432" y="154" type="curve" smooth="yes"/>
      <point x="432" y="311" type="line" smooth="yes"/>
      <point x="432" y="336"/>
      <point x="423" y="347"/>
      <point x="396" y="347" type="curve" smooth="yes"/>
      <point x="74" y="347" type="line" smooth="yes"/>
      <point x="47" y="347"/>
      <point x="39" y="336"/>
      <point x="39" y="311" type="curve" smooth="yes"/>
      <point x="39" y="285" type="line" smooth="yes"/>
      <point x="39" y="260"/>
      <point x="47" y="250"/>
      <point x="74" y="250" type="curve" smooth="yes"/>
      <point x="326" y="250" type="line"/>
      <point x="326" y="154" type="line" smooth="yes"/>
      <point x="326" y="127"/>
      <point x="338" y="119"/>
      <point x="362" y="119" type="curve" smooth="yes"/>
    </contour>
  </outline>
</glyph>
<glyph name="degree" format="1">
  <advance width="334"/>
  <unicode hex="00B0"/>
  <note>
	degree
  </note>
  <outline>
    <contour>
      <point x="244" y="458"/>
      <point x="295" y="503"/>
      <point x="295" y="586" type="curve" smooth="yes"/>
      <point x="295" y="669"/>
      <point x="244" y="713"/>
      <point x="167" y="713" type="curve" smooth="yes"/>
      <point x="90" y="713"/>
      <point x="39" y="669"/>
      <point x="39" y="586" type="curve" smooth="yes"/>
      <point x="39" y="503"/>
      <point x="90" y="458"/>
      <point x="167" y="458" type="curve" smooth="yes"/>
    </contour>
    <contour>
      <point x="133" y="526"/>
      <point x="109" y="546"/>
      <point x="109" y="586" type="curve" smooth="yes"/>
      <point x="109" y="625"/>
      <point x="133" y="645"/>
      <point x="167" y="645" type="curve" smooth="yes"/>
      <point x="201" y="645"/>
      <point x="225" y="625"/>
      <point x="225" y="586" type="curve" smooth="yes"/>
      <point x="225" y="546"/>
      <point x="201" y="526"/>
      <point x="167" y="526" type="curve" smooth="yes"/>
    </contour>
  </outline>
</glyph>
<glyph name="plusminus" format="1">
  <advance width="459"/>
  <unicode hex="00B1"/>
  <note>
	plusminus
  </note>
  <outline>
    <contour>
      <point x="254" y="187" type="line" smooth="yes"/>
      <point x="278" y="187"/>
      <point x="284" y="195"/>
      <point x="284" y="216" type="curve" smooth="yes"/>
      <point x="284" y="310" type="line"/>
      <point x="396" y="310" type="line" smooth="yes"/>
      <point x="418" y="310"/>
      <point x="428" y="316"/>
      <point x="428" y="340" type="curve" smooth="yes"/>
      <point x="428" y="377" type="line" smooth="yes"/>
      <point x="428" y="401"/>
      <point x="418" y="407"/>
      <point x="396" y="407" type="curve" smooth="yes"/>
      <point x="284" y="407" type="line"/>
      <point x="284" y="502" type="line" smooth="yes"/>
      <point x="284" y="523"/>
      <point x="278" y="531"/>
      <point x="254" y="531" type="curve" smooth="yes"/>
      <point x="208" y="531" type="line" smooth="yes"/>
      <point x="184" y="531"/>
      <point x="178" y="523"/>
      <point x="178" y="502" type="curve" smooth="yes"/>
      <point x="178" y="407" type="line"/>
      <point x="67" y="407" type="line" smooth="yes"/>
      <point x="45" y="407"/>
      <point x="35" y="401"/>
      <point x="35" y="377" type="curve" smooth="yes"/>
      <point x="35" y="340" type="line" smooth="yes"/>
      <point x="35" y="316"/>
      <point x="45" y="310"/>
      <point x="67" y="310" type="curve" smooth="yes"/>
      <point x="178" y="310" type="line"/>
      <point x="178" y="216" type="line" smooth="yes"/>
      <point x="178" y="195"/>
      <point x="184" y="187"/>
      <point x="208" y="187" type="curve" smooth="yes"/>
    </contour>
    <contour>
      <point x="397" y="0" type="line" smooth="yes"/>
      <point x="419" y="0"/>
      <point x="426" y="10"/>
      <point x="426" y="30" type="curve" smooth="yes"/>
      <point x="426" y="67" type="line" smooth="yes"/>
      <point x="426" y="87"/>
      <point x="418" y="97"/>
      <point x="397" y="97" type="curve" smooth="yes"/>
      <point x="62" y="97" type="line" smooth="yes"/>
      <point x="40" y="97"/>
      <point x="33" y="87"/>
      <point x="33" y="67" type="curve" smooth="yes"/>
      <point x="33" y="30" type="line" smooth="yes"/>
      <point x="33" y="10"/>
      <point x="40" y="0"/>
      <point x="62" y="0" type="curve" smooth="yes"/>
    </contour>
  </outline>
</glyph>
<glyph name="twosuperior" format="1">
  <advance width="384"/>
  <unicode hex="00B2"/>
  <note>
	twosuperior
  </note>
  <outline>
    <contour>
      <point x="325" y="286" type="line" smooth="yes"/>
      <point x="340" y="286"/>
      <point x="345" y="291"/>
      <point x="345" y="306" type="curve" smooth="yes"/>
      <point x="345" y="341" type="line" smooth="yes"/>
      <point x="345" y="357"/>
      <point x="340" y="363"/>
      <point x="325" y="363" type="curve" smooth="yes"/>
      <point x="147" y="363" type="line"/>
      <point x="152" y="389"/>
      <point x="185" y="411"/>
      <point x="239" y="441" type="curve" smooth="yes"/>
      <point x="314" y="485"/>
      <point x="342" y="518"/>
      <point x="342" y="580" type="curve" smooth="yes"/>
      <point x="342" y="649"/>
      <point x="285" y="695"/>
      <point x="195" y="695" type="curve" smooth="yes"/>
      <point x="136" y="695"/>
      <point x="80" y="679"/>
      <point x="52" y="660" type="curve"/>
      <point x="45" y="656"/>
      <point x="45" y="652"/>
      <point x="49" y="644" type="curve" smooth="yes"/>
      <point x="69" y="602" type="line"/>
      <point x="73" y="596"/>
      <point x="77" y="597"/>
      <point x="84" y="600" type="curve"/>
      <point x="109" y="613"/>
      <point x="141" y="623"/>
      <point x="176" y="623" type="curve" smooth="yes"/>
      <point x="223" y="623"/>
      <point x="247" y="605"/>
      <point x="247" y="574" type="curve" smooth="yes"/>
      <point x="247" y="535"/>
      <point x="230" y="518"/>
      <point x="160" y="476" type="curve" smooth="yes"/>
      <point x="82" y="429"/>
      <point x="40" y="387"/>
      <point x="40" y="336" type="curve" smooth="yes"/>
      <point x="40" y="306" type="line" smooth="yes"/>
      <point x="40" y="292"/>
      <point x="46" y="286"/>
      <point x="59" y="286" type="curve" smooth="yes"/>
    </contour>
  </outline>
</glyph>
<glyph name="acute" format="1">
  <advance width="265"/>
  <unicode hex="00B4"/>
  <note>
	acute
  </note>
  <outline>
    <contour>
      <point x="113" y="563" type="line" smooth="yes"/>
      <point x="139" y="563"/>
      <point x="145" y="568"/>
      <point x="154" y="585" type="curve" smooth="yes"/>
      <point x="220" y="714" type="line" smooth="yes"/>
      <point x="231" y="735"/>
      <point x="221" y="746"/>
      <point x="199" y="746" type="curve" smooth="yes"/>
      <point x="126" y="746" type="line" smooth="yes"/>
      <point x="100" y="746"/>
      <point x="96" y="739"/>
      <point x="89" y="722" type="curve"/>
      <point x="41" y="591" type="line" smooth="yes"/>
      <point x="35" y="574"/>
      <point x="40" y="563"/>
      <point x="61" y="563" type="curve" smooth="yes"/>
    </contour>
  </outline>
</glyph>
<glyph name="periodcentered" format="1">
  <advance width="181"/>
  <unicode hex="00B7"/>
  <note>
	periodcentered
  </note>
  <outline>
    <contour>
      <point x="100" y="266" type="line" smooth="yes"/>
      <point x="125" y="266"/>
      <point x="142" y="287"/>
      <point x="142" y="311" type="curve" smooth="yes"/>
      <point x="142" y="328" type="line" smooth="yes"/>
      <point x="142" y="353"/>
      <point x="124" y="373"/>
      <point x="100" y="373" type="curve" smooth="yes"/>
      <point x="81" y="373" type="line" smooth="yes"/>
      <point x="56" y="373"/>
      <point x="39" y="353"/>
      <point x="39" y="328" type="curve" smooth="yes"/>
      <point x="39" y="311" type="line" smooth="yes"/>
      <point x="39" y="287"/>
      <point x="56" y="266"/>
      <point x="81" y="266" type="curve" smooth="yes"/>
    </contour>
  </outline>
</glyph>
<glyph name="onesuperior" format="1">
  <advance width="365"/>
  <unicode hex="00B9"/>
  <note>
	onesuperior
  </note>
  <outline>
    <contour>
      <point x="320" y="286" type="line" smooth="yes"/>
      <point x="339" y="286"/>
      <point x="346" y="292"/>
      <point x="346" y="311" type="curve" smooth="yes"/>
      <point x="346" y="332" type="line" smooth="yes"/>
      <point x="346" y="350"/>
      <point x="339" y="358"/>
      <point x="320" y="358" type="curve" smooth="yes"/>
      <point x="252" y="358" type="line"/>
      <point x="252" y="653" type="line" smooth="yes"/>
      <point x="252" y="670"/>
      <point x="244" y="680"/>
      <point x="224" y="680" type="curve" smooth="yes"/>
      <point x="191" y="680" type="line" smooth="yes"/>
      <point x="179" y="680"/>
      <point x="174" y="677"/>
      <point x="167" y="673" type="curve" smooth="yes"/>
      <point x="49" y="602" type="line" smooth="yes"/>
      <point x="39" y="596"/>
      <point x="36" y="589"/>
      <point x="42" y="579" type="curve"/>
      <point x="63" y="547" type="line"/>
      <point x="70" y="535"/>
      <point x="79" y="535"/>
      <point x="88" y="541" type="curve"/>
      <point x="155" y="582" type="line"/>
      <point x="155" y="358" type="line"/>
      <point x="86" y="358" type="line" smooth="yes"/>
      <point x="66" y="358"/>
      <point x="59" y="350"/>
      <point x="59" y="332" type="curve" smooth="yes"/>
      <point x="59" y="311" type="line" smooth="yes"/>
      <point x="59" y="292"/>
      <point x="66" y="286"/>
      <point x="86" y="286" type="curve" smooth="yes"/>
    </contour>
  </outline>
</glyph>
<glyph name="guillemetright" format="1">
  <advance width="663"/>
  <unicode hex="00BB"/>
  <note>
	guillemotright
  </note>
  <outline>
    <contour>
      <point x="384" y="20"/>
      <point x="396" y="22"/>
      <point x="412" y="39" type="curve" smooth="yes"/>
      <point x="600" y="236" type="line" smooth="yes"/>
      <point x="615" y="252"/>
      <point x="624" y="259"/>
      <point x="624" y="272" type="curve" smooth="yes"/>
      <point x="624" y="287" type="line" smooth="yes"/>
      <point x="624" y="300"/>
      <point x="614" y="308"/>
      <point x="600" y="323" type="curve" smooth="yes"/>
      <point x="412" y="520" type="line" smooth="yes"/>
      <point x="396" y="537"/>
      <point x="384" y="539"/>
      <point x="370" y="525" type="curve" smooth="yes"/>
      <point x="330" y="485" type="line"/>
      <point x="316" y="472"/>
      <point x="314" y="461"/>
      <point x="331" y="445" type="curve"/>
      <point x="492" y="280" type="line"/>
      <point x="331" y="114" type="line"/>
      <point x="314" y="98"/>
      <point x="316" y="87"/>
      <point x="330" y="74" type="curve"/>
      <point x="370" y="34" type="line" smooth="yes"/>
    </contour>
    <contour>
      <point x="104" y="20"/>
      <point x="116" y="22"/>
      <point x="132" y="39" type="curve" smooth="yes"/>
      <point x="320" y="236" type="line" smooth="yes"/>
      <point x="335" y="252"/>
      <point x="344" y="259"/>
      <point x="344" y="272" type="curve" smooth="yes"/>
      <point x="344" y="287" type="line" smooth="yes"/>
      <point x="344" y="300"/>
      <point x="334" y="308"/>
      <point x="320" y="323" type="curve" smooth="yes"/>
      <point x="132" y="520" type="line" smooth="yes"/>
      <point x="116" y="537"/>
      <point x="104" y="539"/>
      <point x="90" y="525" type="curve" smooth="yes"/>
      <point x="50" y="485" type="line"/>
      <point x="36" y="472"/>
      <point x="34" y="461"/>
      <point x="51" y="445" type="curve"/>
      <point x="212" y="280" type="line"/>
      <point x="51" y="114" type="line"/>
      <point x="34" y="98"/>
      <point x="36" y="87"/>
      <point x="50" y="74" type="curve"/>
      <point x="90" y="34" type="line" smooth="yes"/>
    </contour>
  </outline>
</glyph>
<glyph name="questiondown" format="1">
  <advance width="547"/>
  <unicode hex="00BF"/>
  <note>
	questiondown
  </note>
  <outline>
    <contour>
      <point x="373" y="-77"/>
      <point x="449" y="-56"/>
      <point x="499" y="-20" type="curve" smooth="yes"/>
      <point x="510" y="-12"/>
      <point x="510" y="-4"/>
      <point x="503" y="8" type="curve" smooth="yes"/>
      <point x="474" y="57" type="line"/>
      <point x="468" y="68"/>
      <point x="462" y="69"/>
      <point x="449" y="61" type="curve" smooth="yes"/>
      <point x="413" y="38"/>
      <point x="363" y="17"/>
      <point x="291" y="17" type="curve" smooth="yes"/>
      <point x="213" y="17"/>
      <point x="166" y="50"/>
      <point x="166" y="112" type="curve" smooth="yes"/>
      <point x="166" y="164"/>
      <point x="185" y="182"/>
      <point x="261" y="225" type="curve" smooth="yes"/>
      <point x="342" y="272"/>
      <point x="380" y="323"/>
      <point x="380" y="411" type="curve" smooth="yes"/>
      <point x="380" y="428" type="line" smooth="yes"/>
      <point x="380" y="452"/>
      <point x="370" y="464"/>
      <point x="343" y="464" type="curve" smooth="yes"/>
      <point x="290" y="464" type="line" smooth="yes"/>
      <point x="262" y="464"/>
      <point x="252" y="452"/>
      <point x="252" y="428" type="curve" smooth="yes"/>
      <point x="252" y="414" type="line" smooth="yes"/>
      <point x="252" y="353"/>
      <point x="232" y="326"/>
      <point x="160" y="286" type="curve" smooth="yes"/>
      <point x="78" y="240"/>
      <point x="39" y="196"/>
      <point x="39" y="111" type="curve" smooth="yes"/>
      <point x="39" y="-10"/>
      <point x="138" y="-77"/>
      <point x="277" y="-77" type="curve" smooth="yes"/>
    </contour>
    <contour>
      <point x="338" y="514" type="line" smooth="yes"/>
      <point x="371" y="514"/>
      <point x="389" y="531"/>
      <point x="389" y="556" type="curve" smooth="yes"/>
      <point x="389" y="576" type="line" smooth="yes"/>
      <point x="389" y="601"/>
      <point x="371" y="618"/>
      <point x="338" y="618" type="curve" smooth="yes"/>
      <point x="295" y="618" type="line" smooth="yes"/>
      <point x="262" y="618"/>
      <point x="244" y="601"/>
      <point x="244" y="576" type="curve" smooth="yes"/>
      <point x="244" y="556" type="line" smooth="yes"/>
      <point x="244" y="531"/>
      <point x="261" y="514"/>
      <point x="295" y="514" type="curve" smooth="yes"/>
    </contour>
  </outline>
</glyph>
<glyph name="Agrave" format="1">
  <advance width="733"/>
  <unicode hex="00C0"/>
  <note>
	Agrave
  </note>
  <outline>
    <contour>
      <point x="143" y="0" type="line" smooth="yes"/>
      <point x="161" y="0"/>
      <point x="166" y="4"/>
      <point x="172" y="18" type="curve" smooth="yes"/>
      <point x="228" y="158" type="line"/>
      <point x="504" y="158" type="line"/>
      <point x="561" y="18" type="line" smooth="yes"/>
      <point x="567" y="4"/>
      <point x="572" y="0"/>
      <point x="590" y="0" type="curve" smooth="yes"/>
      <point x="677" y="0" type="line" smooth="yes"/>
      <point x="693" y="0"/>
      <point x="698" y="12"/>
      <point x="691" y="28" type="curve" smooth="yes"/>
      <point x="427" y="654" type="line" smooth="yes"/>
      <point x="419" y="673"/>
      <point x="413" y="680"/>
      <point x="394" y="680" type="curve" smooth="yes"/>
      <point x="339" y="680" type="line" smooth="yes"/>
      <point x="321" y="680"/>
      <point x="314" y="673"/>
      <point x="306" y="654" type="curve" smooth="yes"/>
      <point x="42" y="28" type="line" smooth="yes"/>
      <point x="35" y="12"/>
      <point x="40" y="0"/>
      <point x="56" y="0" type="curve" smooth="yes"/>
    </contour>
    <contour>
      <point x="366" y="513" type="line"/>
      <point x="472" y="251" type="line"/>
      <point x="260" y="251" type="line"/>
    </contour>
    <contour>
      <point x="400" y="729" type="line" smooth="yes"/>
      <point x="421" y="729"/>
      <point x="426" y="740"/>
      <point x="420" y="757" type="curve" smooth="yes"/>
      <point x="372" y="888" type="line" smooth="yes"/>
      <point x="366" y="906"/>
      <point x="361" y="912"/>
      <point x="335" y="912" type="curve" smooth="yes"/>
      <point x="262" y="912" type="line" smooth="yes"/>
      <point x="240" y="912"/>
      <point x="230" y="901"/>
      <point x="241" y="880" type="curve" smooth="yes"/>
      <point x="307" y="751" type="line" smooth="yes"/>
      <point x="316" y="734"/>
      <point x="323" y="729"/>
      <point x="348" y="729" type="curve" smooth="yes"/>
    </contour>
  </outline>
</glyph>
<glyph name="Atilde" format="1">
  <advance width="733"/>
  <unicode hex="00C3"/>
  <note>
	Atilde
  </note>
  <outline>
    <contour>
      <point x="143" y="0" type="line" smooth="yes"/>
      <point x="161" y="0"/>
      <point x="166" y="4"/>
      <point x="172" y="18" type="curve" smooth="yes"/>
      <point x="228" y="158" type="line"/>
      <point x="504" y="158" type="line"/>
      <point x="561" y="18" type="line" smooth="yes"/>
      <point x="567" y="4"/>
      <point x="572" y="0"/>
      <point x="590" y="0" type="curve" smooth="yes"/>
      <point x="677" y="0" type="line" smooth="yes"/>
      <point x="693" y="0"/>
      <point x="698" y="12"/>
      <point x="691" y="28" type="curve" smooth="yes"/>
      <point x="427" y="654" type="line" smooth="yes"/>
      <point x="419" y="673"/>
      <point x="413" y="680"/>
      <point x="394" y="680" type="curve" smooth="yes"/>
      <point x="339" y="680" type="line" smooth="yes"/>
      <point x="321" y="680"/>
      <point x="314" y="673"/>
      <point x="306" y="654" type="curve" smooth="yes"/>
      <point x="42" y="28" type="line" smooth="yes"/>
      <point x="35" y="12"/>
      <point x="40" y="0"/>
      <point x="56" y="0" type="curve" smooth="yes"/>
    </contour>
    <contour>
      <point x="366" y="513" type="line"/>
      <point x="472" y="251" type="line"/>
      <point x="260" y="251" type="line"/>
    </contour>
    <contour>
      <point x="524" y="742"/>
      <point x="555" y="765"/>
      <point x="587" y="813" type="curve"/>
      <point x="603" y="835"/>
      <point x="601" y="848"/>
      <point x="575" y="868" type="curve" smooth="yes"/>
      <point x="550" y="888"/>
      <point x="534" y="890"/>
      <point x="521" y="873" type="curve" smooth="yes"/>
      <point x="500" y="845"/>
      <point x="486" y="836"/>
      <point x="459" y="836" type="curve" smooth="yes"/>
      <point x="402" y="836"/>
      <point x="361" y="888"/>
      <point x="280" y="888" type="curve" smooth="yes"/>
      <point x="230" y="888"/>
      <point x="200" y="860"/>
      <point x="172" y="825" type="curve" smooth="yes"/>
      <point x="156" y="804"/>
      <point x="157" y="791"/>
      <point x="179" y="772" type="curve" smooth="yes"/>
      <point x="203" y="751"/>
      <point x="219" y="747"/>
      <point x="232" y="763" type="curve"/>
      <point x="252" y="785"/>
      <point x="263" y="795"/>
      <point x="291" y="795" type="curve" smooth="yes"/>
      <point x="344" y="795"/>
      <point x="399" y="742"/>
      <point x="466" y="742" type="curve" smooth="yes"/>
    </contour>
  </outline>
</glyph>
<glyph name="Eacute" format="1">
  <advance width="576"/>
  <unicode hex="00C9"/>
  <note>
	Eacute
  </note>
  <outline>
    <contour>
      <point x="511" y="0" type="line" smooth="yes"/>
      <point x="538" y="0"/>
      <point x="547" y="10"/>
      <point x="547" y="34" type="curve" smooth="yes"/>
      <point x="547" y="61" type="line" smooth="yes"/>
      <point x="547" y="86"/>
      <point x="538" y="97"/>
      <point x="511" y="97" type="curve" smooth="yes"/>
      <point x="187" y="97" type="line"/>
      <point x="187" y="292" type="line"/>
      <point x="423" y="292" type="line" smooth="yes"/>
      <point x="450" y="292"/>
      <point x="459" y="303"/>
      <point x="459" y="328" type="curve" smooth="yes"/>
      <point x="459" y="353" type="line" smooth="yes"/>
      <point x="459" y="378"/>
      <point x="450" y="388"/>
      <point x="423" y="388" type="curve" smooth="yes"/>
      <point x="187" y="388" type="line"/>
      <point x="187" y="582" type="line"/>
      <point x="512" y="582" type="line" smooth="yes"/>
      <point x="539" y="582"/>
      <point x="547" y="593"/>
      <point x="547" y="618" type="curve" smooth="yes"/>
      <point x="547" y="645" type="line" smooth="yes"/>
      <point x="547" y="670"/>
      <point x="539" y="680"/>
      <point x="512" y="680" type="curve" smooth="yes"/>
      <point x="96" y="680" type="line" smooth="yes"/>
      <point x="69" y="680"/>
      <point x="59" y="667"/>
      <point x="59" y="643" type="curve" smooth="yes"/>
      <point x="59" y="36" type="line" smooth="yes"/>
      <point x="59" y="12"/>
      <point x="69" y="0"/>
      <point x="96" y="0" type="curve" smooth="yes"/>
    </contour>
    <contour>
      <point x="307" y="753" type="line" smooth="yes"/>
      <point x="333" y="753"/>
      <point x="340" y="758"/>
      <point x="349" y="775" type="curve" smooth="yes"/>
      <point x="415" y="904" type="line" smooth="yes"/>
      <point x="426" y="925"/>
      <point x="416" y="936"/>
      <point x="394" y="936" type="curve" smooth="yes"/>
      <point x="320" y="936" type="line" smooth="yes"/>
      <point x="295" y="936"/>
      <point x="290" y="929"/>
      <point x="283" y="912" type="curve"/>
      <point x="236" y="781" type="line" smooth="yes"/>
      <point x="230" y="764"/>
      <point x="235" y="753"/>
      <point x="255" y="753" type="curve" smooth="yes"/>
    </contour>
  </outline>
</glyph>
<glyph name="Edieresis" format="1">
  <advance width="576"/>
  <unicode hex="00CB"/>
  <note>
	Edieresis
  </note>
  <outline>
    <contour>
      <point x="511" y="0" type="line" smooth="yes"/>
      <point x="538" y="0"/>
      <point x="547" y="10"/>
      <point x="547" y="34" type="curve" smooth="yes"/>
      <point x="547" y="61" type="line" smooth="yes"/>
      <point x="547" y="86"/>
      <point x="538" y="97"/>
      <point x="511" y="97" type="curve" smooth="yes"/>
      <point x="187" y="97" type="line"/>
      <point x="187" y="292" type="line"/>
      <point x="423" y="292" type="line" smooth="yes"/>
      <point x="450" y="292"/>
      <point x="459" y="303"/>
      <point x="459" y="328" type="curve" smooth="yes"/>
      <point x="459" y="353" type="line" smooth="yes"/>
      <point x="459" y="378"/>
      <point x="450" y="388"/>
      <point x="423" y="388" type="curve" smooth="yes"/>
      <point x="187" y="388" type="line"/>
      <point x="187" y="582" type="line"/>
      <point x="512" y="582" type="line" smooth="yes"/>
      <point x="539" y="582"/>
      <point x="547" y="593"/>
      <point x="547" y="618" type="curve" smooth="yes"/>
      <point x="547" y="645" type="line" smooth="yes"/>
      <point x="547" y="670"/>
      <point x="539" y="680"/>
      <point x="512" y="680" type="curve" smooth="yes"/>
      <point x="96" y="680" type="line" smooth="yes"/>
      <point x="69" y="680"/>
      <point x="59" y="667"/>
      <point x="59" y="643" type="curve" smooth="yes"/>
      <point x="59" y="36" type="line" smooth="yes"/>
      <point x="59" y="12"/>
      <point x="69" y="0"/>
      <point x="96" y="0" type="curve" smooth="yes"/>
    </contour>
    <contour>
      <point x="211" y="741" type="line" smooth="yes"/>
      <point x="240" y="741"/>
      <point x="258" y="764"/>
      <point x="258" y="791" type="curve" smooth="yes"/>
      <point x="258" y="810" type="line" smooth="yes"/>
      <point x="258" y="837"/>
      <point x="239" y="859"/>
      <point x="211" y="859" type="curve" smooth="yes"/>
      <point x="191" y="859" type="line" smooth="yes"/>
      <point x="163" y="859"/>
      <point x="144" y="837"/>
      <point x="144" y="810" type="curve" smooth="yes"/>
      <point x="144" y="791" type="line" smooth="yes"/>
      <point x="144" y="764"/>
      <point x="163" y="741"/>
      <point x="191" y="741" type="curve" smooth="yes"/>
    </contour>
    <contour>
      <point x="408" y="741" type="line" smooth="yes"/>
      <point x="437" y="741"/>
      <point x="455" y="764"/>
      <point x="455" y="791" type="curve" smooth="yes"/>
      <point x="455" y="810" type="line" smooth="yes"/>
      <point x="455" y="837"/>
      <point x="436" y="859"/>
      <point x="408" y="859" type="curve" smooth="yes"/>
      <point x="388" y="859" type="line" smooth="yes"/>
      <point x="361" y="859"/>
      <point x="341" y="837"/>
      <point x="341" y="810" type="curve" smooth="yes"/>
      <point x="341" y="791" type="line" smooth="yes"/>
      <point x="341" y="764"/>
      <point x="361" y="741"/>
      <point x="388" y="741" type="curve" smooth="yes"/>
    </contour>
  </outline>
</glyph>
<glyph name="Iacute" format="1">
  <advance width="261"/>
  <unicode hex="00CD"/>
  <note>
	Iacute
  </note>
  <outline>
    <contour>
      <point x="157" y="0" type="line" smooth="yes"/>
      <point x="185" y="0"/>
      <point x="195" y="12"/>
      <point x="195" y="36" type="curve" smooth="yes"/>
      <point x="195" y="643" type="line" smooth="yes"/>
      <point x="195" y="667"/>
      <point x="185" y="680"/>
      <point x="157" y="680" type="curve" smooth="yes"/>
      <point x="104" y="680" type="line" smooth="yes"/>
      <point x="77" y="680"/>
      <point x="67" y="667"/>
      <point x="67" y="643" type="curve" smooth="yes"/>
      <point x="67" y="36" type="line" smooth="yes"/>
      <point x="67" y="12"/>
      <point x="77" y="0"/>
      <point x="104" y="0" type="curve" smooth="yes"/>
    </contour>
    <contour>
      <point x="147" y="753" type="line" smooth="yes"/>
      <point x="173" y="753"/>
      <point x="180" y="758"/>
      <point x="189" y="775" type="curve" smooth="yes"/>
      <point x="255" y="904" type="line" smooth="yes"/>
      <point x="266" y="925"/>
      <point x="256" y="936"/>
      <point x="234" y="936" type="curve" smooth="yes"/>
      <point x="160" y="936" type="line" smooth="yes"/>
      <point x="135" y="936"/>
      <point x="130" y="929"/>
      <point x="123" y="912" type="curve"/>
      <point x="76" y="781" type="line" smooth="yes"/>
      <point x="70" y="764"/>
      <point x="75" y="753"/>
      <point x="95" y="753" type="curve" smooth="yes"/>
    </contour>
  </outline>
</glyph>
<glyph name="Icircumflex" format="1">
  <advance width="240"/>
  <unicode hex="00CE"/>
  <note>
	Icircumflex
  </note>
  <outline>
    <contour>
      <point x="146" y="0" type="line" smooth="yes"/>
      <point x="174" y="0"/>
      <point x="184" y="12"/>
      <point x="184" y="36" type="curve" smooth="yes"/>
      <point x="184" y="643" type="line" smooth="yes"/>
      <point x="184" y="667"/>
      <point x="174" y="680"/>
      <point x="146" y="680" type="curve" smooth="yes"/>
      <point x="93" y="680" type="line" smooth="yes"/>
      <point x="66" y="680"/>
      <point x="56" y="667"/>
      <point x="56" y="643" type="curve" smooth="yes"/>
      <point x="56" y="36" type="line" smooth="yes"/>
      <point x="56" y="12"/>
      <point x="66" y="0"/>
      <point x="93" y="0" type="curve" smooth="yes"/>
    </contour>
    <contour>
      <point x="12" y="757" type="line" smooth="yes"/>
      <point x="36" y="757"/>
      <point x="43" y="764"/>
      <point x="52" y="778" type="curve" smooth="yes"/>
      <point x="120" y="878" type="line"/>
      <point x="187" y="778" type="line" smooth="yes"/>
      <point x="197" y="764"/>
      <point x="203" y="757"/>
      <point x="228" y="757" type="curve" smooth="yes"/>
      <point x="275" y="757" type="line" smooth="yes"/>
      <point x="295" y="757"/>
      <point x="304" y="770"/>
      <point x="290" y="789" type="curve" smooth="yes"/>
      <point x="186" y="930" type="line" smooth="yes"/>
      <point x="175" y="945"/>
      <point x="171" y="952"/>
      <point x="148" y="952" type="curve" smooth="yes"/>
      <point x="91" y="952" type="line" smooth="yes"/>
      <point x="68" y="952"/>
      <point x="65" y="945"/>
      <point x="53" y="930" type="curve"/>
      <point x="-51" y="789" type="line" smooth="yes"/>
      <point x="-65" y="770"/>
      <point x="-56" y="757"/>
      <point x="-35" y="757" type="curve" smooth="yes"/>
    </contour>
  </outline>
</glyph>
<glyph name="Idieresis" format="1">
  <advance width="271"/>
  <unicode hex="00CF"/>
  <note>
	Idieresis
  </note>
  <outline>
    <contour>
      <point x="160" y="0" type="line" smooth="yes"/>
      <point x="188" y="0"/>
      <point x="198" y="12"/>
      <point x="198" y="36" type="curve" smooth="yes"/>
      <point x="198" y="643" type="line" smooth="yes"/>
      <point x="198" y="667"/>
      <point x="188" y="680"/>
      <point x="160" y="680" type="curve" smooth="yes"/>
      <point x="107" y="680" type="line" smooth="yes"/>
      <point x="80" y="680"/>
      <point x="70" y="667"/>
      <point x="70" y="643" type="curve" smooth="yes"/>
      <point x="70" y="36" type="line" smooth="yes"/>
      <point x="70" y="12"/>
      <point x="80" y="0"/>
      <point x="107" y="0" type="curve" smooth="yes"/>
    </contour>
    <contour>
      <point x="47" y="714" type="line" smooth="yes"/>
      <point x="76" y="714"/>
      <point x="94" y="737"/>
      <point x="94" y="764" type="curve" smooth="yes"/>
      <point x="94" y="783" type="line" smooth="yes"/>
      <point x="94" y="810"/>
      <point x="75" y="832"/>
      <point x="47" y="832" type="curve" smooth="yes"/>
      <point x="27" y="832" type="line" smooth="yes"/>
      <point x="-1" y="832"/>
      <point x="-20" y="810"/>
      <point x="-20" y="783" type="curve" smooth="yes"/>
      <point x="-20" y="764" type="line" smooth="yes"/>
      <point x="-20" y="737"/>
      <point x="-1" y="714"/>
      <point x="27" y="714" type="curve" smooth="yes"/>
    </contour>
    <contour>
      <point x="244" y="714" type="line" smooth="yes"/>
      <point x="273" y="714"/>
      <point x="291" y="737"/>
      <point x="291" y="764" type="curve" smooth="yes"/>
      <point x="291" y="783" type="line" smooth="yes"/>
      <point x="291" y="810"/>
      <point x="272" y="832"/>
      <point x="244" y="832" type="curve" smooth="yes"/>
      <point x="224" y="832" type="line" smooth="yes"/>
      <point x="197" y="832"/>
      <point x="177" y="810"/>
      <point x="177" y="783" type="curve" smooth="yes"/>
      <point x="177" y="764" type="line" smooth="yes"/>
      <point x="177" y="737"/>
      <point x="197" y="714"/>
      <point x="224" y="714" type="curve" smooth="yes"/>
    </contour>
  </outline>
</glyph>
<glyph name="Oacute" format="1">
  <advance width="762"/>
  <unicode hex="00D3"/>
  <note>
	Oacute
  </note>
  <outline>
    <contour>
      <point x="601" y="-15"/>
      <point x="723" y="116"/>
      <point x="723" y="340" type="curve" smooth="yes"/>
      <point x="723" y="564"/>
      <point x="601" y="695"/>
      <point x="381" y="695" type="curve" smooth="yes"/>
      <point x="160" y="695"/>
      <point x="39" y="564"/>
      <point x="39" y="340" type="curve" smooth="yes"/>
      <point x="39" y="116"/>
      <point x="160" y="-15"/>
      <point x="381" y="-15" type="curve" smooth="yes"/>
    </contour>
    <contour>
      <point x="242" y="79"/>
      <point x="165" y="169"/>
      <point x="165" y="340" type="curve" smooth="yes"/>
      <point x="165" y="511"/>
      <point x="242" y="600"/>
      <point x="381" y="600" type="curve" smooth="yes"/>
      <point x="520" y="600"/>
      <point x="596" y="511"/>
      <point x="596" y="340" type="curve" smooth="yes"/>
      <point x="596" y="169"/>
      <point x="520" y="79"/>
      <point x="381" y="79" type="curve" smooth="yes"/>
    </contour>
    <contour>
      <point x="388" y="753" type="line" smooth="yes"/>
      <point x="414" y="753"/>
      <point x="421" y="758"/>
      <point x="430" y="775" type="curve" smooth="yes"/>
      <point x="496" y="904" type="line" smooth="yes"/>
      <point x="507" y="925"/>
      <point x="497" y="936"/>
      <point x="475" y="936" type="curve" smooth="yes"/>
      <point x="401" y="936" type="line" smooth="yes"/>
      <point x="376" y="936"/>
      <point x="371" y="929"/>
      <point x="364" y="912" type="curve"/>
      <point x="317" y="781" type="line" smooth="yes"/>
      <point x="311" y="764"/>
      <point x="316" y="753"/>
      <point x="336" y="753" type="curve" smooth="yes"/>
    </contour>
  </outline>
</glyph>
<glyph name="Odieresis" format="1">
  <advance width="762"/>
  <unicode hex="00D6"/>
  <note>
	Odieresis
  </note>
  <outline>
    <contour>
      <point x="601" y="-15"/>
      <point x="723" y="116"/>
      <point x="723" y="340" type="curve" smooth="yes"/>
      <point x="723" y="564"/>
      <point x="601" y="695"/>
      <point x="381" y="695" type="curve" smooth="yes"/>
      <point x="160" y="695"/>
      <point x="39" y="564"/>
      <point x="39" y="340" type="curve" smooth="yes"/>
      <point x="39" y="116"/>
      <point x="160" y="-15"/>
      <point x="381" y="-15" type="curve" smooth="yes"/>
    </contour>
    <contour>
      <point x="242" y="79"/>
      <point x="165" y="169"/>
      <point x="165" y="340" type="curve" smooth="yes"/>
      <point x="165" y="511"/>
      <point x="242" y="600"/>
      <point x="381" y="600" type="curve" smooth="yes"/>
      <point x="520" y="600"/>
      <point x="596" y="511"/>
      <point x="596" y="340" type="curve" smooth="yes"/>
      <point x="596" y="169"/>
      <point x="520" y="79"/>
      <point x="381" y="79" type="curve" smooth="yes"/>
    </contour>
    <contour>
      <point x="292" y="747" type="line" smooth="yes"/>
      <point x="321" y="747"/>
      <point x="339" y="770"/>
      <point x="339" y="797" type="curve" smooth="yes"/>
      <point x="339" y="816" type="line" smooth="yes"/>
      <point x="339" y="843"/>
      <point x="320" y="865"/>
      <point x="292" y="865" type="curve" smooth="yes"/>
      <point x="272" y="865" type="line" smooth="yes"/>
      <point x="244" y="865"/>
      <point x="225" y="843"/>
      <point x="225" y="816" type="curve" smooth="yes"/>
      <point x="225" y="797" type="line" smooth="yes"/>
      <point x="225" y="770"/>
      <point x="244" y="747"/>
      <point x="272" y="747" type="curve" smooth="yes"/>
    </contour>
    <contour>
      <point x="489" y="747" type="line" smooth="yes"/>
      <point x="518" y="747"/>
      <point x="536" y="770"/>
      <point x="536" y="797" type="curve" smooth="yes"/>
      <point x="536" y="816" type="line" smooth="yes"/>
      <point x="536" y="843"/>
      <point x="517" y="865"/>
      <point x="489" y="865" type="curve" smooth="yes"/>
      <point x="469" y="865" type="line" smooth="yes"/>
      <point x="442" y="865"/>
      <point x="422" y="843"/>
      <point x="422" y="816" type="curve" smooth="yes"/>
      <point x="422" y="797" type="line" smooth="yes"/>
      <point x="422" y="770"/>
      <point x="442" y="747"/>
      <point x="469" y="747" type="curve" smooth="yes"/>
    </contour>
  </outline>
</glyph>
<glyph name="Uacute" format="1">
  <advance width="716"/>
  <unicode hex="00DA"/>
  <note>
	Uacute
  </note>
  <outline>
    <contour>
      <point x="537" y="-15"/>
      <point x="662" y="81"/>
      <point x="662" y="240" type="curve" smooth="yes"/>
      <point x="662" y="643" type="line" smooth="yes"/>
      <point x="662" y="667"/>
      <point x="651" y="680"/>
      <point x="623" y="680" type="curve" smooth="yes"/>
      <point x="571" y="680" type="line" smooth="yes"/>
      <point x="543" y="680"/>
      <point x="533" y="667"/>
      <point x="533" y="643" type="curve" smooth="yes"/>
      <point x="533" y="237" type="line" smooth="yes"/>
      <point x="533" y="131"/>
      <point x="469" y="79"/>
      <point x="358" y="79" type="curve" smooth="yes"/>
      <point x="246" y="79"/>
      <point x="182" y="131"/>
      <point x="182" y="237" type="curve" smooth="yes"/>
      <point x="182" y="643" type="line" smooth="yes"/>
      <point x="182" y="667"/>
      <point x="172" y="680"/>
      <point x="144" y="680" type="curve" smooth="yes"/>
      <point x="91" y="680" type="line" smooth="yes"/>
      <point x="64" y="680"/>
      <point x="54" y="667"/>
      <point x="54" y="643" type="curve" smooth="yes"/>
      <point x="54" y="240" type="line" smooth="yes"/>
      <point x="54" y="81"/>
      <point x="178" y="-15"/>
      <point x="358" y="-15" type="curve" smooth="yes"/>
    </contour>
    <contour>
      <point x="379" y="753" type="line" smooth="yes"/>
      <point x="405" y="753"/>
      <point x="412" y="758"/>
      <point x="421" y="775" type="curve" smooth="yes"/>
      <point x="487" y="904" type="line" smooth="yes"/>
      <point x="498" y="925"/>
      <point x="488" y="936"/>
      <point x="466" y="936" type="curve" smooth="yes"/>
      <point x="392" y="936" type="line" smooth="yes"/>
      <point x="367" y="936"/>
      <point x="362" y="929"/>
      <point x="355" y="912" type="curve"/>
      <point x="308" y="781" type="line" smooth="yes"/>
      <point x="302" y="764"/>
      <point x="307" y="753"/>
      <point x="327" y="753" type="curve" smooth="yes"/>
    </contour>
  </outline>
</glyph>
<glyph name="Ucircumflex" format="1">
  <advance width="716"/>
  <unicode hex="00DB"/>
  <note>
	Ucircumflex
  </note>
  <outline>
    <contour>
      <point x="537" y="-15"/>
      <point x="662" y="81"/>
      <point x="662" y="240" type="curve" smooth="yes"/>
      <point x="662" y="643" type="line" smooth="yes"/>
      <point x="662" y="667"/>
      <point x="651" y="680"/>
      <point x="623" y="680" type="curve" smooth="yes"/>
      <point x="571" y="680" type="line" smooth="yes"/>
      <point x="543" y="680"/>
      <point x="533" y="667"/>
      <point x="533" y="643" type="curve" smooth="yes"/>
      <point x="533" y="237" type="line" smooth="yes"/>
      <point x="533" y="131"/>
      <point x="469" y="79"/>
      <point x="358" y="79" type="curve" smooth="yes"/>
      <point x="246" y="79"/>
      <point x="182" y="131"/>
      <point x="182" y="237" type="curve" smooth="yes"/>
      <point x="182" y="643" type="line" smooth="yes"/>
      <point x="182" y="667"/>
      <point x="172" y="680"/>
      <point x="144" y="680" type="curve" smooth="yes"/>
      <point x="91" y="680" type="line" smooth="yes"/>
      <point x="64" y="680"/>
      <point x="54" y="667"/>
      <point x="54" y="643" type="curve" smooth="yes"/>
      <point x="54" y="240" type="line" smooth="yes"/>
      <point x="54" y="81"/>
      <point x="178" y="-15"/>
      <point x="358" y="-15" type="curve" smooth="yes"/>
    </contour>
    <contour>
      <point x="251" y="750" type="line" smooth="yes"/>
      <point x="275" y="750"/>
      <point x="282" y="757"/>
      <point x="291" y="771" type="curve" smooth="yes"/>
      <point x="359" y="871" type="line"/>
      <point x="426" y="771" type="line" smooth="yes"/>
      <point x="436" y="757"/>
      <point x="442" y="750"/>
      <point x="467" y="750" type="curve" smooth="yes"/>
      <point x="514" y="750" type="line" smooth="yes"/>
      <point x="534" y="750"/>
      <point x="543" y="763"/>
      <point x="529" y="782" type="curve" smooth="yes"/>
      <point x="425" y="923" type="line" smooth="yes"/>
      <point x="414" y="938"/>
      <point x="410" y="945"/>
      <point x="387" y="945" type="curve" smooth="yes"/>
      <point x="330" y="945" type="line" smooth="yes"/>
      <point x="307" y="945"/>
      <point x="304" y="938"/>
      <point x="292" y="923" type="curve"/>
      <point x="188" y="782" type="line" smooth="yes"/>
      <point x="174" y="763"/>
      <point x="183" y="750"/>
      <point x="204" y="750" type="curve" smooth="yes"/>
    </contour>
  </outline>
</glyph>
<glyph name="Udieresis" format="1">
  <advance width="716"/>
  <unicode hex="00DC"/>
  <note>
	Udieresis
  </note>
  <outline>
    <contour>
      <point x="537" y="-15"/>
      <point x="662" y="81"/>
      <point x="662" y="240" type="curve" smooth="yes"/>
      <point x="662" y="643" type="line" smooth="yes"/>
      <point x="662" y="667"/>
      <point x="651" y="680"/>
      <point x="623" y="680" type="curve" smooth="yes"/>
      <point x="571" y="680" type="line" smooth="yes"/>
      <point x="543" y="680"/>
      <point x="533" y="667"/>
      <point x="533" y="643" type="curve" smooth="yes"/>
      <point x="533" y="237" type="line" smooth="yes"/>
      <point x="533" y="131"/>
      <point x="469" y="79"/>
      <point x="358" y="79" type="curve" smooth="yes"/>
      <point x="246" y="79"/>
      <point x="182" y="131"/>
      <point x="182" y="237" type="curve" smooth="yes"/>
      <point x="182" y="643" type="line" smooth="yes"/>
      <point x="182" y="667"/>
      <point x="172" y="680"/>
      <point x="144" y="680" type="curve" smooth="yes"/>
      <point x="91" y="680" type="line" smooth="yes"/>
      <point x="64" y="680"/>
      <point x="54" y="667"/>
      <point x="54" y="643" type="curve" smooth="yes"/>
      <point x="54" y="240" type="line" smooth="yes"/>
      <point x="54" y="81"/>
      <point x="178" y="-15"/>
      <point x="358" y="-15" type="curve" smooth="yes"/>
    </contour>
    <contour>
      <point x="269" y="741" type="line" smooth="yes"/>
      <point x="298" y="741"/>
      <point x="316" y="764"/>
      <point x="316" y="791" type="curve" smooth="yes"/>
      <point x="316" y="810" type="line" smooth="yes"/>
      <point x="316" y="837"/>
      <point x="297" y="859"/>
      <point x="269" y="859" type="curve" smooth="yes"/>
      <point x="249" y="859" type="line" smooth="yes"/>
      <point x="221" y="859"/>
      <point x="202" y="837"/>
      <point x="202" y="810" type="curve" smooth="yes"/>
      <point x="202" y="791" type="line" smooth="yes"/>
      <point x="202" y="764"/>
      <point x="221" y="741"/>
      <point x="249" y="741" type="curve" smooth="yes"/>
    </contour>
    <contour>
      <point x="466" y="741" type="line" smooth="yes"/>
      <point x="495" y="741"/>
      <point x="513" y="764"/>
      <point x="513" y="791" type="curve" smooth="yes"/>
      <point x="513" y="810" type="line" smooth="yes"/>
      <point x="513" y="837"/>
      <point x="494" y="859"/>
      <point x="466" y="859" type="curve" smooth="yes"/>
      <point x="446" y="859" type="line" smooth="yes"/>
      <point x="419" y="859"/>
      <point x="399" y="837"/>
      <point x="399" y="810" type="curve" smooth="yes"/>
      <point x="399" y="791" type="line" smooth="yes"/>
      <point x="399" y="764"/>
      <point x="419" y="741"/>
      <point x="446" y="741" type="curve" smooth="yes"/>
    </contour>
  </outline>
</glyph>
<glyph name="Yacute" format="1">
  <advance width="708"/>
  <unicode hex="00DD"/>
  <note>
	Yacute
  </note>
  <outline>
    <contour>
      <point x="380" y="0" type="line" smooth="yes"/>
      <point x="408" y="0"/>
      <point x="418" y="12"/>
      <point x="418" y="36" type="curve" smooth="yes"/>
      <point x="418" y="228" type="line"/>
      <point x="665" y="652" type="line" smooth="yes"/>
      <point x="673" y="666"/>
      <point x="669" y="680"/>
      <point x="651" y="680" type="curve" smooth="yes"/>
      <point x="564" y="680" type="line" smooth="yes"/>
      <point x="546" y="680"/>
      <point x="542" y="674"/>
      <point x="536" y="664" type="curve" smooth="yes"/>
      <point x="354" y="346" type="line"/>
      <point x="171" y="664" type="line" smooth="yes"/>
      <point x="165" y="674"/>
      <point x="162" y="680"/>
      <point x="143" y="680" type="curve" smooth="yes"/>
      <point x="57" y="680" type="line" smooth="yes"/>
      <point x="39" y="680"/>
      <point x="35" y="666"/>
      <point x="43" y="652" type="curve" smooth="yes"/>
      <point x="289" y="229" type="line"/>
      <point x="289" y="36" type="line" smooth="yes"/>
      <point x="289" y="12"/>
      <point x="300" y="0"/>
      <point x="327" y="0" type="curve" smooth="yes"/>
    </contour>
    <contour>
      <point x="373" y="753" type="line" smooth="yes"/>
      <point x="399" y="753"/>
      <point x="406" y="758"/>
      <point x="415" y="775" type="curve" smooth="yes"/>
      <point x="481" y="904" type="line" smooth="yes"/>
      <point x="492" y="925"/>
      <point x="482" y="936"/>
      <point x="460" y="936" type="curve" smooth="yes"/>
      <point x="386" y="936" type="line" smooth="yes"/>
      <point x="361" y="936"/>
      <point x="356" y="929"/>
      <point x="349" y="912" type="curve"/>
      <point x="302" y="781" type="line" smooth="yes"/>
      <point x="296" y="764"/>
      <point x="301" y="753"/>
      <point x="321" y="753" type="curve" smooth="yes"/>
    </contour>
  </outline>
</glyph>
<glyph name="aacute" format="1">
  <advance width="615"/>
  <unicode hex="00E1"/>
  <note>
	aacute
  </note>
  <outline>
    <contour>
      <point x="338" y="-15"/>
      <point x="398" y="6"/>
      <point x="440" y="58" type="curve"/>
      <point x="448" y="19" type="line" smooth="yes"/>
      <point x="451" y="6"/>
      <point x="457" y="0"/>
      <point x="472" y="0" type="curve" smooth="yes"/>
      <point x="527" y="0" type="line" smooth="yes"/>
      <point x="549" y="0"/>
      <point x="556" y="7"/>
      <point x="556" y="27" type="curve" smooth="yes"/>
      <point x="556" y="435" type="line"/>
      <point x="506" y="469"/>
      <point x="434" y="495"/>
      <point x="341" y="495" type="curve" smooth="yes"/>
      <point x="157" y="495"/>
      <point x="39" y="382"/>
      <point x="39" y="212" type="curve" smooth="yes"/>
      <point x="39" y="65"/>
      <point x="125" y="-15"/>
      <point x="253" y="-15" type="curve" smooth="yes"/>
    </contour>
    <contour>
      <point x="210" y="76"/>
      <point x="165" y="120"/>
      <point x="165" y="216" type="curve" smooth="yes"/>
      <point x="165" y="335"/>
      <point x="236" y="404"/>
      <point x="340" y="404" type="curve" smooth="yes"/>
      <point x="380" y="404"/>
      <point x="407" y="399"/>
      <point x="435" y="384" type="curve"/>
      <point x="435" y="189" type="line" smooth="yes"/>
      <point x="435" y="117"/>
      <point x="367" y="76"/>
      <point x="301" y="76" type="curve" smooth="yes"/>
    </contour>
    <contour>
      <point x="341" y="555" type="line" smooth="yes"/>
      <point x="367" y="555"/>
      <point x="374" y="560"/>
      <point x="383" y="577" type="curve" smooth="yes"/>
      <point x="449" y="706" type="line" smooth="yes"/>
      <point x="460" y="727"/>
      <point x="450" y="738"/>
      <point x="428" y="738" type="curve" smooth="yes"/>
      <point x="354" y="738" type="line" smooth="yes"/>
      <point x="329" y="738"/>
      <point x="324" y="731"/>
      <point x="317" y="714" type="curve"/>
      <point x="270" y="583" type="line" smooth="yes"/>
      <point x="264" y="566"/>
      <point x="269" y="555"/>
      <point x="289" y="555" type="curve" smooth="yes"/>
    </contour>
  </outline>
</glyph>
<glyph name="acircumflex" format="1">
  <advance width="615"/>
  <unicode hex="00E2"/>
  <note>
	acircumflex
  </note>
  <outline>
    <contour>
      <point x="338" y="-15"/>
      <point x="398" y="6"/>
      <point x="440" y="58" type="curve"/>
      <point x="448" y="19" type="line" smooth="yes"/>
      <point x="451" y="6"/>
      <point x="457" y="0"/>
      <point x="472" y="0" type="curve" smooth="yes"/>
      <point x="527" y="0" type="line" smooth="yes"/>
      <point x="549" y="0"/>
      <point x="556" y="7"/>
      <point x="556" y="27" type="curve" smooth="yes"/>
      <point x="556" y="435" type="line"/>
      <point x="506" y="469"/>
      <point x="434" y="495"/>
      <point x="341" y="495" type="curve" smooth="yes"/>
      <point x="157" y="495"/>
      <point x="39" y="382"/>
      <point x="39" y="212" type="curve" smooth="yes"/>
      <point x="39" y="65"/>
      <point x="125" y="-15"/>
      <point x="253" y="-15" type="curve" smooth="yes"/>
    </contour>
    <contour>
      <point x="210" y="76"/>
      <point x="165" y="120"/>
      <point x="165" y="216" type="curve" smooth="yes"/>
      <point x="165" y="335"/>
      <point x="236" y="404"/>
      <point x="340" y="404" type="curve" smooth="yes"/>
      <point x="380" y="404"/>
      <point x="407" y="399"/>
      <point x="435" y="384" type="curve"/>
      <point x="435" y="189" type="line" smooth="yes"/>
      <point x="435" y="117"/>
      <point x="367" y="76"/>
      <point x="301" y="76" type="curve" smooth="yes"/>
    </contour>
    <contour>
      <point x="218" y="552" type="line" smooth="yes"/>
      <point x="242" y="552"/>
      <point x="249" y="559"/>
      <point x="258" y="573" type="curve" smooth="yes"/>
      <point x="326" y="673" type="line"/>
      <point x="393" y="573" type="line" smooth="yes"/>
      <point x="403" y="559"/>
      <point x="409" y="552"/>
      <point x="434" y="552" type="curve" smooth="yes"/>
      <point x="481" y="552" type="line" smooth="yes"/>
      <point x="501" y="552"/>
      <point x="510" y="565"/>
      <point x="496" y="584" type="curve" smooth="yes"/>
      <point x="392" y="725" type="line" smooth="yes"/>
      <point x="381" y="740"/>
      <point x="377" y="747"/>
      <point x="354" y="747" type="curve" smooth="yes"/>
      <point x="297" y="747" type="line" smooth="yes"/>
      <point x="274" y="747"/>
      <point x="271" y="740"/>
      <point x="259" y="725" type="curve"/>
      <point x="155" y="584" type="line" smooth="yes"/>
      <point x="141" y="565"/>
      <point x="150" y="552"/>
      <point x="171" y="552" type="curve" smooth="yes"/>
    </contour>
  </outline>
</glyph>
<glyph name="ccedilla" format="1">
  <advance width="565"/>
  <unicode hex="00E7"/>
  <note>
	ccedilla
  </note>
  <outline>
    <contour>
      <point x="406" y="-15"/>
      <point x="464" y="3"/>
      <point x="515" y="36" type="curve" smooth="yes"/>
      <point x="527" y="44"/>
      <point x="528" y="50"/>
      <point x="521" y="61" type="curve" smooth="yes"/>
      <point x="492" y="110" type="line" smooth="yes"/>
      <point x="484" y="123"/>
      <point x="480" y="123"/>
      <point x="467" y="115" type="curve" smooth="yes"/>
      <point x="433" y="93"/>
      <point x="394" y="76"/>
      <point x="334" y="76" type="curve" smooth="yes"/>
      <point x="225" y="76"/>
      <point x="165" y="128"/>
      <point x="165" y="238" type="curve" smooth="yes"/>
      <point x="165" y="340"/>
      <point x="225" y="404"/>
      <point x="326" y="404" type="curve" smooth="yes"/>
      <point x="385" y="404"/>
      <point x="422" y="390"/>
      <point x="460" y="366" type="curve" smooth="yes"/>
      <point x="473" y="358"/>
      <point x="478" y="358"/>
      <point x="485" y="370" type="curve" smooth="yes"/>
      <point x="512" y="417" type="line" smooth="yes"/>
      <point x="519" y="429"/>
      <point x="519" y="436"/>
      <point x="508" y="444" type="curve" smooth="yes"/>
      <point x="458" y="479"/>
      <point x="404" y="495"/>
      <point x="319" y="495" type="curve" smooth="yes"/>
      <point x="146" y="495"/>
      <point x="39" y="390"/>
      <point x="39" y="238" type="curve" smooth="yes"/>
      <point x="39" y="73"/>
      <point x="145" y="-15"/>
      <point x="321" y="-15" type="curve" smooth="yes"/>
    </contour>
    <contour>
      <point x="375" y="-229"/>
      <point x="414" y="-195"/>
      <point x="414" y="-146" type="curve" smooth="yes"/>
      <point x="414" y="-99"/>
      <point x="387" y="-76"/>
      <point x="342" y="-72" type="curve"/>
      <point x="365" y="-22" type="line" smooth="yes"/>
      <point x="370" y="-12"/>
      <point x="367" y="-6"/>
      <point x="355" y="-6" type="curve" smooth="yes"/>
      <point x="291" y="-6" type="line" smooth="yes"/>
      <point x="277" y="-6"/>
      <point x="273" y="-9"/>
      <point x="269" y="-20" type="curve" smooth="yes"/>
      <point x="242" y="-88" type="line" smooth="yes"/>
      <point x="238" y="-98"/>
      <point x="242" y="-104"/>
      <point x="252" y="-104" type="curve" smooth="yes"/>
      <point x="267" y="-104" type="line" smooth="yes"/>
      <point x="307" y="-104"/>
      <point x="327" y="-109"/>
      <point x="327" y="-137" type="curve" smooth="yes"/>
      <point x="327" y="-157"/>
      <point x="316" y="-166"/>
      <point x="288" y="-166" type="curve" smooth="yes"/>
      <point x="273" y="-166"/>
      <point x="255" y="-162"/>
      <point x="242" y="-155" type="curve" smooth="yes"/>
      <point x="233" y="-150"/>
      <point x="228" y="-150"/>
      <point x="224" y="-159" type="curve"/>
      <point x="210" y="-194" type="line"/>
      <point x="206" y="-203"/>
      <point x="208" y="-206"/>
      <point x="220" y="-212" type="curve"/>
      <point x="238" y="-222"/>
      <point x="272" y="-229"/>
      <point x="302" y="-229" type="curve" smooth="yes"/>
    </contour>
  </outline>
</glyph>
<glyph name="egrave" format="1">
  <advance width="598"/>
  <unicode hex="00E8"/>
  <note>
	egrave
  </note>
  <outline>
    <contour>
      <point x="400" y="-15"/>
      <point x="461" y="0"/>
      <point x="516" y="34" type="curve" smooth="yes"/>
      <point x="526" y="40"/>
      <point x="528" y="47"/>
      <point x="522" y="58" type="curve" smooth="yes"/>
      <point x="498" y="101" type="line"/>
      <point x="493" y="111"/>
      <point x="488" y="113"/>
      <point x="476" y="106" type="curve" smooth="yes"/>
      <point x="441" y="86"/>
      <point x="396" y="70"/>
      <point x="334" y="70" type="curve" smooth="yes"/>
      <point x="227" y="70"/>
      <point x="160" y="117"/>
      <point x="160" y="207" type="curve"/>
      <point x="527" y="207" type="line" smooth="yes"/>
      <point x="548" y="207"/>
      <point x="559" y="219"/>
      <point x="559" y="242" type="curve" smooth="yes"/>
      <point x="559" y="405"/>
      <point x="474" y="495"/>
      <point x="304" y="495" type="curve" smooth="yes"/>
      <point x="136" y="495"/>
      <point x="39" y="405"/>
      <point x="39" y="232" type="curve" smooth="yes"/>
      <point x="39" y="60"/>
      <point x="168" y="-15"/>
      <point x="318" y="-15" type="curve" smooth="yes"/>
    </contour>
    <contour>
      <point x="160" y="359"/>
      <point x="209" y="413"/>
      <point x="305" y="413" type="curve" smooth="yes"/>
      <point x="399" y="413"/>
      <point x="443" y="362"/>
      <point x="443" y="281" type="curve"/>
      <point x="160" y="281" type="line"/>
    </contour>
    <contour>
      <point x="356" y="555" type="line" smooth="yes"/>
      <point x="377" y="555"/>
      <point x="382" y="566"/>
      <point x="376" y="583" type="curve" smooth="yes"/>
      <point x="328" y="714" type="line" smooth="yes"/>
      <point x="322" y="732"/>
      <point x="317" y="738"/>
      <point x="291" y="738" type="curve" smooth="yes"/>
      <point x="218" y="738" type="line" smooth="yes"/>
      <point x="196" y="738"/>
      <point x="186" y="727"/>
      <point x="197" y="706" type="curve" smooth="yes"/>
      <point x="263" y="577" type="line" smooth="yes"/>
      <point x="272" y="560"/>
      <point x="279" y="555"/>
      <point x="304" y="555" type="curve" smooth="yes"/>
    </contour>
  </outline>
</glyph>
<glyph name="igrave" format="1">
  <advance width="244"/>
  <unicode hex="00EC"/>
  <note>
	igrave
  </note>
  <outline>
    <contour>
      <point x="145" y="0" type="line" smooth="yes"/>
      <point x="173" y="0"/>
      <point x="183" y="12"/>
      <point x="183" y="36" type="curve" smooth="yes"/>
      <point x="183" y="443" type="line" smooth="yes"/>
      <point x="183" y="467"/>
      <point x="173" y="480"/>
      <point x="145" y="480" type="curve" smooth="yes"/>
      <point x="92" y="480" type="line" smooth="yes"/>
      <point x="65" y="480"/>
      <point x="55" y="467"/>
      <point x="55" y="443" type="curve" smooth="yes"/>
      <point x="55" y="36" type="line" smooth="yes"/>
      <point x="55" y="12"/>
      <point x="65" y="0"/>
      <point x="92" y="0" type="curve" smooth="yes"/>
    </contour>
    <contour>
      <point x="156" y="555" type="line" smooth="yes"/>
      <point x="177" y="555"/>
      <point x="182" y="566"/>
      <point x="176" y="583" type="curve" smooth="yes"/>
      <point x="128" y="714" type="line" smooth="yes"/>
      <point x="122" y="732"/>
      <point x="117" y="738"/>
      <point x="91" y="738" type="curve" smooth="yes"/>
      <point x="18" y="738" type="line" smooth="yes"/>
      <point x="-4" y="738"/>
      <point x="-14" y="727"/>
      <point x="-3" y="706" type="curve" smooth="yes"/>
      <point x="63" y="577" type="line" smooth="yes"/>
      <point x="72" y="560"/>
      <point x="79" y="555"/>
      <point x="104" y="555" type="curve" smooth="yes"/>
    </contour>
  </outline>
</glyph>
<glyph name="icircumflex" format="1">
  <advance width="246"/>
  <unicode hex="00EE"/>
  <note>
	icircumflex
  </note>
  <outline>
    <contour>
      <point x="14" y="544" type="line" smooth="yes"/>
      <point x="38" y="544"/>
      <point x="45" y="551"/>
      <point x="54" y="565" type="curve" smooth="yes"/>
      <point x="122" y="665" type="line"/>
      <point x="189" y="565" type="line" smooth="yes"/>
      <point x="199" y="551"/>
      <point x="205" y="544"/>
      <point x="230" y="544" type="curve" smooth="yes"/>
      <point x="277" y="544" type="line" smooth="yes"/>
      <point x="297" y="544"/>
      <point x="306" y="557"/>
      <point x="292" y="576" type="curve" smooth="yes"/>
      <point x="188" y="717" type="line" smooth="yes"/>
      <point x="177" y="732"/>
      <point x="173" y="739"/>
      <point x="150" y="739" type="curve" smooth="yes"/>
      <point x="93" y="739" type="line" smooth="yes"/>
      <point x="70" y="739"/>
      <point x="67" y="732"/>
      <point x="55" y="717" type="curve"/>
      <point x="-49" y="576" type="line" smooth="yes"/>
      <point x="-63" y="557"/>
      <point x="-54" y="544"/>
      <point x="-33" y="544" type="curve" smooth="yes"/>
    </contour>
    <contour>
      <point x="149" y="0" type="line" smooth="yes"/>
      <point x="177" y="0"/>
      <point x="187" y="12"/>
      <point x="187" y="36" type="curve" smooth="yes"/>
      <point x="187" y="443" type="line" smooth="yes"/>
      <point x="187" y="467"/>
      <point x="177" y="480"/>
      <point x="149" y="480" type="curve" smooth="yes"/>
      <point x="96" y="480" type="line" smooth="yes"/>
      <point x="69" y="480"/>
      <point x="59" y="467"/>
      <point x="59" y="443" type="curve" smooth="yes"/>
      <point x="59" y="36" type="line" smooth="yes"/>
      <point x="59" y="12"/>
      <point x="69" y="0"/>
      <point x="96" y="0" type="curve" smooth="yes"/>
    </contour>
  </outline>
</glyph>
<glyph name="idieresis" format="1">
  <advance width="246"/>
  <unicode hex="00EF"/>
  <note>
	idieresis
  </note>
  <outline>
    <contour>
      <point x="149" y="0" type="line" smooth="yes"/>
      <point x="177" y="0"/>
      <point x="187" y="12"/>
      <point x="187" y="36" type="curve" smooth="yes"/>
      <point x="187" y="443" type="line" smooth="yes"/>
      <point x="187" y="467"/>
      <point x="177" y="480"/>
      <point x="149" y="480" type="curve" smooth="yes"/>
      <point x="96" y="480" type="line" smooth="yes"/>
      <point x="69" y="480"/>
      <point x="59" y="467"/>
      <point x="59" y="443" type="curve" smooth="yes"/>
      <point x="59" y="36" type="line" smooth="yes"/>
      <point x="59" y="12"/>
      <point x="69" y="0"/>
      <point x="96" y="0" type="curve" smooth="yes"/>
    </contour>
    <contour>
      <point x="38" y="543" type="line" smooth="yes"/>
      <point x="67" y="543"/>
      <point x="85" y="566"/>
      <point x="85" y="593" type="curve" smooth="yes"/>
      <point x="85" y="612" type="line" smooth="yes"/>
      <point x="85" y="639"/>
      <point x="66" y="661"/>
      <point x="38" y="661" type="curve" smooth="yes"/>
      <point x="18" y="661" type="line" smooth="yes"/>
      <point x="-10" y="661"/>
      <point x="-29" y="639"/>
      <point x="-29" y="612" type="curve" smooth="yes"/>
      <point x="-29" y="593" type="line" smooth="yes"/>
      <point x="-29" y="566"/>
      <point x="-10" y="543"/>
      <point x="18" y="543" type="curve" smooth="yes"/>
    </contour>
    <contour>
      <point x="235" y="543" type="line" smooth="yes"/>
      <point x="264" y="543"/>
      <point x="282" y="566"/>
      <point x="282" y="593" type="curve" smooth="yes"/>
      <point x="282" y="612" type="line" smooth="yes"/>
      <point x="282" y="639"/>
      <point x="263" y="661"/>
      <point x="235" y="661" type="curve" smooth="yes"/>
      <point x="215" y="661" type="line" smooth="yes"/>
      <point x="188" y="661"/>
      <point x="168" y="639"/>
      <point x="168" y="612" type="curve" smooth="yes"/>
      <point x="168" y="593" type="line" smooth="yes"/>
      <point x="168" y="566"/>
      <point x="188" y="543"/>
      <point x="215" y="543" type="curve" smooth="yes"/>
    </contour>
  </outline>
</glyph>
<glyph name="ntilde" format="1">
  <advance width="603"/>
  <unicode hex="00F1"/>
  <note>
	ntilde
  </note>
  <outline>
    <contour>
      <point x="149" y="0" type="line" smooth="yes"/>
      <point x="177" y="0"/>
      <point x="187" y="12"/>
      <point x="187" y="36" type="curve" smooth="yes"/>
      <point x="187" y="301" type="line" smooth="yes"/>
      <point x="187" y="363"/>
      <point x="251" y="403"/>
      <point x="319" y="403" type="curve" smooth="yes"/>
      <point x="384" y="403"/>
      <point x="414" y="380"/>
      <point x="414" y="313" type="curve" smooth="yes"/>
      <point x="414" y="36" type="line" smooth="yes"/>
      <point x="414" y="12"/>
      <point x="424" y="0"/>
      <point x="452" y="0" type="curve" smooth="yes"/>
      <point x="505" y="0" type="line" smooth="yes"/>
      <point x="532" y="0"/>
      <point x="542" y="12"/>
      <point x="542" y="36" type="curve" smooth="yes"/>
      <point x="542" y="321" type="line" smooth="yes"/>
      <point x="542" y="442"/>
      <point x="465" y="495"/>
      <point x="362" y="495" type="curve" smooth="yes"/>
      <point x="272" y="495"/>
      <point x="208" y="465"/>
      <point x="167" y="420" type="curve"/>
      <point x="165" y="460" type="line" smooth="yes"/>
      <point x="164" y="474"/>
      <point x="157" y="480"/>
      <point x="142" y="480" type="curve" smooth="yes"/>
      <point x="85" y="480" type="line" smooth="yes"/>
      <point x="63" y="480"/>
      <point x="59" y="472"/>
      <point x="59" y="453" type="curve" smooth="yes"/>
      <point x="59" y="36" type="line" smooth="yes"/>
      <point x="59" y="12"/>
      <point x="69" y="0"/>
      <point x="97" y="0" type="curve" smooth="yes"/>
    </contour>
    <contour>
      <point x="453" y="576"/>
      <point x="484" y="599"/>
      <point x="516" y="647" type="curve"/>
      <point x="532" y="669"/>
      <point x="530" y="682"/>
      <point x="504" y="702" type="curve" smooth="yes"/>
      <point x="479" y="722"/>
      <point x="463" y="724"/>
      <point x="450" y="707" type="curve" smooth="yes"/>
      <point x="429" y="679"/>
      <point x="415" y="670"/>
      <point x="388" y="670" type="curve" smooth="yes"/>
      <point x="331" y="670"/>
      <point x="290" y="722"/>
      <point x="209" y="722" type="curve" smooth="yes"/>
      <point x="159" y="722"/>
      <point x="129" y="694"/>
      <point x="101" y="659" type="curve" smooth="yes"/>
      <point x="85" y="638"/>
      <point x="86" y="625"/>
      <point x="108" y="606" type="curve" smooth="yes"/>
      <point x="132" y="585"/>
      <point x="148" y="581"/>
      <point x="161" y="597" type="curve"/>
      <point x="181" y="619"/>
      <point x="192" y="629"/>
      <point x="220" y="629" type="curve" smooth="yes"/>
      <point x="273" y="629"/>
      <point x="328" y="576"/>
      <point x="395" y="576" type="curve" smooth="yes"/>
    </contour>
  </outline>
</glyph>
<glyph name="oacute" format="1">
  <advance width="621"/>
  <unicode hex="00F3"/>
  <note>
	oacute
  </note>
  <outline>
    <contour>
      <point x="486" y="-15"/>
      <point x="582" y="85"/>
      <point x="582" y="240" type="curve" smooth="yes"/>
      <point x="582" y="394"/>
      <point x="486" y="495"/>
      <point x="310" y="495" type="curve" smooth="yes"/>
      <point x="134" y="495"/>
      <point x="39" y="394"/>
      <point x="39" y="240" type="curve" smooth="yes"/>
      <point x="39" y="85"/>
      <point x="134" y="-15"/>
      <point x="310" y="-15" type="curve" smooth="yes"/>
    </contour>
    <contour>
      <point x="217" y="79"/>
      <point x="165" y="135"/>
      <point x="165" y="240" type="curve" smooth="yes"/>
      <point x="165" y="345"/>
      <point x="217" y="399"/>
      <point x="310" y="399" type="curve" smooth="yes"/>
      <point x="404" y="399"/>
      <point x="455" y="345"/>
      <point x="455" y="240" type="curve" smooth="yes"/>
      <point x="455" y="135"/>
      <point x="404" y="79"/>
      <point x="310" y="79" type="curve" smooth="yes"/>
    </contour>
    <contour>
      <point x="313" y="555" type="line" smooth="yes"/>
      <point x="339" y="555"/>
      <point x="346" y="560"/>
      <point x="355" y="577" type="curve" smooth="yes"/>
      <point x="421" y="706" type="line" smooth="yes"/>
      <point x="432" y="727"/>
      <point x="422" y="738"/>
      <point x="400" y="738" type="curve" smooth="yes"/>
      <point x="326" y="738" type="line" smooth="yes"/>
      <point x="301" y="738"/>
      <point x="296" y="731"/>
      <point x="289" y="714" type="curve"/>
      <point x="242" y="583" type="line" smooth="yes"/>
      <point x="236" y="566"/>
      <point x="241" y="555"/>
      <point x="261" y="555" type="curve" smooth="yes"/>
    </contour>
  </outline>
</glyph>
<glyph name="odieresis" format="1">
  <advance width="621"/>
  <unicode hex="00F6"/>
  <note>
	odieresis
  </note>
  <outline>
    <contour>
      <point x="486" y="-15"/>
      <point x="582" y="85"/>
      <point x="582" y="240" type="curve" smooth="yes"/>
      <point x="582" y="394"/>
      <point x="486" y="495"/>
      <point x="310" y="495" type="curve" smooth="yes"/>
      <point x="134" y="495"/>
      <point x="39" y="394"/>
      <point x="39" y="240" type="curve" smooth="yes"/>
      <point x="39" y="85"/>
      <point x="134" y="-15"/>
      <point x="310" y="-15" type="curve" smooth="yes"/>
    </contour>
    <contour>
      <point x="217" y="79"/>
      <point x="165" y="135"/>
      <point x="165" y="240" type="curve" smooth="yes"/>
      <point x="165" y="345"/>
      <point x="217" y="399"/>
      <point x="310" y="399" type="curve" smooth="yes"/>
      <point x="404" y="399"/>
      <point x="455" y="345"/>
      <point x="455" y="240" type="curve" smooth="yes"/>
      <point x="455" y="135"/>
      <point x="404" y="79"/>
      <point x="310" y="79" type="curve" smooth="yes"/>
    </contour>
    <contour>
      <point x="221" y="551" type="line" smooth="yes"/>
      <point x="250" y="551"/>
      <point x="268" y="574"/>
      <point x="268" y="601" type="curve" smooth="yes"/>
      <point x="268" y="620" type="line" smooth="yes"/>
      <point x="268" y="647"/>
      <point x="249" y="669"/>
      <point x="221" y="669" type="curve" smooth="yes"/>
      <point x="201" y="669" type="line" smooth="yes"/>
      <point x="173" y="669"/>
      <point x="154" y="647"/>
      <point x="154" y="620" type="curve" smooth="yes"/>
      <point x="154" y="601" type="line" smooth="yes"/>
      <point x="154" y="574"/>
      <point x="173" y="551"/>
      <point x="201" y="551" type="curve" smooth="yes"/>
    </contour>
    <contour>
      <point x="418" y="551" type="line" smooth="yes"/>
      <point x="447" y="551"/>
      <point x="465" y="574"/>
      <point x="465" y="601" type="curve" smooth="yes"/>
      <point x="465" y="620" type="line" smooth="yes"/>
      <point x="465" y="647"/>
      <point x="446" y="669"/>
      <point x="418" y="669" type="curve" smooth="yes"/>
      <point x="398" y="669" type="line" smooth="yes"/>
      <point x="371" y="669"/>
      <point x="351" y="647"/>
      <point x="351" y="620" type="curve" smooth="yes"/>
      <point x="351" y="601" type="line" smooth="yes"/>
      <point x="351" y="574"/>
      <point x="371" y="551"/>
      <point x="398" y="551" type="curve" smooth="yes"/>
    </contour>
  </outline>
</glyph>
<glyph name="divide" format="1">
  <advance width="471"/>
  <unicode hex="00F7"/>
  <note>
	divide
  </note>
  <outline>
    <contour>
      <point x="403" y="250" type="line" smooth="yes"/>
      <point x="424" y="250"/>
      <point x="432" y="260"/>
      <point x="432" y="280" type="curve" smooth="yes"/>
      <point x="432" y="317" type="line" smooth="yes"/>
      <point x="432" y="337"/>
      <point x="424" y="347"/>
      <point x="403" y="347" type="curve" smooth="yes"/>
      <point x="68" y="347" type="line" smooth="yes"/>
      <point x="46" y="347"/>
      <point x="39" y="337"/>
      <point x="39" y="317" type="curve" smooth="yes"/>
      <point x="39" y="280" type="line" smooth="yes"/>
      <point x="39" y="260"/>
      <point x="46" y="250"/>
      <point x="68" y="250" type="curve" smooth="yes"/>
    </contour>
    <contour>
      <point x="242" y="100" type="line" smooth="yes"/>
      <point x="268" y="100"/>
      <point x="285" y="121"/>
      <point x="285" y="145" type="curve" smooth="yes"/>
      <point x="285" y="163" type="line" smooth="yes"/>
      <point x="285" y="188"/>
      <point x="267" y="207"/>
      <point x="242" y="207" type="curve" smooth="yes"/>
      <point x="224" y="207" type="line" smooth="yes"/>
      <point x="199" y="207"/>
      <point x="181" y="188"/>
      <point x="181" y="163" type="curve" smooth="yes"/>
      <point x="181" y="145" type="line" smooth="yes"/>
      <point x="181" y="121"/>
      <point x="199" y="100"/>
      <point x="224" y="100" type="curve" smooth="yes"/>
    </contour>
    <contour>
      <point x="242" y="390" type="line" smooth="yes"/>
      <point x="268" y="390"/>
      <point x="285" y="410"/>
      <point x="285" y="434" type="curve" smooth="yes"/>
      <point x="285" y="453" type="line" smooth="yes"/>
      <point x="285" y="477"/>
      <point x="267" y="497"/>
      <point x="242" y="497" type="curve" smooth="yes"/>
      <point x="224" y="497" type="line" smooth="yes"/>
      <point x="199" y="497"/>
      <point x="181" y="477"/>
      <point x="181" y="453" type="curve" smooth="yes"/>
      <point x="181" y="434" type="line" smooth="yes"/>
      <point x="181" y="410"/>
      <point x="199" y="390"/>
      <point x="224" y="390" type="curve" smooth="yes"/>
    </contour>
  </outline>
</glyph>
<glyph name="uacute" format="1">
  <advance width="590"/>
  <unicode hex="00FA"/>
  <note>
	uacute
  </note>
  <outline>
    <contour>
      <point x="324" y="-15"/>
      <point x="382" y="15"/>
      <point x="423" y="61" type="curve"/>
      <point x="427" y="19" type="line" smooth="yes"/>
      <point x="428" y="5"/>
      <point x="434" y="0"/>
      <point x="449" y="0" type="curve" smooth="yes"/>
      <point x="505" y="0" type="line" smooth="yes"/>
      <point x="527" y="0"/>
      <point x="531" y="7"/>
      <point x="531" y="27" type="curve" smooth="yes"/>
      <point x="531" y="443" type="line" smooth="yes"/>
      <point x="531" y="467"/>
      <point x="521" y="480"/>
      <point x="493" y="480" type="curve" smooth="yes"/>
      <point x="441" y="480" type="line" smooth="yes"/>
      <point x="413" y="480"/>
      <point x="403" y="467"/>
      <point x="403" y="443" type="curve" smooth="yes"/>
      <point x="403" y="180" type="line" smooth="yes"/>
      <point x="403" y="117"/>
      <point x="349" y="76"/>
      <point x="281" y="76" type="curve" smooth="yes"/>
      <point x="217" y="76"/>
      <point x="182" y="103"/>
      <point x="182" y="169" type="curve" smooth="yes"/>
      <point x="182" y="443" type="line" smooth="yes"/>
      <point x="182" y="467"/>
      <point x="172" y="480"/>
      <point x="144" y="480" type="curve" smooth="yes"/>
      <point x="91" y="480" type="line" smooth="yes"/>
      <point x="64" y="480"/>
      <point x="54" y="467"/>
      <point x="54" y="443" type="curve" smooth="yes"/>
      <point x="54" y="166" type="line" smooth="yes"/>
      <point x="54" y="42"/>
      <point x="131" y="-15"/>
      <point x="236" y="-15" type="curve" smooth="yes"/>
    </contour>
    <contour>
      <point x="302" y="555" type="line" smooth="yes"/>
      <point x="328" y="555"/>
      <point x="335" y="560"/>
      <point x="344" y="577" type="curve" smooth="yes"/>
      <point x="410" y="706" type="line" smooth="yes"/>
      <point x="421" y="727"/>
      <point x="411" y="738"/>
      <point x="389" y="738" type="curve" smooth="yes"/>
      <point x="315" y="738" type="line" smooth="yes"/>
      <point x="290" y="738"/>
      <point x="285" y="731"/>
      <point x="278" y="714" type="curve"/>
      <point x="231" y="583" type="line" smooth="yes"/>
      <point x="225" y="566"/>
      <point x="230" y="555"/>
      <point x="250" y="555" type="curve" smooth="yes"/>
    </contour>
  </outline>
</glyph>
<glyph name="yacute" format="1">
  <advance width="595"/>
  <unicode hex="00FD"/>
  <note>
	yacute
  </note>
  <outline>
    <contour>
      <point x="278" y="-156"/>
      <point x="315" y="-96"/>
      <point x="384" y="51" type="curve" smooth="yes"/>
      <point x="572" y="452" type="line" smooth="yes"/>
      <point x="579" y="466"/>
      <point x="577" y="480"/>
      <point x="560" y="480" type="curve" smooth="yes"/>
      <point x="475" y="480" type="line" smooth="yes"/>
      <point x="457" y="480"/>
      <point x="451" y="475"/>
      <point x="445" y="461" type="curve" smooth="yes"/>
      <point x="311" y="147" type="line"/>
      <point x="177" y="461" type="line" smooth="yes"/>
      <point x="171" y="475"/>
      <point x="165" y="480"/>
      <point x="147" y="480" type="curve" smooth="yes"/>
      <point x="62" y="480" type="line" smooth="yes"/>
      <point x="45" y="480"/>
      <point x="43" y="466"/>
      <point x="50" y="452" type="curve" smooth="yes"/>
      <point x="252" y="22" type="line"/>
      <point x="230" y="-34"/>
      <point x="212" y="-63"/>
      <point x="170" y="-63" type="curve" smooth="yes"/>
      <point x="138" y="-63"/>
      <point x="118" y="-54"/>
      <point x="98" y="-39" type="curve" smooth="yes"/>
      <point x="87" y="-31"/>
      <point x="81" y="-31"/>
      <point x="74" y="-43" type="curve" smooth="yes"/>
      <point x="46" y="-91" type="line" smooth="yes"/>
      <point x="40" y="-101"/>
      <point x="40" y="-107"/>
      <point x="50" y="-115" type="curve" smooth="yes"/>
      <point x="79" y="-139"/>
      <point x="122" y="-156"/>
      <point x="175" y="-156" type="curve" smooth="yes"/>
    </contour>
    <contour>
      <point x="317" y="563" type="line" smooth="yes"/>
      <point x="343" y="563"/>
      <point x="350" y="568"/>
      <point x="359" y="585" type="curve" smooth="yes"/>
      <point x="425" y="714" type="line" smooth="yes"/>
      <point x="436" y="735"/>
      <point x="426" y="746"/>
      <point x="404" y="746" type="curve" smooth="yes"/>
      <point x="330" y="746" type="line" smooth="yes"/>
      <point x="305" y="746"/>
      <point x="300" y="739"/>
      <point x="293" y="722" type="curve"/>
      <point x="246" y="591" type="line" smooth="yes"/>
      <point x="240" y="574"/>
      <point x="245" y="563"/>
      <point x="265" y="563" type="curve" smooth="yes"/>
    </contour>
  </outline>
</glyph>
<glyph name="Abreve" format="1">
  <advance width="733"/>
  <unicode hex="0102"/>
  <note>
	Abreve
  </note>
  <outline>
    <contour>
      <point x="143" y="0" type="line" smooth="yes"/>
      <point x="161" y="0"/>
      <point x="166" y="4"/>
      <point x="172" y="18" type="curve" smooth="yes"/>
      <point x="228" y="158" type="line"/>
      <point x="504" y="158" type="line"/>
      <point x="561" y="18" type="line" smooth="yes"/>
      <point x="567" y="4"/>
      <point x="572" y="0"/>
      <point x="590" y="0" type="curve" smooth="yes"/>
      <point x="677" y="0" type="line" smooth="yes"/>
      <point x="693" y="0"/>
      <point x="698" y="12"/>
      <point x="691" y="28" type="curve" smooth="yes"/>
      <point x="427" y="654" type="line" smooth="yes"/>
      <point x="419" y="673"/>
      <point x="413" y="680"/>
      <point x="394" y="680" type="curve" smooth="yes"/>
      <point x="339" y="680" type="line" smooth="yes"/>
      <point x="321" y="680"/>
      <point x="314" y="673"/>
      <point x="306" y="654" type="curve" smooth="yes"/>
      <point x="42" y="28" type="line" smooth="yes"/>
      <point x="35" y="12"/>
      <point x="40" y="0"/>
      <point x="56" y="0" type="curve" smooth="yes"/>
    </contour>
    <contour>
      <point x="366" y="513" type="line"/>
      <point x="472" y="251" type="line"/>
      <point x="260" y="251" type="line"/>
    </contour>
    <contour>
      <point x="477" y="756"/>
      <point x="531" y="825"/>
      <point x="531" y="919" type="curve" smooth="yes"/>
      <point x="531" y="930"/>
      <point x="525" y="937"/>
      <point x="515" y="937" type="curve" smooth="yes"/>
      <point x="449" y="937" type="line" smooth="yes"/>
      <point x="435" y="937"/>
      <point x="432" y="930"/>
      <point x="432" y="918" type="curve" smooth="yes"/>
      <point x="432" y="874"/>
      <point x="417" y="843"/>
      <point x="366" y="843" type="curve" smooth="yes"/>
      <point x="314" y="843"/>
      <point x="300" y="874"/>
      <point x="300" y="918" type="curve" smooth="yes"/>
      <point x="300" y="930"/>
      <point x="297" y="937"/>
      <point x="283" y="937" type="curve" smooth="yes"/>
      <point x="217" y="937" type="line" smooth="yes"/>
      <point x="207" y="937"/>
      <point x="201" y="930"/>
      <point x="201" y="919" type="curve" smooth="yes"/>
      <point x="201" y="825"/>
      <point x="253" y="756"/>
      <point x="366" y="756" type="curve" smooth="yes"/>
    </contour>
  </outline>
</glyph>
<glyph name="abreve" format="1">
  <advance width="615"/>
  <unicode hex="0103"/>
  <note>
	abreve
  </note>
  <outline>
    <contour>
      <point x="338" y="-15"/>
      <point x="398" y="6"/>
      <point x="440" y="58" type="curve"/>
      <point x="448" y="19" type="line" smooth="yes"/>
      <point x="451" y="6"/>
      <point x="457" y="0"/>
      <point x="472" y="0" type="curve" smooth="yes"/>
      <point x="527" y="0" type="line" smooth="yes"/>
      <point x="549" y="0"/>
      <point x="556" y="7"/>
      <point x="556" y="27" type="curve" smooth="yes"/>
      <point x="556" y="435" type="line"/>
      <point x="506" y="469"/>
      <point x="434" y="495"/>
      <point x="341" y="495" type="curve" smooth="yes"/>
      <point x="157" y="495"/>
      <point x="39" y="382"/>
      <point x="39" y="212" type="curve" smooth="yes"/>
      <point x="39" y="65"/>
      <point x="125" y="-15"/>
      <point x="253" y="-15" type="curve" smooth="yes"/>
    </contour>
    <contour>
      <point x="210" y="76"/>
      <point x="165" y="120"/>
      <point x="165" y="216" type="curve" smooth="yes"/>
      <point x="165" y="335"/>
      <point x="236" y="404"/>
      <point x="340" y="404" type="curve" smooth="yes"/>
      <point x="380" y="404"/>
      <point x="407" y="399"/>
      <point x="435" y="384" type="curve"/>
      <point x="435" y="189" type="line" smooth="yes"/>
      <point x="435" y="117"/>
      <point x="367" y="76"/>
      <point x="301" y="76" type="curve" smooth="yes"/>
    </contour>
    <contour>
      <point x="449" y="562"/>
      <point x="503" y="631"/>
      <point x="503" y="725" type="curve" smooth="yes"/>
      <point x="503" y="736"/>
      <point x="497" y="743"/>
      <point x="487" y="743" type="curve" smooth="yes"/>
      <point x="421" y="743" type="line" smooth="yes"/>
      <point x="407" y="743"/>
      <point x="404" y="736"/>
      <point x="404" y="724" type="curve" smooth="yes"/>
      <point x="404" y="680"/>
      <point x="389" y="649"/>
      <point x="338" y="649" type="curve" smooth="yes"/>
      <point x="286" y="649"/>
      <point x="272" y="680"/>
      <point x="272" y="724" type="curve" smooth="yes"/>
      <point x="272" y="736"/>
      <point x="269" y="743"/>
      <point x="255" y="743" type="curve" smooth="yes"/>
      <point x="189" y="743" type="line" smooth="yes"/>
      <point x="179" y="743"/>
      <point x="173" y="736"/>
      <point x="173" y="725" type="curve" smooth="yes"/>
      <point x="173" y="631"/>
      <point x="225" y="562"/>
      <point x="338" y="562" type="curve" smooth="yes"/>
    </contour>
  </outline>
</glyph>
<glyph name="Ccircumflex" format="1">
  <advance width="677"/>
  <unicode hex="0108"/>
  <note>
	Ccircumflex
  </note>
  <outline>
    <contour>
      <point x="496" y="-15"/>
      <point x="574" y="1"/>
      <point x="628" y="39" type="curve" smooth="yes"/>
      <point x="640" y="47"/>
      <point x="642" y="51"/>
      <point x="636" y="62" type="curve"/>
      <point x="605" y="114" type="line" smooth="yes"/>
      <point x="598" y="126"/>
      <point x="592" y="125"/>
      <point x="580" y="118" type="curve" smooth="yes"/>
      <point x="537" y="93"/>
      <point x="485" y="79"/>
      <point x="409" y="79" type="curve" smooth="yes"/>
      <point x="267" y="79"/>
      <point x="165" y="156"/>
      <point x="165" y="340" type="curve" smooth="yes"/>
      <point x="165" y="519"/>
      <point x="260" y="600"/>
      <point x="406" y="600" type="curve" smooth="yes"/>
      <point x="478" y="600"/>
      <point x="532" y="583"/>
      <point x="567" y="562" type="curve"/>
      <point x="580" y="555"/>
      <point x="585" y="554"/>
      <point x="592" y="566" type="curve" smooth="yes"/>
      <point x="620" y="614" type="line" smooth="yes"/>
      <point x="627" y="626"/>
      <point x="627" y="634"/>
      <point x="616" y="641" type="curve" smooth="yes"/>
      <point x="563" y="676"/>
      <point x="482" y="695"/>
      <point x="392" y="695" type="curve" smooth="yes"/>
      <point x="166" y="695"/>
      <point x="39" y="568"/>
      <point x="39" y="340" type="curve" smooth="yes"/>
      <point x="39" y="111"/>
      <point x="170" y="-15"/>
      <point x="395" y="-15" type="curve" smooth="yes"/>
    </contour>
    <contour>
      <point x="274" y="738" type="line" smooth="yes"/>
      <point x="298" y="738"/>
      <point x="305" y="745"/>
      <point x="314" y="759" type="curve" smooth="yes"/>
      <point x="382" y="859" type="line"/>
      <point x="449" y="759" type="line" smooth="yes"/>
      <point x="459" y="745"/>
      <point x="465" y="738"/>
      <point x="490" y="738" type="curve" smooth="yes"/>
      <point x="537" y="738" type="line" smooth="yes"/>
      <point x="557" y="738"/>
      <point x="566" y="751"/>
      <point x="552" y="770" type="curve" smooth="yes"/>
      <point x="448" y="911" type="line" smooth="yes"/>
      <point x="437" y="926"/>
      <point x="433" y="933"/>
      <point x="410" y="933" type="curve" smooth="yes"/>
      <point x="353" y="933" type="line" smooth="yes"/>
      <point x="330" y="933"/>
      <point x="327" y="926"/>
      <point x="315" y="911" type="curve"/>
      <point x="211" y="770" type="line" smooth="yes"/>
      <point x="197" y="751"/>
      <point x="206" y="738"/>
      <point x="227" y="738" type="curve" smooth="yes"/>
    </contour>
  </outline>
</glyph>
<glyph name="ccircumflex" format="1">
  <advance width="565"/>
  <unicode hex="0109"/>
  <note>
	ccircumflex
  </note>
  <outline>
    <contour>
      <point x="406" y="-15"/>
      <point x="464" y="3"/>
      <point x="515" y="36" type="curve" smooth="yes"/>
      <point x="527" y="44"/>
      <point x="528" y="50"/>
      <point x="521" y="61" type="curve" smooth="yes"/>
      <point x="492" y="110" type="line" smooth="yes"/>
      <point x="484" y="123"/>
      <point x="480" y="123"/>
      <point x="467" y="115" type="curve" smooth="yes"/>
      <point x="433" y="93"/>
      <point x="394" y="76"/>
      <point x="334" y="76" type="curve" smooth="yes"/>
      <point x="225" y="76"/>
      <point x="165" y="128"/>
      <point x="165" y="238" type="curve" smooth="yes"/>
      <point x="165" y="340"/>
      <point x="225" y="404"/>
      <point x="326" y="404" type="curve" smooth="yes"/>
      <point x="385" y="404"/>
      <point x="422" y="390"/>
      <point x="460" y="366" type="curve" smooth="yes"/>
      <point x="473" y="358"/>
      <point x="478" y="358"/>
      <point x="485" y="370" type="curve" smooth="yes"/>
      <point x="512" y="417" type="line" smooth="yes"/>
      <point x="519" y="429"/>
      <point x="519" y="436"/>
      <point x="508" y="444" type="curve" smooth="yes"/>
      <point x="458" y="479"/>
      <point x="404" y="495"/>
      <point x="319" y="495" type="curve" smooth="yes"/>
      <point x="146" y="495"/>
      <point x="39" y="390"/>
      <point x="39" y="238" type="curve" smooth="yes"/>
      <point x="39" y="73"/>
      <point x="145" y="-15"/>
      <point x="321" y="-15" type="curve" smooth="yes"/>
    </contour>
    <contour>
      <point x="206" y="552" type="line" smooth="yes"/>
      <point x="230" y="552"/>
      <point x="237" y="559"/>
      <point x="246" y="573" type="curve" smooth="yes"/>
      <point x="314" y="673" type="line"/>
      <point x="381" y="573" type="line" smooth="yes"/>
      <point x="391" y="559"/>
      <point x="397" y="552"/>
      <point x="422" y="552" type="curve" smooth="yes"/>
      <point x="469" y="552" type="line" smooth="yes"/>
      <point x="489" y="552"/>
      <point x="498" y="565"/>
      <point x="484" y="584" type="curve" smooth="yes"/>
      <point x="380" y="725" type="line" smooth="yes"/>
      <point x="369" y="740"/>
      <point x="365" y="747"/>
      <point x="342" y="747" type="curve" smooth="yes"/>
      <point x="285" y="747" type="line" smooth="yes"/>
      <point x="262" y="747"/>
      <point x="259" y="740"/>
      <point x="247" y="725" type="curve"/>
      <point x="143" y="584" type="line" smooth="yes"/>
      <point x="129" y="565"/>
      <point x="138" y="552"/>
      <point x="159" y="552" type="curve" smooth="yes"/>
    </contour>
  </outline>
</glyph>
<glyph name="Cdotaccent" format="1">
  <advance width="677"/>
  <unicode hex="010A"/>
  <note>
	Cdotaccent
  </note>
  <outline>
    <contour>
      <point x="496" y="-15"/>
      <point x="574" y="1"/>
      <point x="628" y="39" type="curve" smooth="yes"/>
      <point x="640" y="47"/>
      <point x="642" y="51"/>
      <point x="636" y="62" type="curve"/>
      <point x="605" y="114" type="line" smooth="yes"/>
      <point x="598" y="126"/>
      <point x="592" y="125"/>
      <point x="580" y="118" type="curve" smooth="yes"/>
      <point x="537" y="93"/>
      <point x="485" y="79"/>
      <point x="409" y="79" type="curve" smooth="yes"/>
      <point x="267" y="79"/>
      <point x="165" y="156"/>
      <point x="165" y="340" type="curve" smooth="yes"/>
      <point x="165" y="519"/>
      <point x="260" y="600"/>
      <point x="406" y="600" type="curve" smooth="yes"/>
      <point x="478" y="600"/>
      <point x="532" y="583"/>
      <point x="567" y="562" type="curve"/>
      <point x="580" y="555"/>
      <point x="585" y="554"/>
      <point x="592" y="566" type="curve" smooth="yes"/>
      <point x="620" y="614" type="line" smooth="yes"/>
      <point x="627" y="626"/>
      <point x="627" y="634"/>
      <point x="616" y="641" type="curve" smooth="yes"/>
      <point x="563" y="676"/>
      <point x="482" y="695"/>
      <point x="392" y="695" type="curve" smooth="yes"/>
      <point x="166" y="695"/>
      <point x="39" y="568"/>
      <point x="39" y="340" type="curve" smooth="yes"/>
      <point x="39" y="111"/>
      <point x="170" y="-15"/>
      <point x="395" y="-15" type="curve" smooth="yes"/>
    </contour>
    <contour>
      <point x="393" y="771" type="line" smooth="yes"/>
      <point x="421" y="771"/>
      <point x="440" y="794"/>
      <point x="440" y="821" type="curve" smooth="yes"/>
      <point x="440" y="840" type="line" smooth="yes"/>
      <point x="440" y="867"/>
      <point x="420" y="889"/>
      <point x="393" y="889" type="curve" smooth="yes"/>
      <point x="372" y="889" type="line" smooth="yes"/>
      <point x="345" y="889"/>
      <point x="325" y="867"/>
      <point x="325" y="840" type="curve" smooth="yes"/>
      <point x="325" y="821" type="line" smooth="yes"/>
      <point x="325" y="794"/>
      <point x="345" y="771"/>
      <point x="372" y="771" type="curve" smooth="yes"/>
    </contour>
  </outline>
</glyph>
<glyph name="dcaron" format="1">
  <advance width="765"/>
  <unicode hex="010F"/>
  <note>
	dcaron
  </note>
  <outline>
    <contour>
      <point x="419" y="-15"/>
      <point x="509" y="14"/>
      <point x="558" y="50" type="curve"/>
      <point x="558" y="643" type="line" smooth="yes"/>
      <point x="558" y="667"/>
      <point x="548" y="680"/>
      <point x="520" y="680" type="curve" smooth="yes"/>
      <point x="470" y="680" type="line" smooth="yes"/>
      <point x="442" y="680"/>
      <point x="432" y="667"/>
      <point x="432" y="643" type="curve" smooth="yes"/>
      <point x="432" y="448" type="line"/>
      <point x="401" y="479"/>
      <point x="348" y="495"/>
      <point x="280" y="495" type="curve" smooth="yes"/>
      <point x="129" y="495"/>
      <point x="39" y="392"/>
      <point x="39" y="241" type="curve" smooth="yes"/>
      <point x="39" y="71"/>
      <point x="132" y="-15"/>
      <point x="323" y="-15" type="curve" smooth="yes"/>
    </contour>
    <contour>
      <point x="222" y="76"/>
      <point x="165" y="120"/>
      <point x="165" y="238" type="curve" smooth="yes"/>
      <point x="165" y="337"/>
      <point x="210" y="403"/>
      <point x="310" y="403" type="curve" smooth="yes"/>
      <point x="378" y="403"/>
      <point x="432" y="373"/>
      <point x="432" y="304" type="curve" smooth="yes"/>
      <point x="432" y="100" type="line"/>
      <point x="409" y="86"/>
      <point x="369" y="76"/>
      <point x="326" y="76" type="curve" smooth="yes"/>
    </contour>
    <contour>
      <point x="663" y="567" type="line" smooth="yes"/>
      <point x="689" y="567"/>
      <point x="695" y="572"/>
      <point x="705" y="589" type="curve"/>
      <point x="771" y="718" type="line" smooth="yes"/>
      <point x="782" y="739"/>
      <point x="772" y="750"/>
      <point x="750" y="750" type="curve" smooth="yes"/>
      <point x="685" y="750" type="line" smooth="yes"/>
      <point x="659" y="750"/>
      <point x="654" y="743"/>
      <point x="647" y="726" type="curve"/>
      <point x="600" y="595" type="line" smooth="yes"/>
      <point x="594" y="578"/>
      <point x="599" y="567"/>
      <point x="620" y="567" type="curve" smooth="yes"/>
    </contour>
  </outline>
</glyph>
<glyph name="Dcroat" format="1">
  <advance width="728"/>
  <unicode hex="0110"/>
  <note>
	Dcroat
  </note>
  <outline>
    <contour>
      <point x="342" y="0" type="line" smooth="yes"/>
      <point x="557" y="0"/>
      <point x="689" y="97"/>
      <point x="689" y="340" type="curve" smooth="yes"/>
      <point x="689" y="585"/>
      <point x="557" y="680"/>
      <point x="342" y="680" type="curve" smooth="yes"/>
      <point x="142" y="680" type="line" smooth="yes"/>
      <point x="114" y="680"/>
      <point x="104" y="667"/>
      <point x="104" y="643" type="curve" smooth="yes"/>
      <point x="104" y="389" type="line"/>
      <point x="54" y="389" type="line" smooth="yes"/>
      <point x="27" y="389"/>
      <point x="19" y="378"/>
      <point x="19" y="353" type="curve" smooth="yes"/>
      <point x="19" y="326" type="line" smooth="yes"/>
      <point x="19" y="302"/>
      <point x="27" y="292"/>
      <point x="54" y="292" type="curve" smooth="yes"/>
      <point x="104" y="292" type="line"/>
      <point x="104" y="36" type="line" smooth="yes"/>
      <point x="104" y="12"/>
      <point x="114" y="0"/>
      <point x="142" y="0" type="curve" smooth="yes"/>
    </contour>
    <contour>
      <point x="232" y="292" type="line"/>
      <point x="376" y="292" type="line" smooth="yes"/>
      <point x="403" y="292"/>
      <point x="412" y="302"/>
      <point x="412" y="326" type="curve" smooth="yes"/>
      <point x="412" y="353" type="line" smooth="yes"/>
      <point x="412" y="378"/>
      <point x="403" y="389"/>
      <point x="376" y="389" type="curve" smooth="yes"/>
      <point x="232" y="389" type="line"/>
      <point x="232" y="582" type="line"/>
      <point x="349" y="582" type="line" smooth="yes"/>
      <point x="483" y="582"/>
      <point x="562" y="525"/>
      <point x="562" y="340" type="curve" smooth="yes"/>
      <point x="562" y="155"/>
      <point x="483" y="97"/>
      <point x="349" y="97" type="curve" smooth="yes"/>
      <point x="232" y="97" type="line"/>
    </contour>
  </outline>
</glyph>
<glyph name="emacron" format="1">
  <advance width="598"/>
  <unicode hex="0113"/>
  <note>
	emacron
  </note>
  <outline>
    <contour>
      <point x="400" y="-15"/>
      <point x="461" y="0"/>
      <point x="516" y="34" type="curve" smooth="yes"/>
      <point x="526" y="40"/>
      <point x="528" y="47"/>
      <point x="522" y="58" type="curve" smooth="yes"/>
      <point x="498" y="101" type="line"/>
      <point x="493" y="111"/>
      <point x="488" y="113"/>
      <point x="476" y="106" type="curve" smooth="yes"/>
      <point x="441" y="86"/>
      <point x="396" y="70"/>
      <point x="334" y="70" type="curve" smooth="yes"/>
      <point x="227" y="70"/>
      <point x="160" y="117"/>
      <point x="160" y="207" type="curve"/>
      <point x="527" y="207" type="line" smooth="yes"/>
      <point x="548" y="207"/>
      <point x="559" y="219"/>
      <point x="559" y="242" type="curve" smooth="yes"/>
      <point x="559" y="405"/>
      <point x="474" y="495"/>
      <point x="304" y="495" type="curve" smooth="yes"/>
      <point x="136" y="495"/>
      <point x="39" y="405"/>
      <point x="39" y="232" type="curve" smooth="yes"/>
      <point x="39" y="60"/>
      <point x="168" y="-15"/>
      <point x="318" y="-15" type="curve" smooth="yes"/>
    </contour>
    <contour>
      <point x="160" y="359"/>
      <point x="209" y="413"/>
      <point x="305" y="413" type="curve" smooth="yes"/>
      <point x="399" y="413"/>
      <point x="443" y="362"/>
      <point x="443" y="281" type="curve"/>
      <point x="160" y="281" type="line"/>
    </contour>
    <contour>
      <point x="440" y="587" type="line" smooth="yes"/>
      <point x="467" y="587"/>
      <point x="476" y="597"/>
      <point x="476" y="622" type="curve" smooth="yes"/>
      <point x="476" y="648" type="line" smooth="yes"/>
      <point x="476" y="673"/>
      <point x="467" y="684"/>
      <point x="440" y="684" type="curve" smooth="yes"/>
      <point x="167" y="684" type="line" smooth="yes"/>
      <point x="140" y="684"/>
      <point x="131" y="673"/>
      <point x="131" y="648" type="curve" smooth="yes"/>
      <point x="131" y="622" type="line" smooth="yes"/>
      <point x="131" y="597"/>
      <point x="140" y="587"/>
      <point x="167" y="587" type="curve" smooth="yes"/>
    </contour>
  </outline>
</glyph>
<glyph name="Ebreve" format="1">
  <advance width="576"/>
  <unicode hex="0114"/>
  <note>
	Ebreve
  </note>
  <outline>
    <contour>
      <point x="511" y="0" type="line" smooth="yes"/>
      <point x="538" y="0"/>
      <point x="547" y="10"/>
      <point x="547" y="34" type="curve" smooth="yes"/>
      <point x="547" y="61" type="line" smooth="yes"/>
      <point x="547" y="86"/>
      <point x="538" y="97"/>
      <point x="511" y="97" type="curve" smooth="yes"/>
      <point x="187" y="97" type="line"/>
      <point x="187" y="292" type="line"/>
      <point x="423" y="292" type="line" smooth="yes"/>
      <point x="450" y="292"/>
      <point x="459" y="303"/>
      <point x="459" y="328" type="curve" smooth="yes"/>
      <point x="459" y="353" type="line" smooth="yes"/>
      <point x="459" y="378"/>
      <point x="450" y="388"/>
      <point x="423" y="388" type="curve" smooth="yes"/>
      <point x="187" y="388" type="line"/>
      <point x="187" y="582" type="line"/>
      <point x="512" y="582" type="line" smooth="yes"/>
      <point x="539" y="582"/>
      <point x="547" y="593"/>
      <point x="547" y="618" type="curve" smooth="yes"/>
      <point x="547" y="645" type="line" smooth="yes"/>
      <point x="547" y="670"/>
      <point x="539" y="680"/>
      <point x="512" y="680" type="curve" smooth="yes"/>
      <point x="96" y="680" type="line" smooth="yes"/>
      <point x="69" y="680"/>
      <point x="59" y="667"/>
      <point x="59" y="643" type="curve" smooth="yes"/>
      <point x="59" y="36" type="line" smooth="yes"/>
      <point x="59" y="12"/>
      <point x="69" y="0"/>
      <point x="96" y="0" type="curve" smooth="yes"/>
    </contour>
    <contour>
      <point x="419" y="756"/>
      <point x="473" y="825"/>
      <point x="473" y="919" type="curve" smooth="yes"/>
      <point x="473" y="930"/>
      <point x="467" y="937"/>
      <point x="457" y="937" type="curve" smooth="yes"/>
      <point x="391" y="937" type="line" smooth="yes"/>
      <point x="377" y="937"/>
      <point x="374" y="930"/>
      <point x="374" y="918" type="curve" smooth="yes"/>
      <point x="374" y="874"/>
      <point x="359" y="843"/>
      <point x="308" y="843" type="curve" smooth="yes"/>
      <point x="256" y="843"/>
      <point x="242" y="874"/>
      <point x="242" y="918" type="curve" smooth="yes"/>
      <point x="242" y="930"/>
      <point x="239" y="937"/>
      <point x="225" y="937" type="curve" smooth="yes"/>
      <point x="159" y="937" type="line" smooth="yes"/>
      <point x="149" y="937"/>
      <point x="143" y="930"/>
      <point x="143" y="919" type="curve" smooth="yes"/>
      <point x="143" y="825"/>
      <point x="195" y="756"/>
      <point x="308" y="756" type="curve" smooth="yes"/>
    </contour>
  </outline>
</glyph>
<glyph name="ebreve" format="1">
  <advance width="598"/>
  <unicode hex="0115"/>
  <note>
	ebreve
  </note>
  <outline>
    <contour>
      <point x="400" y="-15"/>
      <point x="461" y="0"/>
      <point x="516" y="34" type="curve" smooth="yes"/>
      <point x="526" y="40"/>
      <point x="528" y="47"/>
      <point x="522" y="58" type="curve" smooth="yes"/>
      <point x="498" y="101" type="line"/>
      <point x="493" y="111"/>
      <point x="488" y="113"/>
      <point x="476" y="106" type="curve" smooth="yes"/>
      <point x="441" y="86"/>
      <point x="396" y="70"/>
      <point x="334" y="70" type="curve" smooth="yes"/>
      <point x="227" y="70"/>
      <point x="160" y="117"/>
      <point x="160" y="207" type="curve"/>
      <point x="527" y="207" type="line" smooth="yes"/>
      <point x="548" y="207"/>
      <point x="559" y="219"/>
      <point x="559" y="242" type="curve" smooth="yes"/>
      <point x="559" y="405"/>
      <point x="474" y="495"/>
      <point x="304" y="495" type="curve" smooth="yes"/>
      <point x="136" y="495"/>
      <point x="39" y="405"/>
      <point x="39" y="232" type="curve" smooth="yes"/>
      <point x="39" y="60"/>
      <point x="168" y="-15"/>
      <point x="318" y="-15" type="curve" smooth="yes"/>
    </contour>
    <contour>
      <point x="160" y="359"/>
      <point x="209" y="413"/>
      <point x="305" y="413" type="curve" smooth="yes"/>
      <point x="399" y="413"/>
      <point x="443" y="362"/>
      <point x="443" y="281" type="curve"/>
      <point x="160" y="281" type="line"/>
    </contour>
    <contour>
      <point x="415" y="558"/>
      <point x="469" y="627"/>
      <point x="469" y="721" type="curve" smooth="yes"/>
      <point x="469" y="732"/>
      <point x="463" y="739"/>
      <point x="453" y="739" type="curve" smooth="yes"/>
      <point x="387" y="739" type="line" smooth="yes"/>
      <point x="373" y="739"/>
      <point x="370" y="732"/>
      <point x="370" y="720" type="curve" smooth="yes"/>
      <point x="370" y="676"/>
      <point x="355" y="645"/>
      <point x="304" y="645" type="curve" smooth="yes"/>
      <point x="252" y="645"/>
      <point x="238" y="676"/>
      <point x="238" y="720" type="curve" smooth="yes"/>
      <point x="238" y="732"/>
      <point x="235" y="739"/>
      <point x="221" y="739" type="curve" smooth="yes"/>
      <point x="155" y="739" type="line" smooth="yes"/>
      <point x="145" y="739"/>
      <point x="139" y="732"/>
      <point x="139" y="721" type="curve" smooth="yes"/>
      <point x="139" y="627"/>
      <point x="191" y="558"/>
      <point x="304" y="558" type="curve" smooth="yes"/>
    </contour>
  </outline>
</glyph>
<glyph name="edotaccent" format="1">
  <advance width="598"/>
  <unicode hex="0117"/>
  <note>
	edotaccent
  </note>
  <outline>
    <contour>
      <point x="400" y="-15"/>
      <point x="461" y="0"/>
      <point x="516" y="34" type="curve" smooth="yes"/>
      <point x="526" y="40"/>
      <point x="528" y="47"/>
      <point x="522" y="58" type="curve" smooth="yes"/>
      <point x="498" y="101" type="line"/>
      <point x="493" y="111"/>
      <point x="488" y="113"/>
      <point x="476" y="106" type="curve" smooth="yes"/>
      <point x="441" y="86"/>
      <point x="396" y="70"/>
      <point x="334" y="70" type="curve" smooth="yes"/>
      <point x="227" y="70"/>
      <point x="160" y="117"/>
      <point x="160" y="207" type="curve"/>
      <point x="527" y="207" type="line" smooth="yes"/>
      <point x="548" y="207"/>
      <point x="559" y="219"/>
      <point x="559" y="242" type="curve" smooth="yes"/>
      <point x="559" y="405"/>
      <point x="474" y="495"/>
      <point x="304" y="495" type="curve" smooth="yes"/>
      <point x="136" y="495"/>
      <point x="39" y="405"/>
      <point x="39" y="232" type="curve" smooth="yes"/>
      <point x="39" y="60"/>
      <point x="168" y="-15"/>
      <point x="318" y="-15" type="curve" smooth="yes"/>
    </contour>
    <contour>
      <point x="160" y="359"/>
      <point x="209" y="413"/>
      <point x="305" y="413" type="curve" smooth="yes"/>
      <point x="399" y="413"/>
      <point x="443" y="362"/>
      <point x="443" y="281" type="curve"/>
      <point x="160" y="281" type="line"/>
    </contour>
    <contour>
      <point x="314" y="573" type="line" smooth="yes"/>
      <point x="342" y="573"/>
      <point x="361" y="596"/>
      <point x="361" y="623" type="curve" smooth="yes"/>
      <point x="361" y="642" type="line" smooth="yes"/>
      <point x="361" y="669"/>
      <point x="341" y="691"/>
      <point x="314" y="691" type="curve" smooth="yes"/>
      <point x="293" y="691" type="line" smooth="yes"/>
      <point x="266" y="691"/>
      <point x="246" y="669"/>
      <point x="246" y="642" type="curve" smooth="yes"/>
      <point x="246" y="623" type="line" smooth="yes"/>
      <point x="246" y="596"/>
      <point x="266" y="573"/>
      <point x="293" y="573" type="curve" smooth="yes"/>
    </contour>
  </outline>
</glyph>
<glyph name="eogonek" format="1">
  <advance width="598"/>
  <unicode hex="0119"/>
  <note>
	eogonek
  </note>
  <outline>
    <contour>
      <point x="400" y="-15"/>
      <point x="461" y="0"/>
      <point x="516" y="34" type="curve" smooth="yes"/>
      <point x="526" y="40"/>
      <point x="528" y="47"/>
      <point x="522" y="58" type="curve" smooth="yes"/>
      <point x="498" y="101" type="line"/>
      <point x="493" y="111"/>
      <point x="488" y="113"/>
      <point x="476" y="106" type="curve" smooth="yes"/>
      <point x="441" y="86"/>
      <point x="396" y="70"/>
      <point x="334" y="70" type="curve" smooth="yes"/>
      <point x="227" y="70"/>
      <point x="160" y="117"/>
      <point x="160" y="207" type="curve"/>
      <point x="527" y="207" type="line" smooth="yes"/>
      <point x="548" y="207"/>
      <point x="559" y="219"/>
      <point x="559" y="242" type="curve" smooth="yes"/>
      <point x="559" y="405"/>
      <point x="474" y="495"/>
      <point x="304" y="495" type="curve" smooth="yes"/>
      <point x="136" y="495"/>
      <point x="39" y="405"/>
      <point x="39" y="232" type="curve" smooth="yes"/>
      <point x="39" y="60"/>
      <point x="168" y="-15"/>
      <point x="318" y="-15" type="curve" smooth="yes"/>
    </contour>
    <contour>
      <point x="483" y="-162"/>
      <point x="508" y="-159"/>
      <point x="526" y="-150" type="curve" smooth="yes"/>
      <point x="539" y="-144"/>
      <point x="539" y="-140"/>
      <point x="536" y="-133" type="curve" smooth="yes"/>
      <point x="521" y="-100" type="line"/>
      <point x="517" y="-92"/>
      <point x="514" y="-92"/>
      <point x="507" y="-95" type="curve"/>
      <point x="501" y="-98"/>
      <point x="494" y="-99"/>
      <point x="485" y="-99" type="curve" smooth="yes"/>
      <point x="469" y="-99"/>
      <point x="461" y="-90"/>
      <point x="461" y="-72" type="curve" smooth="yes"/>
      <point x="461" y="-43"/>
      <point x="473" y="-20"/>
      <point x="520" y="36" type="curve" smooth="yes"/>
      <point x="527" y="44"/>
      <point x="522" y="52"/>
      <point x="510" y="52" type="curve" smooth="yes"/>
      <point x="451" y="52" type="line" smooth="yes"/>
      <point x="438" y="52"/>
      <point x="434" y="48"/>
      <point x="426" y="39" type="curve" smooth="yes"/>
      <point x="382" y="-11"/>
      <point x="365" y="-48"/>
      <point x="365" y="-84" type="curve" smooth="yes"/>
      <point x="365" y="-126"/>
      <point x="392" y="-162"/>
      <point x="452" y="-162" type="curve" smooth="yes"/>
    </contour>
    <contour>
      <point x="160" y="359"/>
      <point x="209" y="413"/>
      <point x="305" y="413" type="curve" smooth="yes"/>
      <point x="399" y="413"/>
      <point x="443" y="362"/>
      <point x="443" y="281" type="curve"/>
      <point x="160" y="281" type="line"/>
    </contour>
  </outline>
</glyph>
<glyph name="Ecaron" format="1">
  <advance width="576"/>
  <unicode hex="011A"/>
  <note>
	Ecaron
  </note>
  <outline>
    <contour>
      <point x="511" y="0" type="line" smooth="yes"/>
      <point x="538" y="0"/>
      <point x="547" y="10"/>
      <point x="547" y="34" type="curve" smooth="yes"/>
      <point x="547" y="61" type="line" smooth="yes"/>
      <point x="547" y="86"/>
      <point x="538" y="97"/>
      <point x="511" y="97" type="curve" smooth="yes"/>
      <point x="187" y="97" type="line"/>
      <point x="187" y="292" type="line"/>
      <point x="423" y="292" type="line" smooth="yes"/>
      <point x="450" y="292"/>
      <point x="459" y="303"/>
      <point x="459" y="328" type="curve" smooth="yes"/>
      <point x="459" y="353" type="line" smooth="yes"/>
      <point x="459" y="378"/>
      <point x="450" y="388"/>
      <point x="423" y="388" type="curve" smooth="yes"/>
      <point x="187" y="388" type="line"/>
      <point x="187" y="582" type="line"/>
      <point x="512" y="582" type="line" smooth="yes"/>
      <point x="539" y="582"/>
      <point x="547" y="593"/>
      <point x="547" y="618" type="curve" smooth="yes"/>
      <point x="547" y="645" type="line" smooth="yes"/>
      <point x="547" y="670"/>
      <point x="539" y="680"/>
      <point x="512" y="680" type="curve" smooth="yes"/>
      <point x="96" y="680" type="line" smooth="yes"/>
      <point x="69" y="680"/>
      <point x="59" y="667"/>
      <point x="59" y="643" type="curve" smooth="yes"/>
      <point x="59" y="36" type="line" smooth="yes"/>
      <point x="59" y="12"/>
      <point x="69" y="0"/>
      <point x="96" y="0" type="curve" smooth="yes"/>
    </contour>
    <contour>
      <point x="336" y="754" type="line" smooth="yes"/>
      <point x="359" y="754"/>
      <point x="363" y="760"/>
      <point x="374" y="775" type="curve" smooth="yes"/>
      <point x="478" y="916" type="line" smooth="yes"/>
      <point x="492" y="934"/>
      <point x="488" y="948"/>
      <point x="467" y="948" type="curve" smooth="yes"/>
      <point x="415" y="948" type="line" smooth="yes"/>
      <point x="390" y="948"/>
      <point x="385" y="944"/>
      <point x="376" y="929" type="curve"/>
      <point x="308" y="828" type="line"/>
      <point x="239" y="929" type="line" smooth="yes"/>
      <point x="229" y="944"/>
      <point x="224" y="948"/>
      <point x="200" y="948" type="curve" smooth="yes"/>
      <point x="147" y="948" type="line" smooth="yes"/>
      <point x="127" y="948"/>
      <point x="123" y="935"/>
      <point x="137" y="916" type="curve" smooth="yes"/>
      <point x="241" y="775" type="line"/>
      <point x="253" y="760"/>
      <point x="256" y="754"/>
      <point x="279" y="754" type="curve" smooth="yes"/>
    </contour>
  </outline>
</glyph>
<glyph name="ecaron" format="1">
  <advance width="598"/>
  <unicode hex="011B"/>
  <note>
	ecaron
  </note>
  <outline>
    <contour>
      <point x="400" y="-15"/>
      <point x="461" y="0"/>
      <point x="516" y="34" type="curve" smooth="yes"/>
      <point x="526" y="40"/>
      <point x="528" y="47"/>
      <point x="522" y="58" type="curve" smooth="yes"/>
      <point x="498" y="101" type="line"/>
      <point x="493" y="111"/>
      <point x="488" y="113"/>
      <point x="476" y="106" type="curve" smooth="yes"/>
      <point x="441" y="86"/>
      <point x="396" y="70"/>
      <point x="334" y="70" type="curve" smooth="yes"/>
      <point x="227" y="70"/>
      <point x="160" y="117"/>
      <point x="160" y="207" type="curve"/>
      <point x="527" y="207" type="line" smooth="yes"/>
      <point x="548" y="207"/>
      <point x="559" y="219"/>
      <point x="559" y="242" type="curve" smooth="yes"/>
      <point x="559" y="405"/>
      <point x="474" y="495"/>
      <point x="304" y="495" type="curve" smooth="yes"/>
      <point x="136" y="495"/>
      <point x="39" y="405"/>
      <point x="39" y="232" type="curve" smooth="yes"/>
      <point x="39" y="60"/>
      <point x="168" y="-15"/>
      <point x="318" y="-15" type="curve" smooth="yes"/>
    </contour>
    <contour>
      <point x="160" y="359"/>
      <point x="209" y="413"/>
      <point x="305" y="413" type="curve" smooth="yes"/>
      <point x="399" y="413"/>
      <point x="443" y="362"/>
      <point x="443" y="281" type="curve"/>
      <point x="160" y="281" type="line"/>
    </contour>
    <contour>
      <point x="331" y="556" type="line" smooth="yes"/>
      <point x="354" y="556"/>
      <point x="358" y="562"/>
      <point x="369" y="577" type="curve" smooth="yes"/>
      <point x="473" y="718" type="line" smooth="yes"/>
      <point x="487" y="736"/>
      <point x="483" y="750"/>
      <point x="462" y="750" type="curve" smooth="yes"/>
      <point x="410" y="750" type="line" smooth="yes"/>
      <point x="385" y="750"/>
      <point x="380" y="746"/>
      <point x="371" y="731" type="curve"/>
      <point x="303" y="630" type="line"/>
      <point x="234" y="731" type="line" smooth="yes"/>
      <point x="224" y="746"/>
      <point x="219" y="750"/>
      <point x="195" y="750" type="curve" smooth="yes"/>
      <point x="142" y="750" type="line" smooth="yes"/>
      <point x="122" y="750"/>
      <point x="118" y="737"/>
      <point x="132" y="718" type="curve" smooth="yes"/>
      <point x="236" y="577" type="line"/>
      <point x="248" y="562"/>
      <point x="251" y="556"/>
      <point x="274" y="556" type="curve" smooth="yes"/>
    </contour>
  </outline>
</glyph>
<glyph name="gcommaaccent" format="1">
  <advance width="617"/>
  <unicode hex="0123"/>
  <note>
	gcommaaccent
  </note>
  <outline>
    <contour>
      <point x="489" y="-170"/>
      <point x="558" y="-64"/>
      <point x="558" y="89" type="curve" smooth="yes"/>
      <point x="558" y="432" type="line"/>
      <point x="509" y="466"/>
      <point x="420" y="495"/>
      <point x="329" y="495" type="curve" smooth="yes"/>
      <point x="141" y="495"/>
      <point x="39" y="401"/>
      <point x="39" y="234" type="curve" smooth="yes"/>
      <point x="39" y="85"/>
      <point x="128" y="1"/>
      <point x="276" y="1" type="curve" smooth="yes"/>
      <point x="348" y="1"/>
      <point x="395" y="20"/>
      <point x="432" y="60" type="curve"/>
      <point x="432" y="-43"/>
      <point x="390" y="-80"/>
      <point x="303" y="-80" type="curve" smooth="yes"/>
      <point x="250" y="-80"/>
      <point x="197" y="-71"/>
      <point x="160" y="-52" type="curve" smooth="yes"/>
      <point x="148" y="-46"/>
      <point x="144" y="-48"/>
      <point x="138" y="-59" type="curve"/>
      <point x="109" y="-108" type="line" smooth="yes"/>
      <point x="104" y="-116"/>
      <point x="107" y="-124"/>
      <point x="117" y="-130" type="curve" smooth="yes"/>
      <point x="156" y="-154"/>
      <point x="237" y="-170"/>
      <point x="314" y="-170" type="curve" smooth="yes"/>
    </contour>
    <contour>
      <point x="211" y="95"/>
      <point x="165" y="143"/>
      <point x="165" y="242" type="curve" smooth="yes"/>
      <point x="165" y="356"/>
      <point x="225" y="403"/>
      <point x="323" y="403" type="curve" smooth="yes"/>
      <point x="365" y="403"/>
      <point x="407" y="396"/>
      <point x="432" y="384" type="curve"/>
      <point x="432" y="206" type="line" smooth="yes"/>
      <point x="432" y="135"/>
      <point x="379" y="95"/>
      <point x="306" y="95" type="curve" smooth="yes"/>
    </contour>
    <contour>
      <point x="348" y="565" type="line" smooth="yes"/>
      <point x="370" y="565"/>
      <point x="378" y="570"/>
      <point x="384" y="591" type="curve" smooth="yes"/>
      <point x="430" y="742" type="line" smooth="yes"/>
      <point x="435" y="757"/>
      <point x="432" y="767"/>
      <point x="414" y="767" type="curve" smooth="yes"/>
      <point x="370" y="767" type="line" smooth="yes"/>
      <point x="353" y="767"/>
      <point x="345" y="761"/>
      <point x="341" y="750" type="curve"/>
      <point x="276" y="598" type="line" smooth="yes"/>
      <point x="266" y="575"/>
      <point x="270" y="565"/>
      <point x="296" y="565" type="curve" smooth="yes"/>
    </contour>
  </outline>
</glyph>
